<svg width="960" height="720" xmlns="http://www.w3.org/2000/svg" xmlns:xlink="http://www.w3.org/1999/xlink" overflow="hidden"><defs><clipPath id="clip0"><path d="M0 0 960 0 960 720 0 720Z" fill-rule="evenodd" clip-rule="evenodd"/></clipPath></defs><g clip-path="url(#clip0)"><rect x="0" y="0" width="960" height="720" fill="#FFFFFF"/><path d="M482 37.9988 482 693.692 478 693.692 478 37.9988ZM474 40 480 28 486 40ZM486 691.692 480 703.692 474 691.692Z"/><path d="M53.0003 364 907.557 364 907.557 368 53.0003 368ZM55 372 43 366 55 360ZM905.557 360 917.557 366 905.557 372Z"/><path d="M0 0 741.683 596.469" stroke="#404040" stroke-width="4" stroke-miterlimit="8" fill="none" fill-rule="evenodd" transform="matrix(1 0 0 -1 109 664.469)"/><text font-family="Arial,Arial_MSFontService,sans-serif" font-weight="700" font-size="27" transform="translate(363.531 59)">Kunden<tspan x="99.5" y="0">-</tspan><tspan x="-57.5" y="32">zufriedenheit</tspan><tspan font-weight="400" font-size="24" x="127.674" y="-2">sehr</tspan><tspan font-weight="400" font-size="24" x="127.674" y="27">zufrieden</tspan><tspan font-weight="400" font-size="24" x="127.674" y="605">völlig</tspan><tspan font-weight="400" font-size="24" x="127.674" y="634">unzufriede</tspan><tspan font-weight="400" font-size="24" x="239.674" y="634">n</tspan></text><path d="M241.508 648.687C312.806 487.278 587.162 372.71 904.084 372.003" stroke="#FF0000" stroke-width="4" stroke-miterlimit="8" fill="none" fill-rule="evenodd"/><path d="M766.448 76.4708C695.685 241.816 398.729 360.142 54.8888 360" stroke="#FF0000" stroke-width="4" stroke-miterlimit="8" fill="none" fill-rule="evenodd"/><text fill="#FF0000" font-family="Arial,Arial_MSFontService,sans-serif" font-weight="400" font-size="27" transform="translate(515.746 471)">Basis<tspan x="65.3333" y="0">-</tspan><tspan x="0" y="32">merkmale</tspan><tspan x="-248.645" y="-205">Begeisterungs</tspan>-<tspan x="-248.645" y="-173">merkmale</tspan><tspan fill="#000000" x="-463.425" y="-70">wenig</tspan><tspan fill="#000000" x="352.489" y="-73">viel</tspan><tspan fill="#404040" x="285.974" y="-330">Leistungs</tspan><tspan fill="#404040" x="400.141" y="-330">-</tspan><tspan fill="#404040" x="285.974" y="-298">merkmale</tspan><tspan fill="#000000" font-weight="700" x="259.283" y="-148">realisierte </tspan><tspan fill="#000000" font-weight="700" x="99.1165" y="-116">Qualitätseigenschaften</tspan></text></g></svg>