<?xml version="1.0" encoding="UTF-8"?>
<!DOCTYPE svg PUBLIC "-//W3C//DTD SVG 1.1//EN" "http://www.w3.org/Graphics/SVG/1.1/DTD/svg11.dtd">
<!-- Creator: CorelDRAW -->
<svg xmlns="http://www.w3.org/2000/svg" xml:space="preserve" width="218.07mm" height="121.185mm" style="shape-rendering:geometricPrecision; text-rendering:geometricPrecision; image-rendering:optimizeQuality; fill-rule:evenodd; clip-rule:evenodd"
viewBox="0 0 62.9922 35.0057"
 xmlns:xlink="http://www.w3.org/1999/xlink">
 <defs>
  <style type="text/css">
   <![CDATA[
    .str0 {stroke:#E31E24;stroke-width:0.0577724}
    .fil3 {fill:none}
    .fil0 {fill:#2B2A29;fill-rule:nonzero}
    .fil1 {fill:#393185;fill-rule:nonzero}
    .fil2 {fill:#E31E24;fill-rule:nonzero}
   ]]>
  </style>
 </defs>
 <g id="Layer_x0020_1">
  <metadata id="CorelCorpID_0Corel-Layer"/>
  <path class="fil0" d="M0.585321 17.6197l0 -0.136689 0.494301 -0.000808813 0 0.43286c-0.0757974,0.0606032 -0.154079,0.105983 -0.234787,0.136689 -0.080708,0.030446 -0.163583,0.0456691 -0.248363,0.0456691 -0.114678,0 -0.219015,-0.0244666 -0.312491,-0.0736598 -0.0937646,-0.0489043 -0.16442,-0.120109 -0.212256,-0.212776 -0.0478067,-0.0929269 -0.0717244,-0.196744 -0.0717244,-0.311393 0,-0.113609 0.0239178,-0.219593 0.0714644,-0.31795 0.0472867,-0.0986464 0.115776,-0.171728 0.20489,-0.219564 0.0891428,-0.0475467 0.191862,-0.0714644 0.308158,-0.0714644 0.0842321,0 0.160607,0.0135765 0.228808,0.0410184 0.0682003,0.0271819 0.121755,0.065225 0.160318,0.114129 0.0388808,0.0489332 0.0682292,0.112512 0.088594,0.191053l-0.139405 0.0383031c-0.0176495,-0.0595056 -0.0394008,-0.106243 -0.065225,-0.140214 -0.0260842,-0.0339702 -0.0632897,-0.0611521 -0.111674,-0.0815168 -0.0480955,-0.0203937 -0.10191,-0.030706 -0.160607,-0.030706 -0.0706556,0 -0.131779,0.0108612 -0.183138,0.0323237 -0.0516485,0.0214624 -0.0929558,0.049742 -0.124731,0.084781 -0.0315148,0.0350678 -0.0559814,0.0733709 -0.0736598,0.115487 -0.0296083,0.0720133 -0.0445425,0.150295 -0.0445425,0.234787 0,0.104077 0.0179383,0.191053 0.0537861,0.26116 0.0358767,0.0701068 0.0880451,0.122015 0.156534,0.155985 0.0684892,0.0339702 0.141022,0.0510708 0.217946,0.0510708 0.0671026,0 0.132328,-0.0130277 0.195906,-0.0388519 0.0638674,-0.0255354 0.111963,-0.0529773 0.144835,-0.0823257l0 -0.217397 -0.342937 0zm0.702194 0.457875l0 -0.845383 0.128804 0 0 0.127995c0.0328725,-0.0597944 0.0633185,-0.0994552 0.0913093,-0.118491 0.0277019,-0.0190071 0.0584079,-0.0287995 0.0918292,-0.0287995 0.0483844,0 0.0972887,0.015483 0.147291,0.046189l-0.0494532 0.133165c-0.034779,-0.0209425 -0.0698468,-0.0312549 -0.104886,-0.0312549 -0.0315148,0 -0.0595056,0.00950356 -0.084521,0.0282507 -0.0249866,0.019036 -0.0426649,0.0451202 -0.0532661,0.0785416 -0.0160318,0.0508108 -0.0238889,0.106532 -0.0238889,0.167107l0 0.442681 -0.143218 0zm0.491036 -0.422836c0,-0.156505 0.0434737,-0.272541 0.13071,-0.347819 0.0725621,-0.0625097 0.161156,-0.0940246 0.265753,-0.0940246 0.116325,0 0.211418,0.0380431 0.285078,0.114389 0.0738909,0.0760862 0.110576,0.181261 0.110576,0.315495 0,0.108988 -0.0162918,0.194577 -0.0489043,0.256798 -0.0326125,0.0625097 -0.0801592,0.110865 -0.14238,0.145384 -0.0625097,0.034519 -0.13045,0.0516485 -0.20437,0.0516485 -0.118202,0 -0.213844,-0.0377831 -0.286955,-0.113869 -0.0730821,-0.0758263 -0.109508,-0.185074 -0.109508,-0.328003zm0.147291 0c0,0.108439 0.0236289,0.189407 0.0709156,0.243222 0.0472867,0.054075 0.106792,0.080968 0.178257,0.080968 0.0712045,0 0.13045,-0.0271819 0.177737,-0.0812569 0.0469978,-0.054075 0.0706556,-0.136689 0.0706556,-0.247555 0,-0.104626 -0.0236578,-0.183976 -0.0712045,-0.237762 -0.0475467,-0.053815 -0.106532,-0.080708 -0.177188,-0.080708 -0.0714644,0 -0.13097,0.026893 -0.178257,0.0804192 -0.0472867,0.053555 -0.0709156,0.134523 -0.0709156,0.242673zm0.969016 0.422836l-0.258705 -0.845383 0.1481 0 0.134523 0.488032 0.050002 0.181521c0.00216646,-0.0092147 0.0168407,-0.0673915 0.0437337,-0.174444l0.134523 -0.495109 0.147291 0 0.126637 0.490228 0.042376 0.161676 0.0483844 -0.163323 0.144835 -0.488581 0.139405 0 -0.264424 0.845383 -0.148619 0 -0.134523 -0.506259 -0.0328725 -0.144287 -0.17092 0.650546 -0.149746 0zm1.02202 -1.00218l0 -0.16494 0.143478 0 0 0.16494 -0.143478 0zm0 1.00218l0 -0.845383 0.143478 0 0 0.845383 -0.143478 0zm0.361684 0l0 -0.845383 0.128804 0 0 0.120109c0.0622497,-0.0929269 0.151912,-0.139405 0.269046,-0.139405 0.0510708,0 0.0978087,0.00924358 0.140474,0.0274419 0.0429538,0.0184872 0.0747286,0.0424049 0.0959311,0.0722733 0.0214624,0.0296372 0.0361366,0.0649651 0.0448314,0.105723 0.00517063,0.0266331 0.00788593,0.0730821 0.00788593,0.139405l0 0.519836 -0.143478 0 0 -0.514405c0,-0.0581479 -0.0054306,-0.10191 -0.0165807,-0.13097 -0.0111501,-0.0288284 -0.030966,-0.0519085 -0.0592456,-0.069038 -0.0285107,-0.0173895 -0.061672,-0.0260842 -0.100004,-0.0260842 -0.0611232,0 -0.113581,0.019556 -0.158152,0.0581479 -0.0442825,0.0388519 -0.0662938,0.112223 -0.0662938,0.220662l0 0.461688 -0.143218 0zm0.880451 0.0701068l0.139405 0.0206536c0.00569058,0.0429249 0.0220113,0.0741797 0.0483555,0.0940246 0.0356167,0.0263442 0.084261,0.0396607 0.145673,0.0396607 0.0665538,0 0.117653,-0.0133165 0.15379,-0.0396607 0.0361366,-0.0266331 0.0603433,-0.0638674 0.073111,-0.111414 0.00759707,-0.0293484 0.0108612,-0.0905004 0.0103124,-0.183976 -0.0624808,0.0736598 -0.140474,0.110605 -0.233978,0.110605 -0.116296,0 -0.206247,-0.0418561 -0.269826,-0.125828 -0.0635785,-0.0836833 -0.0956422,-0.184496 -0.0956422,-0.30163 0,-0.080708 0.0146742,-0.155148 0.0437337,-0.223377 0.0293484,-0.0682003 0.0717533,-0.120918 0.127186,-0.158152 0.0554326,-0.0369454 0.120658,-0.0556926 0.195386,-0.0556926 0.0997151,0 0.18207,0.0404984 0.246746,0.121206l0 -0.10191 0.132328 0 0 0.730705c0,0.131519 -0.0135765,0.224995 -0.0402096,0.279907 -0.0269219,0.0548838 -0.069298,0.0983575 -0.127446,0.130161 -0.0581768,0.0317748 -0.129641,0.0478067 -0.214682,0.0478067 -0.100813,0 -0.182359,-0.0228201 -0.244291,-0.0682003 -0.0622497,-0.0453802 -0.0921181,-0.113581 -0.0899516,-0.20489zm0.118462 -0.507877c0,0.110865 0.0220113,0.191833 0.0663227,0.242673 0.0440226,0.0510708 0.0991663,0.0763462 0.165489,0.0763462 0.065745,0 0.120918,-0.0252754 0.165489,-0.0758263 0.0445714,-0.0508108 0.0668427,-0.130161 0.0668427,-0.238571 0,-0.103528 -0.0228201,-0.181521 -0.0687491,-0.233978 -0.045929,-0.0524573 -0.101362,-0.0788015 -0.166038,-0.0788015 -0.0635785,0 -0.117653,0.0258243 -0.162485,0.0777039 -0.0445714,0.0516485 -0.0668715,0.128544 -0.0668715,0.230454zm1.06766 0.43777l0.448372 -1.16712 0.166327 0 0.47772 1.16712 -0.17609 0 -0.136141 -0.353538 -0.488061 0 -0.127995 0.353538 -0.164131 0zm0.336697 -0.479366l0.395943 0 -0.122015 -0.323092c-0.0369743,-0.0980975 -0.0646762,-0.178806 -0.0826145,-0.242124 -0.014963,0.0750174 -0.0358767,0.149197 -0.0630586,0.223117l-0.128255 0.342099zm1.41251 0.169591l0.140762 0.0184583c-0.015223,0.0970287 -0.0546238,0.173115 -0.118202,0.227999 -0.0633185,0.0548838 -0.141311,0.0823545 -0.233689,0.0823545 -0.115487,0 -0.208703,-0.0377831 -0.27881,-0.113321 -0.0703957,-0.0755663 -0.105723,-0.183976 -0.105723,-0.325287 0,-0.0913093 0.015223,-0.171208 0.0453802,-0.239669 0.030446,-0.0684892 0.0763751,-0.119849 0.138336,-0.154079 0.061672,-0.0342301 0.129064,-0.0513597 0.201626,-0.0513597 0.0918581,0 0.167107,0.0233689 0.225283,0.0698468 0.0584079,0.046449 0.0959022,0.112223 0.112483,0.197813l-0.139405 0.0214624c-0.0133165,-0.0567903 -0.0366855,-0.0994552 -0.0703668,-0.128255 -0.0337102,-0.0285396 -0.0744686,-0.0429249 -0.122304,-0.0429249 -0.0722733,0 -0.13097,0.0257954 -0.176061,0.0777039 -0.0451202,0.0516485 -0.0676804,0.133425 -0.0676804,0.245388 0,0.113581 0.0217513,0.196195 0.065485,0.247815 0.0434737,0.0513597 0.100293,0.0771839 0.1704,0.0771839 0.0562414,0 0.102979,-0.0173895 0.140762,-0.0519085 0.0377543,-0.0344901 0.061672,-0.0874963 0.0717244,-0.159221zm0.576366 0.181521l0.0206536 0.126637c-0.0402096,0.00840588 -0.0763462,0.0127677 -0.10815,0.0127677 -0.0521685,0 -0.0924069,-0.00817479 -0.121206,-0.0247266 -0.0285107,-0.0163207 -0.0486444,-0.0380431 -0.0603144,-0.0649651 -0.0116989,-0.0266331 -0.0176784,-0.0831345 -0.0176784,-0.169013l0 -0.486415 -0.105146 0 0 -0.111414 0.105146 0 0 -0.209512 0.142669 -0.0858787 0 0.29539 0.144027 0 0 0.111414 -0.144027 0 0 0.494301c0,0.0410184 0.00245533,0.0671026 0.00733709,0.0788015 0.00517063,0.01167 0.0133165,0.0209136 0.0247266,0.0279907 0.01141,0.00678826 0.0277307,0.0103124 0.0489332,0.0103124 0.0160318,0 0.0369454,-0.00190649 0.0630297,-0.00569058zm0.140762 -0.873923l0 -0.16494 0.143478 0 0 0.16494 -0.143478 0zm0 1.00218l0 -0.845383 0.143478 0 0 0.845383 -0.143478 0zm0.308158 -0.422836c0,-0.156505 0.0434737,-0.272541 0.13071,-0.347819 0.0725621,-0.0625097 0.161156,-0.0940246 0.265753,-0.0940246 0.116325,0 0.211418,0.0380431 0.285078,0.114389 0.0738909,0.0760862 0.110576,0.181261 0.110576,0.315495 0,0.108988 -0.0162918,0.194577 -0.0489043,0.256798 -0.0326125,0.0625097 -0.0801592,0.110865 -0.14238,0.145384 -0.0625097,0.034519 -0.13045,0.0516485 -0.20437,0.0516485 -0.118202,0 -0.213844,-0.0377831 -0.286955,-0.113869 -0.0730821,-0.0758263 -0.109508,-0.185074 -0.109508,-0.328003zm0.147291 0c0,0.108439 0.0236289,0.189407 0.0709156,0.243222 0.0472867,0.054075 0.106792,0.080968 0.178257,0.080968 0.0712045,0 0.13045,-0.0271819 0.177737,-0.0812569 0.0469978,-0.054075 0.0706556,-0.136689 0.0706556,-0.247555 0,-0.104626 -0.0236578,-0.183976 -0.0712045,-0.237762 -0.0475467,-0.053815 -0.106532,-0.080708 -0.177188,-0.080708 -0.0714644,0 -0.13097,0.026893 -0.178257,0.0804192 -0.0472867,0.053555 -0.0709156,0.134523 -0.0709156,0.242673zm0.813031 0.422836l0 -0.845383 0.128804 0 0 0.120109c0.0622497,-0.0929269 0.151912,-0.139405 0.269046,-0.139405 0.0510708,0 0.0978087,0.00924358 0.140474,0.0274419 0.0429538,0.0184872 0.0747286,0.0424049 0.0959311,0.0722733 0.0214624,0.0296372 0.0361366,0.0649651 0.0448314,0.105723 0.00517063,0.0266331 0.00788593,0.0730821 0.00788593,0.139405l0 0.519836 -0.143478 0 0 -0.514405c0,-0.0581479 -0.0054306,-0.10191 -0.0165807,-0.13097 -0.0111501,-0.0288284 -0.030966,-0.0519085 -0.0592456,-0.069038 -0.0285107,-0.0173895 -0.061672,-0.0260842 -0.100004,-0.0260842 -0.0611232,0 -0.113581,0.019556 -0.158152,0.0581479 -0.0442825,0.0388519 -0.0662938,0.112223 -0.0662938,0.220662l0 0.461688 -0.143218 0z"/>
  <path class="fil0" d="M23.4319 18.2298l0 -1.16712 0.51741 0c0.104077,0 0.183138,0.0105723 0.237213,0.0315148 0.054075,0.0209136 0.0972887,0.0578879 0.129901,0.110865 0.0323525,0.0532661 0.0483844,0.111963 0.0483844,0.17609 0,0.0828745 -0.0266331,0.152432 -0.0804481,0.209252 -0.0535261,0.0567903 -0.136401,0.0929269 -0.248363,0.10841 0.0410184,0.019556 0.0720133,0.0388519 0.0931869,0.0581479 0.0451202,0.0413073 0.0877851,0.0932157 0.128284,0.155177l0.202983 0.317661 -0.194289 0 -0.154368 -0.242933c-0.0450913,-0.0698468 -0.0823257,-0.123633 -0.111674,-0.160607 -0.0290884,-0.0372343 -0.0551726,-0.0633185 -0.0782527,-0.0779927 -0.023109,-0.0149342 -0.0464779,-0.0252754 -0.0703957,-0.0312549 -0.0176495,-0.00352412 -0.046189,-0.0054306 -0.0861386,-0.0054306l-0.179066 0 0 0.518218 -0.154368 0zm0.154368 -0.651904l0.332047 0c0.0703957,0 0.125828,-0.00733709 0.165489,-0.0220113 0.0399496,-0.0146742 0.0701357,-0.0380431 0.0907893,-0.0701068 0.0206247,-0.0320637 0.030966,-0.0668427 0.030966,-0.104626 0,-0.0551726 -0.0198448,-0.100553 -0.0600544,-0.136141 -0.0399496,-0.0356167 -0.103268,-0.0532661 -0.189956,-0.0532661l-0.369281 0 0 0.386151zm1.581 0.379622l0.1481 0.0181983c-0.0233978,0.0866875 -0.0665827,0.153819 -0.129641,0.201626 -0.0633185,0.0475756 -0.144027,0.0714933 -0.242124,0.0714933 -0.123633,0 -0.22173,-0.038072 -0.294004,-0.114158 -0.0725621,-0.0760862 -0.108699,-0.182878 -0.108699,-0.320377 0,-0.14238 0.0366855,-0.252725 0.109768,-0.331238 0.0733709,-0.0785416 0.168204,-0.117942 0.285049,-0.117942 0.113061,0 0.205439,0.038592 0.276932,0.115487 0.0717244,0.076895 0.107601,0.185334 0.107601,0.324739 0,0.00869474 -0.000288862,0.0214624 -0.000808813,0.0383031l-0.630441 0c0.00514174,0.0929269 0.0315148,0.164131 0.0788015,0.213325 0.0472867,0.0494532 0.105983,0.0741797 0.176639,0.0741797 0.0524284,0 0.0972598,-0.0138654 0.134494,-0.0415672 0.0372343,-0.0274419 0.0665827,-0.0714644 0.088334,-0.132068zm-0.470412 -0.231812l0.472029 0c-0.00623942,-0.0709156 -0.0244666,-0.124442 -0.054075,-0.15977 -0.0456691,-0.0551726 -0.104886,-0.0828745 -0.177448,-0.0828745 -0.0657739,0 -0.121206,0.0220113 -0.166038,0.0660338 -0.0448314,0.0440226 -0.069558,0.102979 -0.0744686,0.17661zm0.741306 0.251657l0.1416 -0.0223001c0.00785704,0.0567903 0.0301572,0.100264 0.0665538,0.13071 0.0361655,0.0301572 0.0869763,0.0453802 0.152461,0.0453802 0.065745,0 0.114678,-0.0135765 0.146453,-0.0402096 0.0318037,-0.026893 0.0478355,-0.0584368 0.0478355,-0.0942845 0,-0.0326125 -0.0141253,-0.0578879 -0.042376,-0.0766351 -0.0195848,-0.0127966 -0.0684892,-0.0288284 -0.146482,-0.0483844 -0.104886,-0.0266331 -0.177997,-0.0494532 -0.218466,-0.0690091 -0.0404984,-0.019296 -0.0714933,-0.0462179 -0.0924069,-0.0804481 -0.0209136,-0.0342301 -0.0315148,-0.0720133 -0.0315148,-0.113321 0,-0.0377543 0.00869474,-0.0725621 0.0260842,-0.104626 0.0171295,-0.0323237 0.0407584,-0.0589567 0.0703668,-0.0801592 0.0223001,-0.0162918 0.0527173,-0.0304172 0.0910493,-0.0418272 0.038592,-0.0114389 0.0798992,-0.0171295 0.123922,-0.0171295 0.0662938,0 0.124442,0.00979242 0.174733,0.0287995 0.050262,0.019036 0.0872074,0.0448314 0.111125,0.0774439 0.0239178,0.0328725 0.0402096,0.0763751 0.0491932,0.13097l-0.139954 0.019296c-0.00652828,-0.0434737 -0.0249866,-0.0774439 -0.0554326,-0.101882 -0.030446,-0.0244666 -0.0736309,-0.0366855 -0.129352,-0.0366855 -0.065745,0 -0.112772,0.0108612 -0.140762,0.0326125 -0.0282507,0.0217224 -0.042376,0.0472578 -0.042376,0.0763462 0,0.0187471 0.00595056,0.0353278 0.0176495,0.050262 0.0116989,0.0155119 0.0298972,0.0279907 0.0548838,0.038332 0.0144142,0.00517063 0.0565303,0.0173895 0.126637,0.0363966 0.101362,0.0271819 0.172017,0.0491932 0.211967,0.0665827 0.0402096,0.0171295 0.0717244,0.0424049 0.0945734,0.0752774 0.0228201,0.0328725 0.0342301,0.0736309 0.0342301,0.122564 0,0.0478067 -0.0141253,0.0926669 -0.0418561,0.135043 -0.0279907,0.0421161 -0.0682003,0.0747286 -0.120658,0.0978375 -0.0524284,0.0230801 -0.111963,0.034519 -0.178257,0.034519 -0.110056,0 -0.19374,-0.022849 -0.251368,-0.0684892 -0.0575991,-0.0456691 -0.0942845,-0.113321 -0.110056,-0.202983zm1.42666 0.252436l0 -0.124182c-0.0660338,0.0956422 -0.155437,0.143218 -0.268497,0.143218 -0.0497131,0 -0.096451,-0.00953244 -0.139665,-0.0285396 -0.0432137,-0.019036 -0.0752774,-0.0432137 -0.096191,-0.0720133 -0.0212025,-0.0290884 -0.0358767,-0.0644162 -0.0443114,-0.106243 -0.00569058,-0.0282796 -0.00869474,-0.072851 -0.00869474,-0.133974l0 -0.523649 0.143218 0 0 0.468736c0,0.0750174 0.00300416,0.125279 0.00869474,0.151364 0.00924358,0.0377831 0.0282507,0.0671315 0.0573391,0.0888828 0.0293484,0.0214624 0.065485,0.0320637 0.108439,0.0320637 0.0429249,0 0.0831345,-0.0108901 0.120918,-0.0329014 0.0377543,-0.0220113 0.0643873,-0.0521685 0.0798992,-0.0899516 0.015743,-0.0380431 0.0236289,-0.0931869 0.0236289,-0.1652l0 -0.452993 0.143218 0 0 0.845383 -0.127995 0zm0.349436 0l0 -1.16712 0.143218 0 0 1.16712 -0.143218 0zm0.678277 -0.128255l0.0206536 0.126637c-0.0402096,0.00840588 -0.0763462,0.0127677 -0.10815,0.0127677 -0.0521685,0 -0.0924069,-0.00817479 -0.121206,-0.0247266 -0.0285107,-0.0163207 -0.0486444,-0.0380431 -0.0603144,-0.0649651 -0.0116989,-0.0266331 -0.0176784,-0.0831345 -0.0176784,-0.169013l0 -0.486415 -0.105146 0 0 -0.111414 0.105146 0 0 -0.209512 0.142669 -0.0858787 0 0.29539 0.144027 0 0 0.111414 -0.144027 0 0 0.494301c0,0.0410184 0.00245533,0.0671026 0.00733709,0.0788015 0.00517063,0.01167 0.0133165,0.0209136 0.0247266,0.0279907 0.01141,0.00678826 0.0277307,0.0103124 0.0489332,0.0103124 0.0160318,0 0.0369454,-0.00190649 0.0630297,-0.00569058zm0.0828745 -0.124182l0.1416 -0.0223001c0.00785704,0.0567903 0.0301572,0.100264 0.0665538,0.13071 0.0361655,0.0301572 0.0869763,0.0453802 0.152461,0.0453802 0.065745,0 0.114678,-0.0135765 0.146453,-0.0402096 0.0318037,-0.026893 0.0478355,-0.0584368 0.0478355,-0.0942845 0,-0.0326125 -0.0141253,-0.0578879 -0.042376,-0.0766351 -0.0195848,-0.0127966 -0.0684892,-0.0288284 -0.146482,-0.0483844 -0.104886,-0.0266331 -0.177997,-0.0494532 -0.218466,-0.0690091 -0.0404984,-0.019296 -0.0714933,-0.0462179 -0.0924069,-0.0804481 -0.0209136,-0.0342301 -0.0315148,-0.0720133 -0.0315148,-0.113321 0,-0.0377543 0.00869474,-0.0725621 0.0260842,-0.104626 0.0171295,-0.0323237 0.0407584,-0.0589567 0.0703668,-0.0801592 0.0223001,-0.0162918 0.0527173,-0.0304172 0.0910493,-0.0418272 0.038592,-0.0114389 0.0798992,-0.0171295 0.123922,-0.0171295 0.0662938,0 0.124442,0.00979242 0.174733,0.0287995 0.050262,0.019036 0.0872074,0.0448314 0.111125,0.0774439 0.0239178,0.0328725 0.0402096,0.0763751 0.0491932,0.13097l-0.139954 0.019296c-0.00652828,-0.0434737 -0.0249866,-0.0774439 -0.0554326,-0.101882 -0.030446,-0.0244666 -0.0736309,-0.0366855 -0.129352,-0.0366855 -0.065745,0 -0.112772,0.0108612 -0.140762,0.0326125 -0.0282507,0.0217224 -0.042376,0.0472578 -0.042376,0.0763462 0,0.0187471 0.00595056,0.0353278 0.0176495,0.050262 0.0116989,0.0155119 0.0298972,0.0279907 0.0548838,0.038332 0.0144142,0.00517063 0.0565303,0.0173895 0.126637,0.0363966 0.101362,0.0271819 0.172017,0.0491932 0.211967,0.0665827 0.0402096,0.0171295 0.0717244,0.0424049 0.0945734,0.0752774 0.0228201,0.0328725 0.0342301,0.0736309 0.0342301,0.122564 0,0.0478067 -0.0141253,0.0926669 -0.0418561,0.135043 -0.0279907,0.0421161 -0.0682003,0.0747286 -0.120658,0.0978375 -0.0524284,0.0230801 -0.111963,0.034519 -0.178257,0.034519 -0.110056,0 -0.19374,-0.022849 -0.251368,-0.0684892 -0.0575991,-0.0456691 -0.0942845,-0.113321 -0.110056,-0.202983z"/>
  <path class="fil0" d="M36.358 5.627l0.145644 -0.0127677c0.00678826,0.0584079 0.022849,0.106243 0.0480955,0.143738 0.0252754,0.0374943 0.0644162,0.0676804 0.117393,0.0907604 0.0530062,0.023109 0.112772,0.034519 0.179094,0.034519 0.0589567,0 0.110865,-0.00869474 0.155985,-0.0260842 0.0450913,-0.0176784 0.0788015,-0.0415672 0.100813,-0.0720133 0.0220113,-0.030706 0.0331325,-0.0638674 0.0331325,-0.100004 0,-0.0366855 -0.0105723,-0.0684892 -0.0320637,-0.0959311 -0.0211736,-0.0274419 -0.0562414,-0.050262 -0.104886,-0.0687491 -0.0315148,-0.0122189 -0.100553,-0.0312549 -0.207865,-0.0570502 -0.107081,-0.0258243 -0.182359,-0.050002 -0.225283,-0.072851 -0.0557215,-0.0290595 -0.0972887,-0.065485 -0.124731,-0.10867 -0.0271819,-0.0432137 -0.0407584,-0.0915981 -0.0407584,-0.145384 0,-0.0586967 0.0165807,-0.113869 0.050002,-0.164969 0.0334213,-0.0513597 0.0823257,-0.0902116 0.146453,-0.116845 0.0644162,-0.0263442 0.135621,-0.0396607 0.214133,-0.0396607 0.0866875,0 0.162774,0.0138654 0.229096,0.0418272 0.0660338,0.0277307 0.116845,0.068778 0.152432,0.122853 0.0353278,0.054075 0.0546238,0.115487 0.0573391,0.183947l-0.1481 0.0111501c-0.00814591,-0.0736309 -0.035039,-0.129612 -0.080968,-0.167107 -0.045929,-0.0377831 -0.113609,-0.0565303 -0.203272,-0.0565303 -0.0934757,0 -0.161416,0.0171295 -0.204341,0.0513597 -0.0426649,0.0342301 -0.0641274,0.0755374 -0.0641274,0.123633 0,0.0421161 0.0151941,0.0766351 0.0453802,0.103528 0.0298683,0.0271819 0.107341,0.0549127 0.23288,0.0831634 0.125539,0.0285396 0.211678,0.0532661 0.258416,0.0744686 0.0679403,0.0315148 0.118202,0.0711756 0.150555,0.119011 0.0323237,0.0480955 0.0483555,0.103528 0.0483555,0.166038 0,0.0622209 -0.0176495,0.120658 -0.0532661,0.175541 -0.0355878,0.0548838 -0.0866875,0.0975487 -0.153241,0.128255 -0.0665827,0.030446 -0.1416,0.0456691 -0.224735,0.0456691 -0.105723,0 -0.194289,-0.015223 -0.265493,-0.0462179 -0.0714644,-0.030706 -0.127446,-0.076895 -0.168204,-0.138856 -0.0404984,-0.061672 -0.0619609,-0.131779 -0.0638674,-0.209772zm1.11847 0.375001l0 -1.16712 0.143218 0 0 1.16712 -0.143218 0zm0.311971 -0.422836c0,-0.156505 0.0434737,-0.272541 0.13071,-0.347819 0.0725621,-0.0625097 0.161156,-0.0940246 0.265753,-0.0940246 0.116325,0 0.211418,0.0380431 0.285078,0.114389 0.0738909,0.0760862 0.110576,0.181261 0.110576,0.315495 0,0.108988 -0.0162918,0.194577 -0.0489043,0.256798 -0.0326125,0.0625097 -0.0801592,0.110865 -0.14238,0.145384 -0.0625097,0.034519 -0.13045,0.0516485 -0.20437,0.0516485 -0.118202,0 -0.213844,-0.0377831 -0.286955,-0.113869 -0.0730821,-0.0758263 -0.109508,-0.185074 -0.109508,-0.328003zm0.147291 0c0,0.108439 0.0236289,0.189407 0.0709156,0.243222 0.0472867,0.054075 0.106792,0.080968 0.178257,0.080968 0.0712045,0 0.13045,-0.0271819 0.177737,-0.0812569 0.0469978,-0.054075 0.0706556,-0.136689 0.0706556,-0.247555 0,-0.104626 -0.0236578,-0.183976 -0.0712045,-0.237762 -0.0475467,-0.053815 -0.106532,-0.080708 -0.177188,-0.080708 -0.0714644,0 -0.13097,0.026893 -0.178257,0.0804192 -0.0472867,0.053555 -0.0709156,0.134523 -0.0709156,0.242673zm0.969016 0.422836l-0.258705 -0.845383 0.1481 0 0.134523 0.488032 0.050002 0.181521c0.00216646,-0.0092147 0.0168407,-0.0673915 0.0437337,-0.174444l0.134523 -0.495109 0.147291 0 0.126637 0.490228 0.042376 0.161676 0.0483844 -0.163323 0.144835 -0.488581 0.139405 0 -0.264424 0.845383 -0.148619 0 -0.134523 -0.506259 -0.0328725 -0.144287 -0.17092 0.650546 -0.149746 0zm1.02202 -1.00218l0 -0.16494 0.143478 0 0 0.16494 -0.143478 0zm0 1.00218l0 -0.845383 0.143478 0 0 0.845383 -0.143478 0zm0.361684 0l0 -0.845383 0.128804 0 0 0.120109c0.0622497,-0.0929269 0.151912,-0.139405 0.269046,-0.139405 0.0510708,0 0.0978087,0.00924358 0.140474,0.0274419 0.0429538,0.0184872 0.0747286,0.0424049 0.0959311,0.0722733 0.0214624,0.0296372 0.0361366,0.0649651 0.0448314,0.105723 0.00517063,0.0266331 0.00788593,0.0730821 0.00788593,0.139405l0 0.519836 -0.143478 0 0 -0.514405c0,-0.0581479 -0.0054306,-0.10191 -0.0165807,-0.13097 -0.0111501,-0.0288284 -0.030966,-0.0519085 -0.0592456,-0.069038 -0.0285107,-0.0173895 -0.061672,-0.0260842 -0.100004,-0.0260842 -0.0611232,0 -0.113581,0.019556 -0.158152,0.0581479 -0.0442825,0.0388519 -0.0662938,0.112223 -0.0662938,0.220662l0 0.461688 -0.143218 0zm0.880451 0.0701068l0.139405 0.0206536c0.00569058,0.0429249 0.0220113,0.0741797 0.0483555,0.0940246 0.0356167,0.0263442 0.084261,0.0396607 0.145673,0.0396607 0.0665538,0 0.117653,-0.0133165 0.15379,-0.0396607 0.0361366,-0.0266331 0.0603433,-0.0638674 0.073111,-0.111414 0.00759707,-0.0293484 0.0108612,-0.0905004 0.0103124,-0.183976 -0.0624808,0.0736598 -0.140474,0.110605 -0.233978,0.110605 -0.116296,0 -0.206247,-0.0418561 -0.269826,-0.125828 -0.0635785,-0.0836833 -0.0956422,-0.184496 -0.0956422,-0.30163 0,-0.080708 0.0146742,-0.155148 0.0437337,-0.223377 0.0293484,-0.0682003 0.0717533,-0.120918 0.127186,-0.158152 0.0554326,-0.0369454 0.120658,-0.0556926 0.195386,-0.0556926 0.0997151,0 0.18207,0.0404984 0.246746,0.121206l0 -0.10191 0.132328 0 0 0.730705c0,0.131519 -0.0135765,0.224995 -0.0402096,0.279907 -0.0269219,0.0548838 -0.069298,0.0983575 -0.127446,0.130161 -0.0581768,0.0317748 -0.129641,0.0478067 -0.214682,0.0478067 -0.100813,0 -0.182359,-0.0228201 -0.244291,-0.0682003 -0.0622497,-0.0453802 -0.0921181,-0.113581 -0.0899516,-0.20489zm0.118462 -0.507877c0,0.110865 0.0220113,0.191833 0.0663227,0.242673 0.0440226,0.0510708 0.0991663,0.0763462 0.165489,0.0763462 0.065745,0 0.120918,-0.0252754 0.165489,-0.0758263 0.0445714,-0.0508108 0.0668427,-0.130161 0.0668427,-0.238571 0,-0.103528 -0.0228201,-0.181521 -0.0687491,-0.233978 -0.045929,-0.0524573 -0.101362,-0.0788015 -0.166038,-0.0788015 -0.0635785,0 -0.117653,0.0258243 -0.162485,0.0777039 -0.0445714,0.0516485 -0.0668715,0.128544 -0.0668715,0.230454zm1.06766 0.43777l0.448372 -1.16712 0.166327 0 0.47772 1.16712 -0.17609 0 -0.136141 -0.353538 -0.488061 0 -0.127995 0.353538 -0.164131 0zm0.336697 -0.479366l0.395943 0 -0.122015 -0.323092c-0.0369743,-0.0980975 -0.0646762,-0.178806 -0.0826145,-0.242124 -0.014963,0.0750174 -0.0358767,0.149197 -0.0630586,0.223117l-0.128255 0.342099zm1.41251 0.169591l0.140762 0.0184583c-0.015223,0.0970287 -0.0546238,0.173115 -0.118202,0.227999 -0.0633185,0.0548838 -0.141311,0.0823545 -0.233689,0.0823545 -0.115487,0 -0.208703,-0.0377831 -0.27881,-0.113321 -0.0703957,-0.0755663 -0.105723,-0.183976 -0.105723,-0.325287 0,-0.0913093 0.015223,-0.171208 0.0453802,-0.239669 0.030446,-0.0684892 0.0763751,-0.119849 0.138336,-0.154079 0.061672,-0.0342301 0.129064,-0.0513597 0.201626,-0.0513597 0.0918581,0 0.167107,0.0233689 0.225283,0.0698468 0.0584079,0.046449 0.0959022,0.112223 0.112483,0.197813l-0.139405 0.0214624c-0.0133165,-0.0567903 -0.0366855,-0.0994552 -0.0703668,-0.128255 -0.0337102,-0.0285396 -0.0744686,-0.0429249 -0.122304,-0.0429249 -0.0722733,0 -0.13097,0.0257954 -0.176061,0.0777039 -0.0451202,0.0516485 -0.0676804,0.133425 -0.0676804,0.245388 0,0.113581 0.0217513,0.196195 0.065485,0.247815 0.0434737,0.0513597 0.100293,0.0771839 0.1704,0.0771839 0.0562414,0 0.102979,-0.0173895 0.140762,-0.0519085 0.0377543,-0.0344901 0.061672,-0.0874963 0.0717244,-0.159221zm0.576366 0.181521l0.0206536 0.126637c-0.0402096,0.00840588 -0.0763462,0.0127677 -0.10815,0.0127677 -0.0521685,0 -0.0924069,-0.00817479 -0.121206,-0.0247266 -0.0285107,-0.0163207 -0.0486444,-0.0380431 -0.0603144,-0.0649651 -0.0116989,-0.0266331 -0.0176784,-0.0831345 -0.0176784,-0.169013l0 -0.486415 -0.105146 0 0 -0.111414 0.105146 0 0 -0.209512 0.142669 -0.0858787 0 0.29539 0.144027 0 0 0.111414 -0.144027 0 0 0.494301c0,0.0410184 0.00245533,0.0671026 0.00733709,0.0788015 0.00517063,0.01167 0.0133165,0.0209136 0.0247266,0.0279907 0.01141,0.00678826 0.0277307,0.0103124 0.0489332,0.0103124 0.0160318,0 0.0369454,-0.00190649 0.0630297,-0.00569058zm0.140762 -0.873923l0 -0.16494 0.143478 0 0 0.16494 -0.143478 0zm0 1.00218l0 -0.845383 0.143478 0 0 0.845383 -0.143478 0zm0.308158 -0.422836c0,-0.156505 0.0434737,-0.272541 0.13071,-0.347819 0.0725621,-0.0625097 0.161156,-0.0940246 0.265753,-0.0940246 0.116325,0 0.211418,0.0380431 0.285078,0.114389 0.0738909,0.0760862 0.110576,0.181261 0.110576,0.315495 0,0.108988 -0.0162918,0.194577 -0.0489043,0.256798 -0.0326125,0.0625097 -0.0801592,0.110865 -0.14238,0.145384 -0.0625097,0.034519 -0.13045,0.0516485 -0.20437,0.0516485 -0.118202,0 -0.213844,-0.0377831 -0.286955,-0.113869 -0.0730821,-0.0758263 -0.109508,-0.185074 -0.109508,-0.328003zm0.147291 0c0,0.108439 0.0236289,0.189407 0.0709156,0.243222 0.0472867,0.054075 0.106792,0.080968 0.178257,0.080968 0.0712045,0 0.13045,-0.0271819 0.177737,-0.0812569 0.0469978,-0.054075 0.0706556,-0.136689 0.0706556,-0.247555 0,-0.104626 -0.0236578,-0.183976 -0.0712045,-0.237762 -0.0475467,-0.053815 -0.106532,-0.080708 -0.177188,-0.080708 -0.0714644,0 -0.13097,0.026893 -0.178257,0.0804192 -0.0472867,0.053555 -0.0709156,0.134523 -0.0709156,0.242673zm0.813031 0.422836l0 -0.845383 0.128804 0 0 0.120109c0.0622497,-0.0929269 0.151912,-0.139405 0.269046,-0.139405 0.0510708,0 0.0978087,0.00924358 0.140474,0.0274419 0.0429538,0.0184872 0.0747286,0.0424049 0.0959311,0.0722733 0.0214624,0.0296372 0.0361366,0.0649651 0.0448314,0.105723 0.00517063,0.0266331 0.00788593,0.0730821 0.00788593,0.139405l0 0.519836 -0.143478 0 0 -0.514405c0,-0.0581479 -0.0054306,-0.10191 -0.0165807,-0.13097 -0.0111501,-0.0288284 -0.030966,-0.0519085 -0.0592456,-0.069038 -0.0285107,-0.0173895 -0.061672,-0.0260842 -0.100004,-0.0260842 -0.0611232,0 -0.113581,0.019556 -0.158152,0.0581479 -0.0442825,0.0388519 -0.0662938,0.112223 -0.0662938,0.220662l0 0.461688 -0.143218 0zm1.85952 0l-0.143189 0 0 -0.913064c-0.034519,0.0329014 -0.0796392,0.0657739 -0.135621,0.0986464 -0.0562414,0.0329014 -0.106503,0.057628 -0.151075,0.0739198l0 -0.138307c0.0801592,-0.0377831 0.150266,-0.0834233 0.21032,-0.136978 0.0597944,-0.0537861 0.102459,-0.105695 0.127446,-0.156245l0.0921181 0 0 1.17203z"/>
  <path class="fil0" d="M53.9171 17.3289l0 -1.02936 -0.384533 0 0 -0.137758 0.925023 0 0 0.137758 -0.386151 0 0 1.02936 -0.154339 0zm0.446465 -0.422836c0,-0.156505 0.0434737,-0.272541 0.13071,-0.347819 0.0725621,-0.0625097 0.161156,-0.0940246 0.265753,-0.0940246 0.116325,0 0.211418,0.0380431 0.285078,0.114389 0.0738909,0.0760862 0.110576,0.181261 0.110576,0.315495 0,0.108988 -0.0162918,0.194577 -0.0489043,0.256798 -0.0326125,0.0625097 -0.0801592,0.110865 -0.14238,0.145384 -0.0625097,0.034519 -0.13045,0.0516485 -0.20437,0.0516485 -0.118202,0 -0.213844,-0.0377831 -0.286955,-0.113869 -0.0730821,-0.0758263 -0.109508,-0.185074 -0.109508,-0.328003zm0.147291 0c0,0.108439 0.0236289,0.189407 0.0709156,0.243222 0.0472867,0.054075 0.106792,0.080968 0.178257,0.080968 0.0712045,0 0.13045,-0.0271819 0.177737,-0.0812569 0.0469978,-0.054075 0.0706556,-0.136689 0.0706556,-0.247555 0,-0.104626 -0.0236578,-0.183976 -0.0712045,-0.237762 -0.0475467,-0.053815 -0.106532,-0.080708 -0.177188,-0.080708 -0.0714644,0 -0.13097,0.026893 -0.178257,0.0804192 -0.0472867,0.053555 -0.0709156,0.134523 -0.0709156,0.242673zm1.12581 0.294581l0.0206536 0.126637c-0.0402096,0.00840588 -0.0763462,0.0127677 -0.10815,0.0127677 -0.0521685,0 -0.0924069,-0.00817479 -0.121206,-0.0247266 -0.0285107,-0.0163207 -0.0486444,-0.0380431 -0.0603144,-0.0649651 -0.0116989,-0.0266331 -0.0176784,-0.0831345 -0.0176784,-0.169013l0 -0.486415 -0.105146 0 0 -0.111414 0.105146 0 0 -0.209512 0.142669 -0.0858787 0 0.29539 0.144027 0 0 0.111414 -0.144027 0 0 0.494301c0,0.0410184 0.00245533,0.0671026 0.00733709,0.0788015 0.00517063,0.01167 0.0133165,0.0209136 0.0247266,0.0279907 0.01141,0.00678826 0.0277307,0.0103124 0.0489332,0.0103124 0.0160318,0 0.0369454,-0.00190649 0.0630297,-0.00569058zm0.691853 0.0239178c-0.0532661,0.0450913 -0.104337,0.076895 -0.15327,0.0956422 -0.0491643,0.0184872 -0.101882,0.0277307 -0.158152,0.0277307 -0.0929269,0 -0.164131,-0.0225601 -0.214133,-0.0679403 -0.0497131,-0.0453802 -0.0747286,-0.103557 -0.0747286,-0.173924 0,-0.0415672 0.00924358,-0.0793504 0.0282796,-0.113581 0.0187471,-0.034259 0.0434737,-0.0617009 0.0739198,-0.0823545 0.030706,-0.0206536 0.0649362,-0.0363966 0.103239,-0.0469978 0.0279907,-0.00733709 0.0703957,-0.0146742 0.127186,-0.0214624 0.115747,-0.0138654 0.201077,-0.0301861 0.255701,-0.0494532 0.000548838,-0.0195848 0.000808813,-0.0320926 0.000808813,-0.0372343 0,-0.0584368 -0.0135765,-0.099744 -0.0407584,-0.123373 -0.0363966,-0.0326125 -0.0910204,-0.0486444 -0.163034,-0.0486444 -0.0673915,0 -0.117134,0.01167 -0.149457,0.0353278 -0.0320637,0.0236289 -0.0557215,0.065485 -0.0712045,0.125539l-0.139954 -0.019296c0.0127966,-0.0597944 0.0337102,-0.10841 0.0627986,-0.145095 0.0290595,-0.0369743 0.0714644,-0.0655139 0.126608,-0.0853298 0.0551726,-0.0198448 0.11904,-0.0298972 0.191862,-0.0298972 0.0722733,0 0.13071,0.00869474 0.175801,0.0255354 0.0451202,0.0171295 0.0782816,0.038332 0.099744,0.0641274 0.0212025,0.0258243 0.0358767,0.0581479 0.0445714,0.0975776 0.00462179,0.0244377 0.00704823,0.0684603 0.00704823,0.132039l0 0.191053c0,0.133425 0.00300416,0.217657 0.00924358,0.252725 0.00597944,0.0353278 0.0182272,0.069298 0.0361366,0.101622l-0.149717 0c-0.0146742,-0.0296083 -0.0244666,-0.0644162 -0.0285396,-0.104337zm-0.0119589 -0.320117c-0.0521685,0.0214624 -0.130161,0.0394008 -0.233949,0.0543349 -0.0589856,0.00843477 -0.100842,0.0179383 -0.125019,0.0285396 -0.0244377,0.0106012 -0.0434737,0.0260842 -0.0565303,0.0467379 -0.0133165,0.0203937 -0.0201048,0.0429249 -0.0201048,0.0679403 0,0.0383031 0.0146742,0.0701068 0.0434737,0.0956422 0.0288284,0.0252754 0.0712045,0.0380431 0.126926,0.0380431 0.0551437,0 0.104337,-0.0119589 0.147262,-0.0361366 0.0429538,-0.0241777 0.0747575,-0.0573391 0.0948623,-0.0991952 0.015483,-0.0323237 0.0230801,-0.0801592 0.0230801,-0.143189l0 -0.0527173zm0.363851 0.424454l0 -1.16712 0.143218 0 0 1.16712 -0.143218 0zm0.78426 -0.375001l0.145644 -0.0127677c0.00678826,0.0584079 0.022849,0.106243 0.0480955,0.143738 0.0252754,0.0374943 0.0644162,0.0676804 0.117393,0.0907604 0.0530062,0.023109 0.112772,0.034519 0.179094,0.034519 0.0589567,0 0.110865,-0.00869474 0.155985,-0.0260842 0.0450913,-0.0176784 0.0788015,-0.0415672 0.100813,-0.0720133 0.0220113,-0.030706 0.0331325,-0.0638674 0.0331325,-0.100004 0,-0.0366855 -0.0105723,-0.0684892 -0.0320637,-0.0959311 -0.0211736,-0.0274419 -0.0562414,-0.050262 -0.104886,-0.0687491 -0.0315148,-0.0122189 -0.100553,-0.0312549 -0.207865,-0.0570502 -0.107081,-0.0258243 -0.182359,-0.050002 -0.225283,-0.072851 -0.0557215,-0.0290595 -0.0972887,-0.065485 -0.124731,-0.10867 -0.0271819,-0.0432137 -0.0407584,-0.0915981 -0.0407584,-0.145384 0,-0.0586967 0.0165807,-0.113869 0.050002,-0.164969 0.0334213,-0.0513597 0.0823257,-0.0902116 0.146453,-0.116845 0.0644162,-0.0263442 0.135621,-0.0396607 0.214133,-0.0396607 0.0866875,0 0.162774,0.0138654 0.229096,0.0418272 0.0660338,0.0277307 0.116845,0.068778 0.152432,0.122853 0.0353278,0.054075 0.0546238,0.115487 0.0573391,0.183947l-0.1481 0.0111501c-0.00814591,-0.0736309 -0.035039,-0.129612 -0.080968,-0.167107 -0.045929,-0.0377831 -0.113609,-0.0565303 -0.203272,-0.0565303 -0.0934757,0 -0.161416,0.0171295 -0.204341,0.0513597 -0.0426649,0.0342301 -0.0641274,0.0755374 -0.0641274,0.123633 0,0.0421161 0.0151941,0.0766351 0.0453802,0.103528 0.0298683,0.0271819 0.107341,0.0549127 0.23288,0.0831634 0.125539,0.0285396 0.211678,0.0532661 0.258416,0.0744686 0.0679403,0.0315148 0.118202,0.0711756 0.150555,0.119011 0.0323237,0.0480955 0.0483555,0.103528 0.0483555,0.166038 0,0.0622209 -0.0176495,0.120658 -0.0532661,0.175541 -0.0355878,0.0548838 -0.0866875,0.0975487 -0.153241,0.128255 -0.0665827,0.030446 -0.1416,0.0456691 -0.224735,0.0456691 -0.105723,0 -0.194289,-0.015223 -0.265493,-0.0462179 -0.0714644,-0.030706 -0.127446,-0.076895 -0.168204,-0.138856 -0.0404984,-0.061672 -0.0619609,-0.131779 -0.0638674,-0.209772zm1.11847 0.375001l0 -1.16712 0.143218 0 0 1.16712 -0.143218 0zm0.311971 -0.422836c0,-0.156505 0.0434737,-0.272541 0.13071,-0.347819 0.0725621,-0.0625097 0.161156,-0.0940246 0.265753,-0.0940246 0.116325,0 0.211418,0.0380431 0.285078,0.114389 0.0738909,0.0760862 0.110576,0.181261 0.110576,0.315495 0,0.108988 -0.0162918,0.194577 -0.0489043,0.256798 -0.0326125,0.0625097 -0.0801592,0.110865 -0.14238,0.145384 -0.0625097,0.034519 -0.13045,0.0516485 -0.20437,0.0516485 -0.118202,0 -0.213844,-0.0377831 -0.286955,-0.113869 -0.0730821,-0.0758263 -0.109508,-0.185074 -0.109508,-0.328003zm0.147291 0c0,0.108439 0.0236289,0.189407 0.0709156,0.243222 0.0472867,0.054075 0.106792,0.080968 0.178257,0.080968 0.0712045,0 0.13045,-0.0271819 0.177737,-0.0812569 0.0469978,-0.054075 0.0706556,-0.136689 0.0706556,-0.247555 0,-0.104626 -0.0236578,-0.183976 -0.0712045,-0.237762 -0.0475467,-0.053815 -0.106532,-0.080708 -0.177188,-0.080708 -0.0714644,0 -0.13097,0.026893 -0.178257,0.0804192 -0.0472867,0.053555 -0.0709156,0.134523 -0.0709156,0.242673zm0.969016 0.422836l-0.258705 -0.845383 0.1481 0 0.134523 0.488032 0.050002 0.181521c0.00216646,-0.0092147 0.0168407,-0.0673915 0.0437337,-0.174444l0.134523 -0.495109 0.147291 0 0.126637 0.490228 0.042376 0.161676 0.0483844 -0.163323 0.144835 -0.488581 0.139405 0 -0.264424 0.845383 -0.148619 0 -0.134523 -0.506259 -0.0328725 -0.144287 -0.17092 0.650546 -0.149746 0zm1.02202 -1.00218l0 -0.16494 0.143478 0 0 0.16494 -0.143478 0zm0 1.00218l0 -0.845383 0.143478 0 0 0.845383 -0.143478 0zm0.361684 0l0 -0.845383 0.128804 0 0 0.120109c0.0622497,-0.0929269 0.151912,-0.139405 0.269046,-0.139405 0.0510708,0 0.0978087,0.00924358 0.140474,0.0274419 0.0429538,0.0184872 0.0747286,0.0424049 0.0959311,0.0722733 0.0214624,0.0296372 0.0361366,0.0649651 0.0448314,0.105723 0.00517063,0.0266331 0.00788593,0.0730821 0.00788593,0.139405l0 0.519836 -0.143478 0 0 -0.514405c0,-0.0581479 -0.0054306,-0.10191 -0.0165807,-0.13097 -0.0111501,-0.0288284 -0.030966,-0.0519085 -0.0592456,-0.069038 -0.0285107,-0.0173895 -0.061672,-0.0260842 -0.100004,-0.0260842 -0.0611232,0 -0.113581,0.019556 -0.158152,0.0581479 -0.0442825,0.0388519 -0.0662938,0.112223 -0.0662938,0.220662l0 0.461688 -0.143218 0zm0.880451 0.0701068l0.139405 0.0206536c0.00569058,0.0429249 0.0220113,0.0741797 0.0483555,0.0940246 0.0356167,0.0263442 0.084261,0.0396607 0.145673,0.0396607 0.0665538,0 0.117653,-0.0133165 0.15379,-0.0396607 0.0361366,-0.0266331 0.0603433,-0.0638674 0.073111,-0.111414 0.00759707,-0.0293484 0.0108612,-0.0905004 0.0103124,-0.183976 -0.0624808,0.0736598 -0.140474,0.110605 -0.233978,0.110605 -0.116296,0 -0.206247,-0.0418561 -0.269826,-0.125828 -0.0635785,-0.0836833 -0.0956422,-0.184496 -0.0956422,-0.30163 0,-0.080708 0.0146742,-0.155148 0.0437337,-0.223377 0.0293484,-0.0682003 0.0717533,-0.120918 0.127186,-0.158152 0.0554326,-0.0369454 0.120658,-0.0556926 0.195386,-0.0556926 0.0997151,0 0.18207,0.0404984 0.246746,0.121206l0 -0.10191 0.132328 0 0 0.730705c0,0.131519 -0.0135765,0.224995 -0.0402096,0.279907 -0.0269219,0.0548838 -0.069298,0.0983575 -0.127446,0.130161 -0.0581768,0.0317748 -0.129641,0.0478067 -0.214682,0.0478067 -0.100813,0 -0.182359,-0.0228201 -0.244291,-0.0682003 -0.0622497,-0.0453802 -0.0921181,-0.113581 -0.0899516,-0.20489zm0.118462 -0.507877c0,0.110865 0.0220113,0.191833 0.0663227,0.242673 0.0440226,0.0510708 0.0991663,0.0763462 0.165489,0.0763462 0.065745,0 0.120918,-0.0252754 0.165489,-0.0758263 0.0445714,-0.0508108 0.0668427,-0.130161 0.0668427,-0.238571 0,-0.103528 -0.0228201,-0.181521 -0.0687491,-0.233978 -0.045929,-0.0524573 -0.101362,-0.0788015 -0.166038,-0.0788015 -0.0635785,0 -0.117653,0.0258243 -0.162485,0.0777039 -0.0445714,0.0516485 -0.0668715,0.128544 -0.0668715,0.230454zm-6.36458 2.25928l0.448372 -1.16712 0.166327 0 0.47772 1.16712 -0.17609 0 -0.136141 -0.353538 -0.488061 0 -0.127995 0.353538 -0.164131 0zm0.336697 -0.479366l0.395943 0 -0.122015 -0.323092c-0.0369743,-0.0980975 -0.0646762,-0.178806 -0.0826145,-0.242124 -0.014963,0.0750174 -0.0358767,0.149197 -0.0630586,0.223117l-0.128255 0.342099zm1.41251 0.169591l0.140762 0.0184583c-0.015223,0.0970287 -0.0546238,0.173115 -0.118202,0.227999 -0.0633185,0.0548838 -0.141311,0.0823545 -0.233689,0.0823545 -0.115487,0 -0.208703,-0.0377831 -0.27881,-0.113321 -0.0703957,-0.0755663 -0.105723,-0.183976 -0.105723,-0.325287 0,-0.0913093 0.015223,-0.171208 0.0453802,-0.239669 0.030446,-0.0684892 0.0763751,-0.119849 0.138336,-0.154079 0.061672,-0.0342301 0.129064,-0.0513597 0.201626,-0.0513597 0.0918581,0 0.167107,0.0233689 0.225283,0.0698468 0.0584079,0.046449 0.0959022,0.112223 0.112483,0.197813l-0.139405 0.0214624c-0.0133165,-0.0567903 -0.0366855,-0.0994552 -0.0703668,-0.128255 -0.0337102,-0.0285396 -0.0744686,-0.0429249 -0.122304,-0.0429249 -0.0722733,0 -0.13097,0.0257954 -0.176061,0.0777039 -0.0451202,0.0516485 -0.0676804,0.133425 -0.0676804,0.245388 0,0.113581 0.0217513,0.196195 0.065485,0.247815 0.0434737,0.0513597 0.100293,0.0771839 0.1704,0.0771839 0.0562414,0 0.102979,-0.0173895 0.140762,-0.0519085 0.0377543,-0.0344901 0.061672,-0.0874963 0.0717244,-0.159221zm0.576366 0.181521l0.0206536 0.126637c-0.0402096,0.00840588 -0.0763462,0.0127677 -0.10815,0.0127677 -0.0521685,0 -0.0924069,-0.00817479 -0.121206,-0.0247266 -0.0285107,-0.0163207 -0.0486444,-0.0380431 -0.0603144,-0.0649651 -0.0116989,-0.0266331 -0.0176784,-0.0831345 -0.0176784,-0.169013l0 -0.486415 -0.105146 0 0 -0.111414 0.105146 0 0 -0.209512 0.142669 -0.0858787 0 0.29539 0.144027 0 0 0.111414 -0.144027 0 0 0.494301c0,0.0410184 0.00245533,0.0671026 0.00733709,0.0788015 0.00517063,0.01167 0.0133165,0.0209136 0.0247266,0.0279907 0.01141,0.00678826 0.0277307,0.0103124 0.0489332,0.0103124 0.0160318,0 0.0369454,-0.00190649 0.0630297,-0.00569058zm0.140762 -0.873923l0 -0.16494 0.143478 0 0 0.16494 -0.143478 0zm0 1.00218l0 -0.845383 0.143478 0 0 0.845383 -0.143478 0zm0.308158 -0.422836c0,-0.156505 0.0434737,-0.272541 0.13071,-0.347819 0.0725621,-0.0625097 0.161156,-0.0940246 0.265753,-0.0940246 0.116325,0 0.211418,0.0380431 0.285078,0.114389 0.0738909,0.0760862 0.110576,0.181261 0.110576,0.315495 0,0.108988 -0.0162918,0.194577 -0.0489043,0.256798 -0.0326125,0.0625097 -0.0801592,0.110865 -0.14238,0.145384 -0.0625097,0.034519 -0.13045,0.0516485 -0.20437,0.0516485 -0.118202,0 -0.213844,-0.0377831 -0.286955,-0.113869 -0.0730821,-0.0758263 -0.109508,-0.185074 -0.109508,-0.328003zm0.147291 0c0,0.108439 0.0236289,0.189407 0.0709156,0.243222 0.0472867,0.054075 0.106792,0.080968 0.178257,0.080968 0.0712045,0 0.13045,-0.0271819 0.177737,-0.0812569 0.0469978,-0.054075 0.0706556,-0.136689 0.0706556,-0.247555 0,-0.104626 -0.0236578,-0.183976 -0.0712045,-0.237762 -0.0475467,-0.053815 -0.106532,-0.080708 -0.177188,-0.080708 -0.0714644,0 -0.13097,0.026893 -0.178257,0.0804192 -0.0472867,0.053555 -0.0709156,0.134523 -0.0709156,0.242673zm0.813031 0.422836l0 -0.845383 0.128804 0 0 0.120109c0.0622497,-0.0929269 0.151912,-0.139405 0.269046,-0.139405 0.0510708,0 0.0978087,0.00924358 0.140474,0.0274419 0.0429538,0.0184872 0.0747286,0.0424049 0.0959311,0.0722733 0.0214624,0.0296372 0.0361366,0.0649651 0.0448314,0.105723 0.00517063,0.0266331 0.00788593,0.0730821 0.00788593,0.139405l0 0.519836 -0.143478 0 0 -0.514405c0,-0.0581479 -0.0054306,-0.10191 -0.0165807,-0.13097 -0.0111501,-0.0288284 -0.030966,-0.0519085 -0.0592456,-0.069038 -0.0285107,-0.0173895 -0.061672,-0.0260842 -0.100004,-0.0260842 -0.0611232,0 -0.113581,0.019556 -0.158152,0.0581479 -0.0442825,0.0388519 -0.0662938,0.112223 -0.0662938,0.220662l0 0.461688 -0.143218 0z"/>
  <path class="fil0" d="M36.2511 29.7782l0.145644 -0.0127677c0.00678826,0.0584079 0.022849,0.106243 0.0480955,0.143738 0.0252754,0.0374943 0.0644162,0.0676804 0.117393,0.0907604 0.0530062,0.023109 0.112772,0.034519 0.179094,0.034519 0.0589567,0 0.110865,-0.00869474 0.155985,-0.0260842 0.0450913,-0.0176784 0.0788015,-0.0415672 0.100813,-0.0720133 0.0220113,-0.030706 0.0331325,-0.0638674 0.0331325,-0.100004 0,-0.0366855 -0.0105723,-0.0684892 -0.0320637,-0.0959311 -0.0211736,-0.0274419 -0.0562414,-0.050262 -0.104886,-0.0687491 -0.0315148,-0.0122189 -0.100553,-0.0312549 -0.207865,-0.0570502 -0.107081,-0.0258243 -0.182359,-0.050002 -0.225283,-0.072851 -0.0557215,-0.0290595 -0.0972887,-0.065485 -0.124731,-0.10867 -0.0271819,-0.0432137 -0.0407584,-0.0915981 -0.0407584,-0.145384 0,-0.0586967 0.0165807,-0.113869 0.050002,-0.164969 0.0334213,-0.0513597 0.0823257,-0.0902116 0.146453,-0.116845 0.0644162,-0.0263442 0.135621,-0.0396607 0.214133,-0.0396607 0.0866875,0 0.162774,0.0138654 0.229096,0.0418272 0.0660338,0.0277307 0.116845,0.068778 0.152432,0.122853 0.0353278,0.054075 0.0546238,0.115487 0.0573391,0.183947l-0.1481 0.0111501c-0.00814591,-0.0736309 -0.035039,-0.129612 -0.080968,-0.167107 -0.045929,-0.0377831 -0.113609,-0.0565303 -0.203272,-0.0565303 -0.0934757,0 -0.161416,0.0171295 -0.204341,0.0513597 -0.0426649,0.0342301 -0.0641274,0.0755374 -0.0641274,0.123633 0,0.0421161 0.0151941,0.0766351 0.0453802,0.103528 0.0298683,0.0271819 0.107341,0.0549127 0.23288,0.0831634 0.125539,0.0285396 0.211678,0.0532661 0.258416,0.0744686 0.0679403,0.0315148 0.118202,0.0711756 0.150555,0.119011 0.0323237,0.0480955 0.0483555,0.103528 0.0483555,0.166038 0,0.0622209 -0.0176495,0.120658 -0.0532661,0.175541 -0.0355878,0.0548838 -0.0866875,0.0975487 -0.153241,0.128255 -0.0665827,0.030446 -0.1416,0.0456691 -0.224735,0.0456691 -0.105723,0 -0.194289,-0.015223 -0.265493,-0.0462179 -0.0714644,-0.030706 -0.127446,-0.076895 -0.168204,-0.138856 -0.0404984,-0.061672 -0.0619609,-0.131779 -0.0638674,-0.209772zm1.11847 0.375001l0 -1.16712 0.143218 0 0 1.16712 -0.143218 0zm0.311971 -0.422836c0,-0.156505 0.0434737,-0.272541 0.13071,-0.347819 0.0725621,-0.0625097 0.161156,-0.0940246 0.265753,-0.0940246 0.116325,0 0.211418,0.0380431 0.285078,0.114389 0.0738909,0.0760862 0.110576,0.181261 0.110576,0.315495 0,0.108988 -0.0162918,0.194577 -0.0489043,0.256798 -0.0326125,0.0625097 -0.0801592,0.110865 -0.14238,0.145384 -0.0625097,0.034519 -0.13045,0.0516485 -0.20437,0.0516485 -0.118202,0 -0.213844,-0.0377831 -0.286955,-0.113869 -0.0730821,-0.0758263 -0.109508,-0.185074 -0.109508,-0.328003zm0.147291 0c0,0.108439 0.0236289,0.189407 0.0709156,0.243222 0.0472867,0.054075 0.106792,0.080968 0.178257,0.080968 0.0712045,0 0.13045,-0.0271819 0.177737,-0.0812569 0.0469978,-0.054075 0.0706556,-0.136689 0.0706556,-0.247555 0,-0.104626 -0.0236578,-0.183976 -0.0712045,-0.237762 -0.0475467,-0.053815 -0.106532,-0.080708 -0.177188,-0.080708 -0.0714644,0 -0.13097,0.026893 -0.178257,0.0804192 -0.0472867,0.053555 -0.0709156,0.134523 -0.0709156,0.242673zm0.969016 0.422836l-0.258705 -0.845383 0.1481 0 0.134523 0.488032 0.050002 0.181521c0.00216646,-0.0092147 0.0168407,-0.0673915 0.0437337,-0.174444l0.134523 -0.495109 0.147291 0 0.126637 0.490228 0.042376 0.161676 0.0483844 -0.163323 0.144835 -0.488581 0.139405 0 -0.264424 0.845383 -0.148619 0 -0.134523 -0.506259 -0.0328725 -0.144287 -0.17092 0.650546 -0.149746 0zm1.02202 -1.00218l0 -0.16494 0.143478 0 0 0.16494 -0.143478 0zm0 1.00218l0 -0.845383 0.143478 0 0 0.845383 -0.143478 0zm0.361684 0l0 -0.845383 0.128804 0 0 0.120109c0.0622497,-0.0929269 0.151912,-0.139405 0.269046,-0.139405 0.0510708,0 0.0978087,0.00924358 0.140474,0.0274419 0.0429538,0.0184872 0.0747286,0.0424049 0.0959311,0.0722733 0.0214624,0.0296372 0.0361366,0.0649651 0.0448314,0.105723 0.00517063,0.0266331 0.00788593,0.0730821 0.00788593,0.139405l0 0.519836 -0.143478 0 0 -0.514405c0,-0.0581479 -0.0054306,-0.10191 -0.0165807,-0.13097 -0.0111501,-0.0288284 -0.030966,-0.0519085 -0.0592456,-0.069038 -0.0285107,-0.0173895 -0.061672,-0.0260842 -0.100004,-0.0260842 -0.0611232,0 -0.113581,0.019556 -0.158152,0.0581479 -0.0442825,0.0388519 -0.0662938,0.112223 -0.0662938,0.220662l0 0.461688 -0.143218 0zm0.880451 0.0701068l0.139405 0.0206536c0.00569058,0.0429249 0.0220113,0.0741797 0.0483555,0.0940246 0.0356167,0.0263442 0.084261,0.0396607 0.145673,0.0396607 0.0665538,0 0.117653,-0.0133165 0.15379,-0.0396607 0.0361366,-0.0266331 0.0603433,-0.0638674 0.073111,-0.111414 0.00759707,-0.0293484 0.0108612,-0.0905004 0.0103124,-0.183976 -0.0624808,0.0736598 -0.140474,0.110605 -0.233978,0.110605 -0.116296,0 -0.206247,-0.0418561 -0.269826,-0.125828 -0.0635785,-0.0836833 -0.0956422,-0.184496 -0.0956422,-0.30163 0,-0.080708 0.0146742,-0.155148 0.0437337,-0.223377 0.0293484,-0.0682003 0.0717533,-0.120918 0.127186,-0.158152 0.0554326,-0.0369454 0.120658,-0.0556926 0.195386,-0.0556926 0.0997151,0 0.18207,0.0404984 0.246746,0.121206l0 -0.10191 0.132328 0 0 0.730705c0,0.131519 -0.0135765,0.224995 -0.0402096,0.279907 -0.0269219,0.0548838 -0.069298,0.0983575 -0.127446,0.130161 -0.0581768,0.0317748 -0.129641,0.0478067 -0.214682,0.0478067 -0.100813,0 -0.182359,-0.0228201 -0.244291,-0.0682003 -0.0622497,-0.0453802 -0.0921181,-0.113581 -0.0899516,-0.20489zm0.118462 -0.507877c0,0.110865 0.0220113,0.191833 0.0663227,0.242673 0.0440226,0.0510708 0.0991663,0.0763462 0.165489,0.0763462 0.065745,0 0.120918,-0.0252754 0.165489,-0.0758263 0.0445714,-0.0508108 0.0668427,-0.130161 0.0668427,-0.238571 0,-0.103528 -0.0228201,-0.181521 -0.0687491,-0.233978 -0.045929,-0.0524573 -0.101362,-0.0788015 -0.166038,-0.0788015 -0.0635785,0 -0.117653,0.0258243 -0.162485,0.0777039 -0.0445714,0.0516485 -0.0668715,0.128544 -0.0668715,0.230454zm1.06766 0.43777l0.448372 -1.16712 0.166327 0 0.47772 1.16712 -0.17609 0 -0.136141 -0.353538 -0.488061 0 -0.127995 0.353538 -0.164131 0zm0.336697 -0.479366l0.395943 0 -0.122015 -0.323092c-0.0369743,-0.0980975 -0.0646762,-0.178806 -0.0826145,-0.242124 -0.014963,0.0750174 -0.0358767,0.149197 -0.0630586,0.223117l-0.128255 0.342099zm1.41251 0.169591l0.140762 0.0184583c-0.015223,0.0970287 -0.0546238,0.173115 -0.118202,0.227999 -0.0633185,0.0548838 -0.141311,0.0823545 -0.233689,0.0823545 -0.115487,0 -0.208703,-0.0377831 -0.27881,-0.113321 -0.0703957,-0.0755663 -0.105723,-0.183976 -0.105723,-0.325287 0,-0.0913093 0.015223,-0.171208 0.0453802,-0.239669 0.030446,-0.0684892 0.0763751,-0.119849 0.138336,-0.154079 0.061672,-0.0342301 0.129064,-0.0513597 0.201626,-0.0513597 0.0918581,0 0.167107,0.0233689 0.225283,0.0698468 0.0584079,0.046449 0.0959022,0.112223 0.112483,0.197813l-0.139405 0.0214624c-0.0133165,-0.0567903 -0.0366855,-0.0994552 -0.0703668,-0.128255 -0.0337102,-0.0285396 -0.0744686,-0.0429249 -0.122304,-0.0429249 -0.0722733,0 -0.13097,0.0257954 -0.176061,0.0777039 -0.0451202,0.0516485 -0.0676804,0.133425 -0.0676804,0.245388 0,0.113581 0.0217513,0.196195 0.065485,0.247815 0.0434737,0.0513597 0.100293,0.0771839 0.1704,0.0771839 0.0562414,0 0.102979,-0.0173895 0.140762,-0.0519085 0.0377543,-0.0344901 0.061672,-0.0874963 0.0717244,-0.159221zm0.576366 0.181521l0.0206536 0.126637c-0.0402096,0.00840588 -0.0763462,0.0127677 -0.10815,0.0127677 -0.0521685,0 -0.0924069,-0.00817479 -0.121206,-0.0247266 -0.0285107,-0.0163207 -0.0486444,-0.0380431 -0.0603144,-0.0649651 -0.0116989,-0.0266331 -0.0176784,-0.0831345 -0.0176784,-0.169013l0 -0.486415 -0.105146 0 0 -0.111414 0.105146 0 0 -0.209512 0.142669 -0.0858787 0 0.29539 0.144027 0 0 0.111414 -0.144027 0 0 0.494301c0,0.0410184 0.00245533,0.0671026 0.00733709,0.0788015 0.00517063,0.01167 0.0133165,0.0209136 0.0247266,0.0279907 0.01141,0.00678826 0.0277307,0.0103124 0.0489332,0.0103124 0.0160318,0 0.0369454,-0.00190649 0.0630297,-0.00569058zm0.140762 -0.873923l0 -0.16494 0.143478 0 0 0.16494 -0.143478 0zm0 1.00218l0 -0.845383 0.143478 0 0 0.845383 -0.143478 0zm0.308158 -0.422836c0,-0.156505 0.0434737,-0.272541 0.13071,-0.347819 0.0725621,-0.0625097 0.161156,-0.0940246 0.265753,-0.0940246 0.116325,0 0.211418,0.0380431 0.285078,0.114389 0.0738909,0.0760862 0.110576,0.181261 0.110576,0.315495 0,0.108988 -0.0162918,0.194577 -0.0489043,0.256798 -0.0326125,0.0625097 -0.0801592,0.110865 -0.14238,0.145384 -0.0625097,0.034519 -0.13045,0.0516485 -0.20437,0.0516485 -0.118202,0 -0.213844,-0.0377831 -0.286955,-0.113869 -0.0730821,-0.0758263 -0.109508,-0.185074 -0.109508,-0.328003zm0.147291 0c0,0.108439 0.0236289,0.189407 0.0709156,0.243222 0.0472867,0.054075 0.106792,0.080968 0.178257,0.080968 0.0712045,0 0.13045,-0.0271819 0.177737,-0.0812569 0.0469978,-0.054075 0.0706556,-0.136689 0.0706556,-0.247555 0,-0.104626 -0.0236578,-0.183976 -0.0712045,-0.237762 -0.0475467,-0.053815 -0.106532,-0.080708 -0.177188,-0.080708 -0.0714644,0 -0.13097,0.026893 -0.178257,0.0804192 -0.0472867,0.053555 -0.0709156,0.134523 -0.0709156,0.242673zm0.813031 0.422836l0 -0.845383 0.128804 0 0 0.120109c0.0622497,-0.0929269 0.151912,-0.139405 0.269046,-0.139405 0.0510708,0 0.0978087,0.00924358 0.140474,0.0274419 0.0429538,0.0184872 0.0747286,0.0424049 0.0959311,0.0722733 0.0214624,0.0296372 0.0361366,0.0649651 0.0448314,0.105723 0.00517063,0.0266331 0.00788593,0.0730821 0.00788593,0.139405l0 0.519836 -0.143478 0 0 -0.514405c0,-0.0581479 -0.0054306,-0.10191 -0.0165807,-0.13097 -0.0111501,-0.0288284 -0.030966,-0.0519085 -0.0592456,-0.069038 -0.0285107,-0.0173895 -0.061672,-0.0260842 -0.100004,-0.0260842 -0.0611232,0 -0.113581,0.019556 -0.158152,0.0581479 -0.0442825,0.0388519 -0.0662938,0.112223 -0.0662938,0.220662l0 0.461688 -0.143218 0zm2.07313 -0.137787l0 0.137787 -0.771492 0c-0.00106879,-0.034519 0.00436182,-0.0676515 0.0165807,-0.0994552 0.019556,-0.0527173 0.0510997,-0.104366 0.0942845,-0.155437 0.0435026,-0.0508108 0.105983,-0.109796 0.1875,-0.176639 0.126926,-0.104077 0.212776,-0.186403 0.257347,-0.247295 0.0445714,-0.0605743 0.0668427,-0.118202 0.0668427,-0.172277 0,-0.0567903 -0.0203648,-0.104626 -0.0608632,-0.143738 -0.0407584,-0.0388519 -0.0937357,-0.0584368 -0.158961,-0.0584368 -0.069038,0 -0.124182,0.0206536 -0.165489,0.0622209 -0.0415961,0.0413073 -0.0625097,0.0986464 -0.0630586,0.171757l-0.147291 -0.014963c0.0100813,-0.110028 0.0481244,-0.19374 0.113869,-0.251339 0.0657739,-0.057628 0.154339,-0.0864275 0.265233,-0.0864275 0.111963,0 0.200528,0.0312549 0.265753,0.0932157 0.065485,0.0622209 0.0980975,0.139116 0.0980975,0.230974 0,0.0467379 -0.00950356,0.0926669 -0.0287995,0.137787 -0.019036,0.0450913 -0.0508108,0.0926669 -0.0951222,0.14238 -0.0442825,0.050002 -0.117913,0.118491 -0.220922,0.205439 -0.0858787,0.0722733 -0.141022,0.121206 -0.165489,0.147002 -0.0244666,0.0255643 -0.0445714,0.0513597 -0.0606032,0.0774439l0.572582 0z"/>
  <g>
   <path class="fil1" d="M35.8974 6.48068l0.0168118 0.0552882 -0.517438 0.164449 -0.50392 0.174733 -0.490372 0.185045 -0.476882 0.1953 -0.463335 0.205612 -0.449845 0.215867 -0.436326 0.226121 -0.422807 0.236462 -0.409317 0.246717 -0.395799 0.256943 -0.382309 0.267255 -0.368819 0.277539 -0.3553 0.287822 -0.34181 0.298048 -0.32832 0.30836 -0.314888 0.318615 -0.301341 0.328898 -0.287909 0.339182 -0.274448 0.349494 -0.260929 0.359778 -0.247497 0.370032 -0.234065 0.380373 -0.220575 0.390657 -0.207114 0.40094 -0.193653 0.411311 -0.180221 0.421594 -0.166731 0.431906 -0.15327 0.442219 -0.139809 0.45256 -0.126348 0.462901 -0.112887 0.473243 -0.0994263 0.483526 -0.0567325 -0.0107457 0.0997729 -0.485317 0.113292 -0.475033 0.126868 -0.464692 0.140387 -0.454409 0.153906 -0.444125 0.167482 -0.433813 0.18103 -0.4235 0.19452 -0.413159 0.208096 -0.402847 0.221673 -0.392563 0.235163 -0.382222 0.24871 -0.371881 0.262258 -0.361511 0.275776 -0.351227 0.289353 -0.340857 0.302843 -0.330516 0.31639 -0.320175 0.32988 -0.309804 0.343428 -0.299492 0.356918 -0.289093 0.370437 -0.278752 0.383926 -0.268411 0.397474 -0.25804 0.410935 -0.247699 0.424425 -0.237329 0.437944 -0.226988 0.451405 -0.216618 0.464894 -0.206305 0.478384 -0.195935 0.491874 -0.185565 0.505364 -0.175253 0.518825 -0.164911zm0.354145 -0.077415l-0.598349 0.50392 0.00332191 -0.0211447 0.00274419 -0.0209425 0.00216646 -0.0207981 0.00161763 -0.0206247 0.00101102 -0.0204225 0.000433293 -0.0202781 -0.000115545 -0.0200759 -0.000722155 -0.0199315 -0.00127099 -0.0197293 -0.00184872 -0.0195848 -0.00242644 -0.0193826 -0.00303305 -0.0192093 -0.00358189 -0.019036 -0.00415961 -0.0188627 -0.00473734 -0.0186894 -0.00531506 -0.0185161 -0.0058639 -0.0183427 -0.00647051 -0.0181694 -0.00704823 -0.0179961 -0.00762596 -0.0178228 -0.00817479 -0.0176206 -0.0087814 -0.0174761 -0.00933024 -0.0172739 -0.00993685 -0.0171295 -0.0104857 -0.0169273 -0.0110634 -0.0167829 -0.0116411 -0.0165807 -0.0122477 -0.0164074 -0.0127966 -0.0162629 -0.0133743 -0.0160607 -0.013952 -0.0158874 -0.0145009 -0.0157141 0 0 0.777559 0.0857631z"/>
  </g>
  <g>
   <path class="fil1" d="M35.5467 28.6565l-0.0191804 0.0544794 -0.489332 -0.178546 -0.476593 -0.186894 -0.463855 -0.195155 -0.451116 -0.203503 -0.438377 -0.211794 -0.425609 -0.220113 -0.412899 -0.228432 -0.400132 -0.236751 -0.387364 -0.24507 -0.374625 -0.253419 -0.361886 -0.26168 -0.349119 -0.270057 -0.336322 -0.278347 -0.323612 -0.286695 -0.310844 -0.295015 -0.298048 -0.303305 -0.28528 -0.311653 -0.272483 -0.319943 -0.259716 -0.328292 -0.246948 -0.336582 -0.234123 -0.34493 -0.221384 -0.35322 -0.208558 -0.361482 -0.195791 -0.369801 -0.182965 -0.37812 -0.170197 -0.386382 -0.157372 -0.394701 -0.144604 -0.402962 -0.131779 -0.411224 -0.119011 -0.419514 -0.106215 -0.427805 -0.093418 -0.436066 0.0566747 -0.0112078 0.0930135 0.434275 0.105752 0.425956 0.118491 0.417665 0.131201 0.409375 0.143911 0.401056 0.156621 0.392794 0.169389 0.384533 0.182041 0.376214 0.194808 0.367952 0.207518 0.359691 0.220228 0.351429 0.232967 0.343139 0.245677 0.334907 0.258445 0.326616 0.271155 0.318384 0.283894 0.310151 0.296603 0.301861 0.3094 0.293628 0.32211 0.285367 0.334878 0.277134 0.347616 0.268902 0.360384 0.26064 0.373123 0.252379 0.38592 0.244146 0.398687 0.235885 0.411455 0.227623 0.424165 0.21942 0.43699 0.2111 0.449729 0.202868 0.462526 0.194635 0.475322 0.186374 0.488061 0.178083zm0.331267 0.147146l-0.780563 0.0520529 0.0151941 -0.0150786 0.0146453 -0.0152519 0.0140387 -0.015483 0.0134899 -0.0156852 0.0129121 -0.0158585 0.0123633 -0.0160607 0.0117856 -0.0162918 0.0112078 -0.0164651 0.010659 -0.0166673 0.0100813 -0.0168695 0.00953244 -0.0170717 0.00892583 -0.0172739 0.008377 -0.0174473 0.00782816 -0.0176784 0.00725043 -0.0178806 0.00667271 -0.0180539 0.00609499 -0.018285 0.00554615 -0.0184583 0.00496843 -0.0186605 0.00441959 -0.0188627 0.00381298 -0.0190649 0.00329303 -0.0192671 0.00268642 -0.0194693 0.00213758 -0.0196715 0.00155985 -0.0198737 0.00101102 -0.0200759 0.000433293 -0.0202492 -0.000144431 -0.0204803 -0.000693269 -0.0206536 -0.00127099 -0.0208558 -0.00184872 -0.0210869 -0.00242644 -0.0212602 0 0 0.57602 0.52934z"/>
  </g>
  <g>
   <path class="fil1" d="M57.9887 19.6772l0.0554615 0.016234 -0.127821 0.412726 -0.139231 0.404522 -0.150555 0.396376 -0.161965 0.388202 -0.173346 0.380027 -0.184727 0.371852 -0.196108 0.363648 -0.20749 0.355502 -0.218871 0.347299 -0.230223 0.339095 -0.241633 0.330891 -0.252985 0.322688 -0.264366 0.314513 -0.275719 0.306309 -0.2871 0.298134 -0.298452 0.289902 -0.309804 0.281698 -0.321186 0.273466 -0.332538 0.265262 -0.343861 0.257087 -0.355242 0.248883 -0.366566 0.240622 -0.377889 0.232447 -0.38927 0.224244 -0.400594 0.216069 -0.411946 0.207807 -0.423269 0.199632 -0.434593 0.191429 -0.445945 0.183225 -0.457297 0.175021 -0.468592 0.166818 -0.479944 0.158643 -0.017505 -0.0550571 0.478673 -0.158239 0.467379 -0.166356 0.455969 -0.174559 0.444616 -0.182647 0.433264 -0.190851 0.421941 -0.198997 0.410502 -0.207114 0.399207 -0.21526 0.387826 -0.223435 0.376503 -0.231581 0.365121 -0.239698 0.353798 -0.247844 0.342417 -0.255989 0.331094 -0.264164 0.319741 -0.272252 0.308418 -0.280427 0.297066 -0.288573 0.285771 -0.29669 0.274448 -0.304865 0.263095 -0.313011 0.251772 -0.321128 0.24042 -0.329332 0.229125 -0.337477 0.217831 -0.345623 0.206507 -0.353769 0.195184 -0.361973 0.183861 -0.370119 0.172537 -0.378294 0.161272 -0.386468 0.149919 -0.394643 0.138596 -0.402847 0.127301 -0.410993zm0.129323 -0.338662l0.0935335 0.776663 -0.0158585 -0.0143564 -0.0160318 -0.0137787 -0.0162052 -0.0132299 -0.0163785 -0.0126233 -0.0165229 -0.0120744 -0.0166962 -0.0114678 -0.0168984 -0.010919 -0.0170429 -0.0103124 -0.0172162 -0.00976353 -0.0173606 -0.00915692 -0.0175628 -0.0085792 -0.0177072 -0.00803036 -0.0179094 -0.00742375 -0.0180539 -0.00687491 -0.0182272 -0.0062683 -0.0184005 -0.00571947 -0.0185738 -0.00511286 -0.0187183 -0.00456402 -0.0189205 -0.00395741 -0.0190649 -0.00340857 -0.0192382 -0.00280196 -0.0194115 -0.00225312 -0.0195848 -0.00164651 -0.0197582 -0.00109768 -0.0199315 -0.000519951 -0.0200759 8.66586e-005 -0.0202781 0.000635496 -0.0204225 0.00124211 -0.0205959 0.00179094 -0.0207692 0.00239755 -0.0209425 0.00294639 -0.0210869 0.003553 0 0 0.497911 -0.603375z"/>
  </g>
  <g>
   <path class="fil1" d="M57.98 15.3525l-0.0551149 0.0173895 -0.132472 -0.398225 -0.143535 -0.390339 -0.15457 -0.382569 -0.165576 -0.374712 -0.176639 -0.366884 -0.187645 -0.359084 -0.198708 -0.351256 -0.209743 -0.343457 -0.220748 -0.3356 -0.231812 -0.327829 -0.242817 -0.320001 -0.25391 -0.312231 -0.264915 -0.304403 -0.276008 -0.296603 -0.287013 -0.288833 -0.298077 -0.281005 -0.309111 -0.273206 -0.320203 -0.265435 -0.331267 -0.257636 -0.342301 -0.249808 -0.353394 -0.242066 -0.364457 -0.234238 -0.375492 -0.226439 -0.386613 -0.218668 -0.397676 -0.21084 -0.40874 -0.203099 -0.419803 -0.195242 -0.430924 -0.187443 -0.441959 -0.179672 -0.453051 -0.171844 -0.464143 -0.164045 -0.475207 -0.156245 0.0174473 -0.0550571 0.47642 0.15665 0.465357 0.164449 0.454322 0.172306 0.44323 0.180192 0.432195 0.18802 0.421132 0.195877 0.410126 0.203734 0.399005 0.211591 0.387999 0.21942 0.376936 0.227305 0.365844 0.235163 0.35478 0.242991 0.343746 0.250848 0.332653 0.258734 0.32159 0.266591 0.310498 0.274419 0.299463 0.282334 0.288342 0.290162 0.277279 0.29799 0.266186 0.305847 0.255123 0.313733 0.244031 0.321561 0.232909 0.329389 0.221846 0.337275 0.210725 0.345074 0.199632 0.352932 0.188569 0.36076 0.177448 0.368617 0.166327 0.376445 0.155263 0.384244 0.144171 0.392072 0.13305 0.3999zm0.081228 0.353278l-0.510361 -0.592889 0.0211736 0.00311971 0.0210003 0.0025131 0.0207981 0.00193538 0.0206247 0.00138654 0.0204514 0.000808813 0.0202781 0.00023109 0.0200759 -0.000346634 0.0199315 -0.000924358 0.0197004 -0.00150208 0.019556 -0.00207981 0.0193538 -0.00262864 0.0191804 -0.00320637 0.0190071 -0.00381298 0.0188338 -0.00436182 0.0186316 -0.00493954 0.0184583 -0.00551726 0.018285 -0.0060661 0.0180828 -0.00667271 0.0179094 -0.00722155 0.0177361 -0.00782816 0.0175339 -0.008377 0.0173895 -0.00895472 0.0171873 -0.00953244 0.017014 -0.0100813 0.0168118 -0.0106879 0.0166384 -0.0112656 0.0164651 -0.0118145 0.0162918 -0.0123922 0.0160896 -0.0129699 0.0159163 -0.0135476 0.015743 -0.0141253 0.0155697 -0.0147031 0 0 -0.0773572 0.778454z"/>
  </g>
  <g>
   <path class="fil1" d="M25.305 16.0137l-0.0533817 0.0221268 -0.363273 -0.778165 -0.417665 -0.72175 -0.468245 -0.665856 -0.515041 -0.610539 -0.558052 -0.555713 -0.597309 -0.501464 -0.632781 -0.447678 -0.664469 -0.394383 -0.692373 -0.341608 -0.716464 -0.289353 -0.736829 -0.237531 -0.753294 -0.186258 -0.766004 -0.13539 -0.774901 -0.0850987 -0.780043 -0.0352989 -0.781256 0.0140676 -0.778714 0.0628564 -0.772417 0.111212 -0.76222 0.15899 -0.74821 0.206305 -0.730474 0.25313 -0.708809 0.299377 -0.683418 0.345161 -0.654243 0.390397 -0.621198 0.435171 -0.584397 0.479366 -0.543783 0.523071 -0.499442 0.566256 -0.45126 0.60895 -0.399352 0.65121 -0.343659 0.692893 -0.284153 0.734172 -0.0547682 -0.0183716 0.28606 -0.739082 0.34597 -0.697573 0.402009 -0.655543 0.454264 -0.612994 0.50262 -0.569896 0.547133 -0.526306 0.587863 -0.482197 0.624722 -0.437597 0.657768 -0.392534 0.687 -0.346952 0.712391 -0.300936 0.733998 -0.254343 0.751792 -0.207287 0.765802 -0.159741 0.775941 -0.111732 0.782354 -0.0631452 0.784896 -0.0141253 0.783682 0.0354722 0.778656 0.0855031 0.769759 0.136083 0.757165 0.187183 0.7407 0.238802 0.720393 0.290913 0.696302 0.343572 0.66834 0.396694 0.636652 0.450394 0.601006 0.504584 0.561577 0.559237 0.518276 0.614409 0.471192 0.670015 0.420207 0.726141 0.36541 0.782729zm0.111847 0.344786l-0.560306 -0.54592 0.0213758 0.00121322 0.0211158 0.000693269 0.0209136 0.000115545 0.0206825 -0.000433293 0.0204225 -0.00101102 0.0202203 -0.00153097 0.0199892 -0.00210869 0.0197293 -0.00265753 0.0195271 -0.00320637 0.019296 -0.00378409 0.0190649 -0.00433293 0.0188049 -0.00488177 0.0186027 -0.0054306 0.0183716 -0.00600833 0.0181405 -0.00652828 0.0178806 -0.007106 0.0176784 -0.00768373 0.0174473 -0.00820368 0.0172162 -0.0087814 0.0169851 -0.00933024 0.016754 -0.00987908 0.016494 -0.0104568 0.0162918 -0.0109768 0.0160607 -0.0115545 0.0158296 -0.0121322 0.0155985 -0.0126522 0.0153675 -0.0132299 0.0151364 -0.0137787 0.0149053 -0.0143276 0.0146742 -0.0148764 0.0144431 -0.0154541 0.014212 -0.016003 0 0 -0.00892583 0.782238z"/>
  </g>
  <g>
   <path class="fil1" d="M5.47575 19.0414l0.0549993 -0.0177361 0.293686 0.785127 0.35478 0.729665 0.411802 0.674608 0.464952 0.620158 0.514203 0.566141 0.559439 0.512499 0.600862 0.459464 0.63824 0.406747 0.671806 0.35452 0.701328 0.302698 0.726921 0.25131 0.748557 0.200297 0.766235 0.149746 0.779985 0.0996285 0.789662 0.0499153 0.795439 0.00060661 0.79723 -0.0481822 0.795035 -0.0966243 0.788911 -0.144575 0.778714 -0.192093 0.764618 -0.239178 0.746535 -0.2858 0.724495 -0.331989 0.698439 -0.377716 0.668455 -0.423009 0.634514 -0.467783 0.596615 -0.512181 0.554759 -0.556117 0.508975 -0.599591 0.459262 -0.642631 0.405591 -0.685238 0.347992 -0.72747 0.0531506 0.022589 -0.350187 0.732092 -0.408133 0.689571 -0.462092 0.646617 -0.512037 0.603173 -0.557995 0.559352 -0.599908 0.515012 -0.637923 0.470325 -0.671864 0.425147 -0.701848 0.379565 -0.727903 0.333549 -0.749943 0.287129 -0.768026 0.240218 -0.782123 0.19296 -0.792319 0.145211 -0.798501 0.0970287 -0.800754 0.0484133 -0.799021 -0.000664382 -0.793302 -0.0501464 -0.783682 -0.100091 -0.770048 -0.150497 -0.752485 -0.201337 -0.730907 -0.252696 -0.705372 -0.304432 -0.67585 -0.356658 -0.642342 -0.409346 -0.604848 -0.462526 -0.56331 -0.516081 -0.517785 -0.570069 -0.468245 -0.624548 -0.41469 -0.679346 -0.357149 -0.734576 -0.295592 -0.790153zm-0.0832789 -0.352816l0.51377 0.589943 -0.0212025 -0.00297528 -0.0210003 -0.00239755 -0.0208269 -0.00184872 -0.0206536 -0.00124211 -0.0204514 -0.000693269 -0.0202492 -0.000115545 -0.0201048 0.000462179 -0.0199026 0.0010399 -0.0197004 0.00161763 -0.0195271 0.00216646 -0.0193538 0.00277307 -0.0191804 0.00332191 -0.0189782 0.00389964 -0.018776 0.00447736 -0.0186027 0.0050262 -0.0184294 0.00563281 -0.0182561 0.00618165 -0.0180539 0.00675937 -0.0178517 0.00733709 -0.0177072 0.00791482 -0.017505 0.00849254 -0.0173028 0.00904138 -0.0171295 0.00964799 -0.0169562 0.0101968 -0.016754 0.0107746 -0.0165807 0.0113523 -0.0164074 0.0119011 -0.0162052 0.0125077 -0.0160318 0.0130566 -0.0158296 0.0136343 -0.0156563 0.014212 -0.015483 0.0147897 0 0 0.0728799 -0.778887z"/>
  </g>
  <g>
   <path class="fil2" d="M30.5608 17.6268l22.7911 0 0 0.0577724 -22.7911 0 0 -0.0577724zm-0.595951 0.0288862l0.628852 -0.314513 0 0.628824 -0.628852 -0.314311z"/>
  </g>
  <path class="fil0" d="M48.4755 34.6625l0 -1.16712 0.143218 0 0 1.16712 -0.143218 0zm0.366046 -1.00218l0 -0.16494 0.143478 0 0 0.16494 -0.143478 0zm0 1.00218l0 -0.845383 0.143478 0 0 0.845383 -0.143478 0zm0.361684 0l0 -0.845383 0.127995 0 0 0.118462c0.0266331,-0.0413073 0.0619609,-0.0747286 0.105983,-0.0997151 0.0440226,-0.0252754 0.0942845,-0.0380431 0.150555,-0.0380431 0.0624808,0 0.11384,0.0130277 0.15379,0.0391408 0.0402385,0.0260842 0.0684892,0.0622209 0.084781,0.108959 0.0671315,-0.0986464 0.154079,-0.1481 0.26116,-0.1481 0.0839722,0 0.148359,0.0233689 0.19348,0.0698468 0.0450913,0.046449 0.0676515,0.117913 0.0676515,0.214393l0 0.580439 -0.14238 0 0 -0.532604c0,-0.0573391 -0.00462179,-0.0986464 -0.0138654,-0.123922 -0.00950356,-0.0250154 -0.0263731,-0.0453802 -0.0505508,-0.0608632 -0.0244377,-0.015223 -0.0532661,-0.023109 -0.0861386,-0.023109 -0.0595056,0 -0.108699,0.0198448 -0.1481,0.0595056 -0.0391408,0.0394008 -0.0589567,0.102719 -0.0589567,0.189696l0 0.491296 -0.143218 0 0 -0.549184c0,-0.0638674 -0.01167,-0.111703 -0.035039,-0.143478 -0.0233978,-0.0318037 -0.0614409,-0.0478355 -0.114678,-0.0478355 -0.0402385,0 -0.0774439,0.0106012 -0.111703,0.0320637 -0.0342301,0.0212025 -0.0592456,0.0521685 -0.0744397,0.0929269 -0.0155119,0.0410473 -0.023109,0.100004 -0.023109,0.176928l0 0.438579 -0.143218 0zm1.35872 -1.00218l0 -0.16494 0.143478 0 0 0.16494 -0.143478 0zm0 1.00218l0 -0.845383 0.143478 0 0 0.845383 -0.143478 0zm0.674464 -0.128255l0.0206536 0.126637c-0.0402096,0.00840588 -0.0763462,0.0127677 -0.10815,0.0127677 -0.0521685,0 -0.0924069,-0.00817479 -0.121206,-0.0247266 -0.0285107,-0.0163207 -0.0486444,-0.0380431 -0.0603144,-0.0649651 -0.0116989,-0.0266331 -0.0176784,-0.0831345 -0.0176784,-0.169013l0 -0.486415 -0.105146 0 0 -0.111414 0.105146 0 0 -0.209512 0.142669 -0.0858787 0 0.29539 0.144027 0 0 0.111414 -0.144027 0 0 0.494301c0,0.0410184 0.00245533,0.0671026 0.00733709,0.0788015 0.00517063,0.01167 0.0133165,0.0209136 0.0247266,0.0279907 0.01141,0.00678826 0.0277307,0.0103124 0.0489332,0.0103124 0.0160318,0 0.0369454,-0.00190649 0.0630297,-0.00569058zm0.140762 -0.873923l0 -0.16494 0.143478 0 0 0.16494 -0.143478 0zm0 1.00218l0 -0.845383 0.143478 0 0 0.845383 -0.143478 0zm0.361684 0l0 -0.845383 0.128804 0 0 0.120109c0.0622497,-0.0929269 0.151912,-0.139405 0.269046,-0.139405 0.0510708,0 0.0978087,0.00924358 0.140474,0.0274419 0.0429538,0.0184872 0.0747286,0.0424049 0.0959311,0.0722733 0.0214624,0.0296372 0.0361366,0.0649651 0.0448314,0.105723 0.00517063,0.0266331 0.00788593,0.0730821 0.00788593,0.139405l0 0.519836 -0.143478 0 0 -0.514405c0,-0.0581479 -0.0054306,-0.10191 -0.0165807,-0.13097 -0.0111501,-0.0288284 -0.030966,-0.0519085 -0.0592456,-0.069038 -0.0285107,-0.0173895 -0.061672,-0.0260842 -0.100004,-0.0260842 -0.0611232,0 -0.113581,0.019556 -0.158152,0.0581479 -0.0442825,0.0388519 -0.0662938,0.112223 -0.0662938,0.220662l0 0.461688 -0.143218 0zm0.880451 0.0701068l0.139405 0.0206536c0.00569058,0.0429249 0.0220113,0.0741797 0.0483555,0.0940246 0.0356167,0.0263442 0.084261,0.0396607 0.145673,0.0396607 0.0665538,0 0.117653,-0.0133165 0.15379,-0.0396607 0.0361366,-0.0266331 0.0603433,-0.0638674 0.073111,-0.111414 0.00759707,-0.0293484 0.0108612,-0.0905004 0.0103124,-0.183976 -0.0624808,0.0736598 -0.140474,0.110605 -0.233978,0.110605 -0.116296,0 -0.206247,-0.0418561 -0.269826,-0.125828 -0.0635785,-0.0836833 -0.0956422,-0.184496 -0.0956422,-0.30163 0,-0.080708 0.0146742,-0.155148 0.0437337,-0.223377 0.0293484,-0.0682003 0.0717533,-0.120918 0.127186,-0.158152 0.0554326,-0.0369454 0.120658,-0.0556926 0.195386,-0.0556926 0.0997151,0 0.18207,0.0404984 0.246746,0.121206l0 -0.10191 0.132328 0 0 0.730705c0,0.131519 -0.0135765,0.224995 -0.0402096,0.279907 -0.0269219,0.0548838 -0.069298,0.0983575 -0.127446,0.130161 -0.0581768,0.0317748 -0.129641,0.0478067 -0.214682,0.0478067 -0.100813,0 -0.182359,-0.0228201 -0.244291,-0.0682003 -0.0622497,-0.0453802 -0.0921181,-0.113581 -0.0899516,-0.20489zm0.118462 -0.507877c0,0.110865 0.0220113,0.191833 0.0663227,0.242673 0.0440226,0.0510708 0.0991663,0.0763462 0.165489,0.0763462 0.065745,0 0.120918,-0.0252754 0.165489,-0.0758263 0.0445714,-0.0508108 0.0668427,-0.130161 0.0668427,-0.238571 0,-0.103528 -0.0228201,-0.181521 -0.0687491,-0.233978 -0.045929,-0.0524573 -0.101362,-0.0788015 -0.166038,-0.0788015 -0.0635785,0 -0.117653,0.0258243 -0.162485,0.0777039 -0.0445714,0.0516485 -0.0668715,0.128544 -0.0668715,0.230454zm1.30164 0.43777l0 -0.733969 -0.126348 0 0 -0.111414 0.126348 0 0 -0.0899516c0,-0.0567903 0.00517063,-0.0991952 0.015223,-0.126637 0.0138654,-0.0372343 0.0380431,-0.0673915 0.0728221,-0.0905004 0.034779,-0.0230801 0.0834233,-0.0344901 0.146193,-0.0344901 0.0402385,0 0.084781,0.00462179 0.133714,0.0143853l-0.0214624 0.125019c-0.0296372,-0.0054306 -0.0578879,-0.00814591 -0.084521,-0.00814591 -0.0434737,0 -0.0741797,0.0092147 -0.0921181,0.0279618 -0.0181983,0.0184872 -0.0271819,0.0532661 -0.0271819,0.104366l0 0.0779927 0.16468 0 0 0.111414 -0.16468 0 0 0.733969 -0.142669 0zm0.970663 -0.104337c-0.0532661,0.0450913 -0.104337,0.076895 -0.15327,0.0956422 -0.0491643,0.0184872 -0.101882,0.0277307 -0.158152,0.0277307 -0.0929269,0 -0.164131,-0.0225601 -0.214133,-0.0679403 -0.0497131,-0.0453802 -0.0747286,-0.103557 -0.0747286,-0.173924 0,-0.0415672 0.00924358,-0.0793504 0.0282796,-0.113581 0.0187471,-0.034259 0.0434737,-0.0617009 0.0739198,-0.0823545 0.030706,-0.0206536 0.0649362,-0.0363966 0.103239,-0.0469978 0.0279907,-0.00733709 0.0703957,-0.0146742 0.127186,-0.0214624 0.115747,-0.0138654 0.201077,-0.0301861 0.255701,-0.0494532 0.000548838,-0.0195848 0.000808813,-0.0320926 0.000808813,-0.0372343 0,-0.0584368 -0.0135765,-0.099744 -0.0407584,-0.123373 -0.0363966,-0.0326125 -0.0910204,-0.0486444 -0.163034,-0.0486444 -0.0673915,0 -0.117134,0.01167 -0.149457,0.0353278 -0.0320637,0.0236289 -0.0557215,0.065485 -0.0712045,0.125539l-0.139954 -0.019296c0.0127966,-0.0597944 0.0337102,-0.10841 0.0627986,-0.145095 0.0290595,-0.0369743 0.0714644,-0.0655139 0.126608,-0.0853298 0.0551726,-0.0198448 0.11904,-0.0298972 0.191862,-0.0298972 0.0722733,0 0.13071,0.00869474 0.175801,0.0255354 0.0451202,0.0171295 0.0782816,0.038332 0.099744,0.0641274 0.0212025,0.0258243 0.0358767,0.0581479 0.0445714,0.0975776 0.00462179,0.0244377 0.00704823,0.0684603 0.00704823,0.132039l0 0.191053c0,0.133425 0.00300416,0.217657 0.00924358,0.252725 0.00597944,0.0353278 0.0182272,0.069298 0.0361366,0.101622l-0.149717 0c-0.0146742,-0.0296083 -0.0244666,-0.0644162 -0.0285396,-0.104337zm-0.0119589 -0.320117c-0.0521685,0.0214624 -0.130161,0.0394008 -0.233949,0.0543349 -0.0589856,0.00843477 -0.100842,0.0179383 -0.125019,0.0285396 -0.0244377,0.0106012 -0.0434737,0.0260842 -0.0565303,0.0467379 -0.0133165,0.0203937 -0.0201048,0.0429249 -0.0201048,0.0679403 0,0.0383031 0.0146742,0.0701068 0.0434737,0.0956422 0.0288284,0.0252754 0.0712045,0.0380431 0.126926,0.0380431 0.0551437,0 0.104337,-0.0119589 0.147262,-0.0361366 0.0429538,-0.0241777 0.0747575,-0.0573391 0.0948623,-0.0991952 0.015483,-0.0323237 0.0230801,-0.0801592 0.0230801,-0.143189l0 -0.0527173zm0.918754 0.114678l0.140762 0.0184583c-0.015223,0.0970287 -0.0546238,0.173115 -0.118202,0.227999 -0.0633185,0.0548838 -0.141311,0.0823545 -0.233689,0.0823545 -0.115487,0 -0.208703,-0.0377831 -0.27881,-0.113321 -0.0703957,-0.0755663 -0.105723,-0.183976 -0.105723,-0.325287 0,-0.0913093 0.015223,-0.171208 0.0453802,-0.239669 0.030446,-0.0684892 0.0763751,-0.119849 0.138336,-0.154079 0.061672,-0.0342301 0.129064,-0.0513597 0.201626,-0.0513597 0.0918581,0 0.167107,0.0233689 0.225283,0.0698468 0.0584079,0.046449 0.0959022,0.112223 0.112483,0.197813l-0.139405 0.0214624c-0.0133165,-0.0567903 -0.0366855,-0.0994552 -0.0703668,-0.128255 -0.0337102,-0.0285396 -0.0744686,-0.0429249 -0.122304,-0.0429249 -0.0722733,0 -0.13097,0.0257954 -0.176061,0.0777039 -0.0451202,0.0516485 -0.0676804,0.133425 -0.0676804,0.245388 0,0.113581 0.0217513,0.196195 0.065485,0.247815 0.0434737,0.0513597 0.100293,0.0771839 0.1704,0.0771839 0.0562414,0 0.102979,-0.0173895 0.140762,-0.0519085 0.0377543,-0.0344901 0.061672,-0.0874963 0.0717244,-0.159221zm0.576366 0.181521l0.0206536 0.126637c-0.0402096,0.00840588 -0.0763462,0.0127677 -0.10815,0.0127677 -0.0521685,0 -0.0924069,-0.00817479 -0.121206,-0.0247266 -0.0285107,-0.0163207 -0.0486444,-0.0380431 -0.0603144,-0.0649651 -0.0116989,-0.0266331 -0.0176784,-0.0831345 -0.0176784,-0.169013l0 -0.486415 -0.105146 0 0 -0.111414 0.105146 0 0 -0.209512 0.142669 -0.0858787 0 0.29539 0.144027 0 0 0.111414 -0.144027 0 0 0.494301c0,0.0410184 0.00245533,0.0671026 0.00733709,0.0788015 0.00517063,0.01167 0.0133165,0.0209136 0.0247266,0.0279907 0.01141,0.00678826 0.0277307,0.0103124 0.0489332,0.0103124 0.0160318,0 0.0369454,-0.00190649 0.0630297,-0.00569058zm0.0866875 -0.294581c0,-0.156505 0.0434737,-0.272541 0.13071,-0.347819 0.0725621,-0.0625097 0.161156,-0.0940246 0.265753,-0.0940246 0.116325,0 0.211418,0.0380431 0.285078,0.114389 0.0738909,0.0760862 0.110576,0.181261 0.110576,0.315495 0,0.108988 -0.0162918,0.194577 -0.0489043,0.256798 -0.0326125,0.0625097 -0.0801592,0.110865 -0.14238,0.145384 -0.0625097,0.034519 -0.13045,0.0516485 -0.20437,0.0516485 -0.118202,0 -0.213844,-0.0377831 -0.286955,-0.113869 -0.0730821,-0.0758263 -0.109508,-0.185074 -0.109508,-0.328003zm0.147291 0c0,0.108439 0.0236289,0.189407 0.0709156,0.243222 0.0472867,0.054075 0.106792,0.080968 0.178257,0.080968 0.0712045,0 0.13045,-0.0271819 0.177737,-0.0812569 0.0469978,-0.054075 0.0706556,-0.136689 0.0706556,-0.247555 0,-0.104626 -0.0236578,-0.183976 -0.0712045,-0.237762 -0.0475467,-0.053815 -0.106532,-0.080708 -0.177188,-0.080708 -0.0714644,0 -0.13097,0.026893 -0.178257,0.0804192 -0.0472867,0.053555 -0.0709156,0.134523 -0.0709156,0.242673zm0.811413 0.422836l0 -0.845383 0.128804 0 0 0.127995c0.0328725,-0.0597944 0.0633185,-0.0994552 0.0913093,-0.118491 0.0277019,-0.0190071 0.0584079,-0.0287995 0.0918292,-0.0287995 0.0483844,0 0.0972887,0.015483 0.147291,0.046189l-0.0494532 0.133165c-0.034779,-0.0209425 -0.0698468,-0.0312549 -0.104886,-0.0312549 -0.0315148,0 -0.0595056,0.00950356 -0.084521,0.0282507 -0.0249866,0.019036 -0.0426649,0.0451202 -0.0532661,0.0785416 -0.0160318,0.0508108 -0.0238889,0.106532 -0.0238889,0.167107l0 0.442681 -0.143218 0zm1.7109 -0.137787l0 0.137787 -0.771492 0c-0.00106879,-0.034519 0.00436182,-0.0676515 0.0165807,-0.0994552 0.019556,-0.0527173 0.0510997,-0.104366 0.0942845,-0.155437 0.0435026,-0.0508108 0.105983,-0.109796 0.1875,-0.176639 0.126926,-0.104077 0.212776,-0.186403 0.257347,-0.247295 0.0445714,-0.0605743 0.0668427,-0.118202 0.0668427,-0.172277 0,-0.0567903 -0.0203648,-0.104626 -0.0608632,-0.143738 -0.0407584,-0.0388519 -0.0937357,-0.0584368 -0.158961,-0.0584368 -0.069038,0 -0.124182,0.0206536 -0.165489,0.0622209 -0.0415961,0.0413073 -0.0625097,0.0986464 -0.0630586,0.171757l-0.147291 -0.014963c0.0100813,-0.110028 0.0481244,-0.19374 0.113869,-0.251339 0.0657739,-0.057628 0.154339,-0.0864275 0.265233,-0.0864275 0.111963,0 0.200528,0.0312549 0.265753,0.0932157 0.065485,0.0622209 0.0980975,0.139116 0.0980975,0.230974 0,0.0467379 -0.00950356,0.0926669 -0.0287995,0.137787 -0.019036,0.0450913 -0.0508108,0.0926669 -0.0951222,0.14238 -0.0442825,0.050002 -0.117913,0.118491 -0.220922,0.205439 -0.0858787,0.0722733 -0.141022,0.121206 -0.165489,0.147002 -0.0244666,0.0255643 -0.0445714,0.0513597 -0.0606032,0.0774439l0.572582 0z"/>
  <path class="fil0" d="M47.4359 1.18696l0 -1.16712 0.143218 0 0 1.16712 -0.143218 0zm0.366046 -1.00218l0 -0.16494 0.143478 0 0 0.16494 -0.143478 0zm0 1.00218l0 -0.845383 0.143478 0 0 0.845383 -0.143478 0zm0.361684 0l0 -0.845383 0.127995 0 0 0.118462c0.0266331,-0.0413073 0.0619609,-0.0747286 0.105983,-0.0997151 0.0440226,-0.0252754 0.0942845,-0.0380431 0.150555,-0.0380431 0.0624808,0 0.11384,0.0130277 0.15379,0.0391408 0.0402385,0.0260842 0.0684892,0.0622209 0.084781,0.108959 0.0671315,-0.0986464 0.154079,-0.1481 0.26116,-0.1481 0.0839722,0 0.148359,0.0233689 0.19348,0.0698468 0.0450913,0.046449 0.0676515,0.117913 0.0676515,0.214393l0 0.580439 -0.14238 0 0 -0.532604c0,-0.0573391 -0.00462179,-0.0986464 -0.0138654,-0.123922 -0.00950356,-0.0250154 -0.0263731,-0.0453802 -0.0505508,-0.0608632 -0.0244377,-0.015223 -0.0532661,-0.023109 -0.0861386,-0.023109 -0.0595056,0 -0.108699,0.0198448 -0.1481,0.0595056 -0.0391408,0.0394008 -0.0589567,0.102719 -0.0589567,0.189696l0 0.491296 -0.143218 0 0 -0.549184c0,-0.0638674 -0.01167,-0.111703 -0.035039,-0.143478 -0.0233978,-0.0318037 -0.0614409,-0.0478355 -0.114678,-0.0478355 -0.0402385,0 -0.0774439,0.0106012 -0.111703,0.0320637 -0.0342301,0.0212025 -0.0592456,0.0521685 -0.0744397,0.0929269 -0.0155119,0.0410473 -0.023109,0.100004 -0.023109,0.176928l0 0.438579 -0.143218 0zm1.35872 -1.00218l0 -0.16494 0.143478 0 0 0.16494 -0.143478 0zm0 1.00218l0 -0.845383 0.143478 0 0 0.845383 -0.143478 0zm0.674464 -0.128255l0.0206536 0.126637c-0.0402096,0.00840588 -0.0763462,0.0127677 -0.10815,0.0127677 -0.0521685,0 -0.0924069,-0.00817479 -0.121206,-0.0247266 -0.0285107,-0.0163207 -0.0486444,-0.0380431 -0.0603144,-0.0649651 -0.0116989,-0.0266331 -0.0176784,-0.0831345 -0.0176784,-0.169013l0 -0.486415 -0.105146 0 0 -0.111414 0.105146 0 0 -0.209512 0.142669 -0.0858787 0 0.29539 0.144027 0 0 0.111414 -0.144027 0 0 0.494301c0,0.0410184 0.00245533,0.0671026 0.00733709,0.0788015 0.00517063,0.01167 0.0133165,0.0209136 0.0247266,0.0279907 0.01141,0.00678826 0.0277307,0.0103124 0.0489332,0.0103124 0.0160318,0 0.0369454,-0.00190649 0.0630297,-0.00569058zm0.140762 -0.873923l0 -0.16494 0.143478 0 0 0.16494 -0.143478 0zm0 1.00218l0 -0.845383 0.143478 0 0 0.845383 -0.143478 0zm0.361684 0l0 -0.845383 0.128804 0 0 0.120109c0.0622497,-0.0929269 0.151912,-0.139405 0.269046,-0.139405 0.0510708,0 0.0978087,0.00924358 0.140474,0.0274419 0.0429538,0.0184872 0.0747286,0.0424049 0.0959311,0.0722733 0.0214624,0.0296372 0.0361366,0.0649651 0.0448314,0.105723 0.00517063,0.0266331 0.00788593,0.0730821 0.00788593,0.139405l0 0.519836 -0.143478 0 0 -0.514405c0,-0.0581479 -0.0054306,-0.10191 -0.0165807,-0.13097 -0.0111501,-0.0288284 -0.030966,-0.0519085 -0.0592456,-0.069038 -0.0285107,-0.0173895 -0.061672,-0.0260842 -0.100004,-0.0260842 -0.0611232,0 -0.113581,0.019556 -0.158152,0.0581479 -0.0442825,0.0388519 -0.0662938,0.112223 -0.0662938,0.220662l0 0.461688 -0.143218 0zm0.880451 0.0701068l0.139405 0.0206536c0.00569058,0.0429249 0.0220113,0.0741797 0.0483555,0.0940246 0.0356167,0.0263442 0.084261,0.0396607 0.145673,0.0396607 0.0665538,0 0.117653,-0.0133165 0.15379,-0.0396607 0.0361366,-0.0266331 0.0603433,-0.0638674 0.073111,-0.111414 0.00759707,-0.0293484 0.0108612,-0.0905004 0.0103124,-0.183976 -0.0624808,0.0736598 -0.140474,0.110605 -0.233978,0.110605 -0.116296,0 -0.206247,-0.0418561 -0.269826,-0.125828 -0.0635785,-0.0836833 -0.0956422,-0.184496 -0.0956422,-0.30163 0,-0.080708 0.0146742,-0.155148 0.0437337,-0.223377 0.0293484,-0.0682003 0.0717533,-0.120918 0.127186,-0.158152 0.0554326,-0.0369454 0.120658,-0.0556926 0.195386,-0.0556926 0.0997151,0 0.18207,0.0404984 0.246746,0.121206l0 -0.10191 0.132328 0 0 0.730705c0,0.131519 -0.0135765,0.224995 -0.0402096,0.279907 -0.0269219,0.0548838 -0.069298,0.0983575 -0.127446,0.130161 -0.0581768,0.0317748 -0.129641,0.0478067 -0.214682,0.0478067 -0.100813,0 -0.182359,-0.0228201 -0.244291,-0.0682003 -0.0622497,-0.0453802 -0.0921181,-0.113581 -0.0899516,-0.20489zm0.118462 -0.507877c0,0.110865 0.0220113,0.191833 0.0663227,0.242673 0.0440226,0.0510708 0.0991663,0.0763462 0.165489,0.0763462 0.065745,0 0.120918,-0.0252754 0.165489,-0.0758263 0.0445714,-0.0508108 0.0668427,-0.130161 0.0668427,-0.238571 0,-0.103528 -0.0228201,-0.181521 -0.0687491,-0.233978 -0.045929,-0.0524573 -0.101362,-0.0788015 -0.166038,-0.0788015 -0.0635785,0 -0.117653,0.0258243 -0.162485,0.0777039 -0.0445714,0.0516485 -0.0668715,0.128544 -0.0668715,0.230454zm1.30164 0.43777l0 -0.733969 -0.126348 0 0 -0.111414 0.126348 0 0 -0.0899516c0,-0.0567903 0.00517063,-0.0991952 0.015223,-0.126637 0.0138654,-0.0372343 0.0380431,-0.0673915 0.0728221,-0.0905004 0.034779,-0.0230801 0.0834233,-0.0344901 0.146193,-0.0344901 0.0402385,0 0.084781,0.00462179 0.133714,0.0143853l-0.0214624 0.125019c-0.0296372,-0.0054306 -0.0578879,-0.00814591 -0.084521,-0.00814591 -0.0434737,0 -0.0741797,0.0092147 -0.0921181,0.0279618 -0.0181983,0.0184872 -0.0271819,0.0532661 -0.0271819,0.104366l0 0.0779927 0.16468 0 0 0.111414 -0.16468 0 0 0.733969 -0.142669 0zm0.970663 -0.104337c-0.0532661,0.0450913 -0.104337,0.076895 -0.15327,0.0956422 -0.0491643,0.0184872 -0.101882,0.0277307 -0.158152,0.0277307 -0.0929269,0 -0.164131,-0.0225601 -0.214133,-0.0679403 -0.0497131,-0.0453802 -0.0747286,-0.103557 -0.0747286,-0.173924 0,-0.0415672 0.00924358,-0.0793504 0.0282796,-0.113581 0.0187471,-0.034259 0.0434737,-0.0617009 0.0739198,-0.0823545 0.030706,-0.0206536 0.0649362,-0.0363966 0.103239,-0.0469978 0.0279907,-0.00733709 0.0703957,-0.0146742 0.127186,-0.0214624 0.115747,-0.0138654 0.201077,-0.0301861 0.255701,-0.0494532 0.000548838,-0.0195848 0.000808813,-0.0320926 0.000808813,-0.0372343 0,-0.0584368 -0.0135765,-0.099744 -0.0407584,-0.123373 -0.0363966,-0.0326125 -0.0910204,-0.0486444 -0.163034,-0.0486444 -0.0673915,0 -0.117134,0.01167 -0.149457,0.0353278 -0.0320637,0.0236289 -0.0557215,0.065485 -0.0712045,0.125539l-0.139954 -0.019296c0.0127966,-0.0597944 0.0337102,-0.10841 0.0627986,-0.145095 0.0290595,-0.0369743 0.0714644,-0.0655139 0.126608,-0.0853298 0.0551726,-0.0198448 0.11904,-0.0298972 0.191862,-0.0298972 0.0722733,0 0.13071,0.00869474 0.175801,0.0255354 0.0451202,0.0171295 0.0782816,0.038332 0.099744,0.0641274 0.0212025,0.0258243 0.0358767,0.0581479 0.0445714,0.0975776 0.00462179,0.0244377 0.00704823,0.0684603 0.00704823,0.132039l0 0.191053c0,0.133425 0.00300416,0.217657 0.00924358,0.252725 0.00597944,0.0353278 0.0182272,0.069298 0.0361366,0.101622l-0.149717 0c-0.0146742,-0.0296083 -0.0244666,-0.0644162 -0.0285396,-0.104337zm-0.0119589 -0.320117c-0.0521685,0.0214624 -0.130161,0.0394008 -0.233949,0.0543349 -0.0589856,0.00843477 -0.100842,0.0179383 -0.125019,0.0285396 -0.0244377,0.0106012 -0.0434737,0.0260842 -0.0565303,0.0467379 -0.0133165,0.0203937 -0.0201048,0.0429249 -0.0201048,0.0679403 0,0.0383031 0.0146742,0.0701068 0.0434737,0.0956422 0.0288284,0.0252754 0.0712045,0.0380431 0.126926,0.0380431 0.0551437,0 0.104337,-0.0119589 0.147262,-0.0361366 0.0429538,-0.0241777 0.0747575,-0.0573391 0.0948623,-0.0991952 0.015483,-0.0323237 0.0230801,-0.0801592 0.0230801,-0.143189l0 -0.0527173zm0.918754 0.114678l0.140762 0.0184583c-0.015223,0.0970287 -0.0546238,0.173115 -0.118202,0.227999 -0.0633185,0.0548838 -0.141311,0.0823545 -0.233689,0.0823545 -0.115487,0 -0.208703,-0.0377831 -0.27881,-0.113321 -0.0703957,-0.0755663 -0.105723,-0.183976 -0.105723,-0.325287 0,-0.0913093 0.015223,-0.171208 0.0453802,-0.239669 0.030446,-0.0684892 0.0763751,-0.119849 0.138336,-0.154079 0.061672,-0.0342301 0.129064,-0.0513597 0.201626,-0.0513597 0.0918581,0 0.167107,0.0233689 0.225283,0.0698468 0.0584079,0.046449 0.0959022,0.112223 0.112483,0.197813l-0.139405 0.0214624c-0.0133165,-0.0567903 -0.0366855,-0.0994552 -0.0703668,-0.128255 -0.0337102,-0.0285396 -0.0744686,-0.0429249 -0.122304,-0.0429249 -0.0722733,0 -0.13097,0.0257954 -0.176061,0.0777039 -0.0451202,0.0516485 -0.0676804,0.133425 -0.0676804,0.245388 0,0.113581 0.0217513,0.196195 0.065485,0.247815 0.0434737,0.0513597 0.100293,0.0771839 0.1704,0.0771839 0.0562414,0 0.102979,-0.0173895 0.140762,-0.0519085 0.0377543,-0.0344901 0.061672,-0.0874963 0.0717244,-0.159221zm0.576366 0.181521l0.0206536 0.126637c-0.0402096,0.00840588 -0.0763462,0.0127677 -0.10815,0.0127677 -0.0521685,0 -0.0924069,-0.00817479 -0.121206,-0.0247266 -0.0285107,-0.0163207 -0.0486444,-0.0380431 -0.0603144,-0.0649651 -0.0116989,-0.0266331 -0.0176784,-0.0831345 -0.0176784,-0.169013l0 -0.486415 -0.105146 0 0 -0.111414 0.105146 0 0 -0.209512 0.142669 -0.0858787 0 0.29539 0.144027 0 0 0.111414 -0.144027 0 0 0.494301c0,0.0410184 0.00245533,0.0671026 0.00733709,0.0788015 0.00517063,0.01167 0.0133165,0.0209136 0.0247266,0.0279907 0.01141,0.00678826 0.0277307,0.0103124 0.0489332,0.0103124 0.0160318,0 0.0369454,-0.00190649 0.0630297,-0.00569058zm0.0866875 -0.294581c0,-0.156505 0.0434737,-0.272541 0.13071,-0.347819 0.0725621,-0.0625097 0.161156,-0.0940246 0.265753,-0.0940246 0.116325,0 0.211418,0.0380431 0.285078,0.114389 0.0738909,0.0760862 0.110576,0.181261 0.110576,0.315495 0,0.108988 -0.0162918,0.194577 -0.0489043,0.256798 -0.0326125,0.0625097 -0.0801592,0.110865 -0.14238,0.145384 -0.0625097,0.034519 -0.13045,0.0516485 -0.20437,0.0516485 -0.118202,0 -0.213844,-0.0377831 -0.286955,-0.113869 -0.0730821,-0.0758263 -0.109508,-0.185074 -0.109508,-0.328003zm0.147291 0c0,0.108439 0.0236289,0.189407 0.0709156,0.243222 0.0472867,0.054075 0.106792,0.080968 0.178257,0.080968 0.0712045,0 0.13045,-0.0271819 0.177737,-0.0812569 0.0469978,-0.054075 0.0706556,-0.136689 0.0706556,-0.247555 0,-0.104626 -0.0236578,-0.183976 -0.0712045,-0.237762 -0.0475467,-0.053815 -0.106532,-0.080708 -0.177188,-0.080708 -0.0714644,0 -0.13097,0.026893 -0.178257,0.0804192 -0.0472867,0.053555 -0.0709156,0.134523 -0.0709156,0.242673zm0.811413 0.422836l0 -0.845383 0.128804 0 0 0.127995c0.0328725,-0.0597944 0.0633185,-0.0994552 0.0913093,-0.118491 0.0277019,-0.0190071 0.0584079,-0.0287995 0.0918292,-0.0287995 0.0483844,0 0.0972887,0.015483 0.147291,0.046189l-0.0494532 0.133165c-0.034779,-0.0209425 -0.0698468,-0.0312549 -0.104886,-0.0312549 -0.0315148,0 -0.0595056,0.00950356 -0.084521,0.0282507 -0.0249866,0.019036 -0.0426649,0.0451202 -0.0532661,0.0785416 -0.0160318,0.0508108 -0.0238889,0.106532 -0.0238889,0.167107l0 0.442681 -0.143218 0zm1.49729 0l-0.143189 0 0 -0.913064c-0.034519,0.0329014 -0.0796392,0.0657739 -0.135621,0.0986464 -0.0562414,0.0329014 -0.106503,0.057628 -0.151075,0.0739198l0 -0.138307c0.0801592,-0.0377831 0.150266,-0.0834233 0.21032,-0.136978 0.0597944,-0.0537861 0.102459,-0.105695 0.127446,-0.156245l0.0921181 0 0 1.17203z"/>
  <g>
   <path class="fil0" d="M41.2247 4.14248l-0.0499153 -0.0291173 0.0937068 -0.154426 0.099253 -0.151595 0.104857 -0.148735 0.110374 -0.145904 0.115978 -0.143016 0.121495 -0.140214 0.12707 -0.137325 0.132645 -0.134494 0.138163 -0.131634 0.143738 -0.128775 0.149284 -0.125944 0.15483 -0.123055 0.160347 -0.120195 0.165951 -0.117393 0.171411 -0.114534 0.176986 -0.111645 0.182532 -0.108814 0.18802 -0.105983 0.193595 -0.103153 0.199141 -0.100264 0.204659 -0.0974331 0.210176 -0.0946312 0.215722 -0.0917426 0.221239 -0.0889406 0.226786 -0.0860809 0.232303 -0.08325 0.237849 -0.0804192 0.243366 -0.0775883 0.248883 -0.0747575 0.254458 -0.0718977 0.259976 -0.0690958 0.265493 -0.0662649 0.0135765 0.0561548 -0.264684 0.0660338 -0.259109 0.0688647 -0.253534 0.0716666 -0.247959 0.0744686 -0.242442 0.0772995 -0.236867 0.0800725 -0.231321 0.0829034 -0.225746 0.0856765 -0.220199 0.0885362 -0.214624 0.0912804 -0.209078 0.0941112 -0.203503 0.0969132 -0.197986 0.0996863 -0.192382 0.102517 -0.186865 0.10529 -0.181261 0.108063 -0.175715 0.110894 -0.170197 0.113667 -0.164622 0.116469 -0.159076 0.119271 -0.153501 0.122015 -0.148013 0.124846 -0.142409 0.127619 -0.136892 0.130363 -0.131374 0.133223 -0.125799 0.135938 -0.120282 0.138769 -0.114765 0.141571 -0.109219 0.144344 -0.103701 0.147117 -0.0981553 0.149919 -0.0926669 0.15275zm-0.206998 0.297586l0.0960755 -0.776374 0.0119589 0.017765 0.0122189 0.0172451 0.0125655 0.0167251 0.0128255 0.0162052 0.0131432 0.0156852 0.013461 0.0151653 0.0137498 0.0146453 0.0140676 0.0141253 0.0143564 0.0136054 0.0146742 0.0130566 0.014963 0.0125655 0.0152808 0.0120455 0.0155697 0.0115256 0.0158874 0.0110056 0.0161763 0.0104857 0.016494 0.00996574 0.0167829 0.00944579 0.0171006 0.00892583 0.0173895 0.00840588 0.0176784 0.00788593 0.018025 0.00736598 0.018285 0.00684603 0.0186027 0.00632608 0.0189205 0.00580613 0.0192093 0.00525729 0.0195271 0.00476622 0.0198159 0.00424627 0.0201337 0.00372632 0.0204225 0.00320637 0.0207403 0.00268642 0.0210291 0.00216646 0.021318 0.00164651 0 0 -0.628448 0.465848z"/>
  </g>
  <g>
   <path class="fil0" d="M42.4723 30.8887l0.0534972 -0.021838 0.0644451 0.147782 0.0714067 0.144951 0.0784838 0.142178 0.0854454 0.139405 0.0924936 0.136603 0.0995129 0.13383 0.106532 0.131057 0.113581 0.128284 0.120629 0.125511 0.127677 0.122709 0.134754 0.119964 0.141773 0.117162 0.148879 0.114418 0.155928 0.111587 0.163005 0.108843 0.170053 0.10607 0.177159 0.103239 0.184236 0.100437 0.191313 0.0976353 0.19839 0.0948623 0.205468 0.0920892 0.212545 0.0892295 0.219622 0.0864564 0.22667 0.0835966 0.233805 0.0808236 0.240853 0.0779927 0.24793 0.0751619 0.255036 0.0723888 0.262056 0.0695291 0.269162 0.066756 0.276239 0.0638674 0.283316 0.0610943 -0.0117856 0.0565592 -0.284125 -0.0612676 -0.277105 -0.0640985 -0.270028 -0.0669293 -0.263038 -0.0698179 -0.255961 -0.0726199 -0.24897 -0.0755085 -0.241893 -0.0783394 -0.234903 -0.0811702 -0.227825 -0.0840588 -0.220835 -0.0869186 -0.213758 -0.0897494 -0.206738 -0.0926091 -0.199719 -0.0954978 -0.1927 -0.0983864 -0.185623 -0.101188 -0.178603 -0.104106 -0.171555 -0.106994 -0.164565 -0.109825 -0.157488 -0.112743 -0.150439 -0.115631 -0.143391 -0.118491 -0.136372 -0.121409 -0.129295 -0.124268 -0.122246 -0.127186 -0.11514 -0.130075 -0.108092 -0.132963 -0.101015 -0.135852 -0.0939379 -0.13874 -0.0868319 -0.141658 -0.0797548 -0.144489 -0.0726199 -0.147377 -0.0655428 -0.150266zm-0.109912 -0.345421l0.557215 0.549098 -0.0213758 -0.00135765 -0.0211158 -0.000808813 -0.0209136 -0.00023109 -0.0206825 0.000317748 -0.0204514 0.000895472 -0.0201914 0.00141542 -0.0200181 0.00199315 -0.0197582 0.00254199 -0.0195271 0.00311971 -0.0193249 0.00366855 -0.0190649 0.00421738 -0.0188627 0.00476622 -0.0186316 0.00534395 -0.0184005 0.00589278 -0.0181694 0.00644162 -0.0179383 0.00699046 -0.0177072 0.00756818 -0.0174761 0.00811702 -0.0172739 0.00869474 -0.0170429 0.0092147 -0.0167829 0.00979242 -0.0165807 0.0103413 -0.0163496 0.010919 -0.0161185 0.0114678 -0.0159163 0.0120167 -0.0156563 0.0125655 -0.0154541 0.0131432 -0.0151941 0.0136921 -0.0149919 0.0142409 -0.0147608 0.0148186 -0.0145298 0.0153675 -0.0142987 0.0159163 0 0 0.0133454 -0.78218z"/>
  </g>
  <line class="fil3 str0" x1="42.4226" y1="16.28" x2="42.4226" y2= "19.0314" />
  <line class="fil3 str0" x1="41.6584" y1="16.28" x2="41.6584" y2= "19.0314" />
  <polygon class="fil0" points="24.4425,16.3821 24.4425,16.102 24.1645,16.102 24.1645,15.985 24.4425,15.985 24.4425,15.7071 24.5609,15.7071 24.5609,15.985 24.8388,15.985 24.8388,16.102 24.5609,16.102 24.5609,16.3821 "/>
  <polygon class="fil0" points="30.4825,16.6483 30.4825,16.5223 30.868,16.5223 30.868,16.6483 "/>
  <polygon class="fil0" points="6.71119,19.5921 6.71119,19.312 6.43322,19.312 6.43322,19.195 6.71119,19.195 6.71119,18.9171 6.82959,18.9171 6.82959,19.195 7.10753,19.195 7.10753,19.312 6.82959,19.312 6.82959,19.5921 "/>
  <polygon class="fil0" points="35.9067,27.6935 35.9067,27.4134 35.6287,27.4134 35.6287,27.2964 35.9067,27.2964 35.9067,27.0185 36.0251,27.0185 36.0251,27.2964 36.303,27.2964 36.303,27.4134 36.0251,27.4134 36.0251,27.6935 "/>
  <polygon class="fil0" points="56.6952,20.6621 56.6952,20.382 56.4172,20.382 56.4172,20.2651 56.6952,20.2651 56.6952,19.9871 56.8136,19.9871 56.8136,20.2651 57.0915,20.2651 57.0915,20.382 56.8136,20.382 56.8136,20.6621 "/>
  <polygon class="fil0" points="56.6187,15.5414 56.6187,15.2613 56.3408,15.2613 56.3408,15.1443 56.6187,15.1443 56.6187,14.8664 56.7371,14.8664 56.7371,15.1443 57.0151,15.1443 57.0151,15.2613 56.7371,15.2613 56.7371,15.5414 "/>
  <polygon class="fil0" points="36.3653,7.89858 36.3653,7.6185 36.0873,7.6185 36.0873,7.50151 36.3653,7.50151 36.3653,7.22357 36.4837,7.22357 36.4837,7.50151 36.7616,7.50151 36.7616,7.6185 36.4837,7.6185 36.4837,7.89858 "/>
  <path class="fil0" d="M15.1756 18.5132l0 -1.16712 0.51741 0c0.104077,0 0.183138,0.0105723 0.237213,0.0315148 0.054075,0.0209136 0.0972887,0.0578879 0.129901,0.110865 0.0323525,0.0532661 0.0483844,0.111963 0.0483844,0.17609 0,0.0828745 -0.0266331,0.152432 -0.0804481,0.209252 -0.0535261,0.0567903 -0.136401,0.0929269 -0.248363,0.10841 0.0410184,0.019556 0.0720133,0.0388519 0.0931869,0.0581479 0.0451202,0.0413073 0.0877851,0.0932157 0.128284,0.155177l0.202983 0.317661 -0.194289 0 -0.154368 -0.242933c-0.0450913,-0.0698468 -0.0823257,-0.123633 -0.111674,-0.160607 -0.0290884,-0.0372343 -0.0551726,-0.0633185 -0.0782527,-0.0779927 -0.023109,-0.0149342 -0.0464779,-0.0252754 -0.0703957,-0.0312549 -0.0176495,-0.00352412 -0.046189,-0.0054306 -0.0861386,-0.0054306l-0.179066 0 0 0.518218 -0.154368 0zm0.154368 -0.651904l0.332047 0c0.0703957,0 0.125828,-0.00733709 0.165489,-0.0220113 0.0399496,-0.0146742 0.0701357,-0.0380431 0.0907893,-0.0701068 0.0206247,-0.0320637 0.030966,-0.0668427 0.030966,-0.104626 0,-0.0551726 -0.0198448,-0.100553 -0.0600544,-0.136141 -0.0399496,-0.0356167 -0.103268,-0.0532661 -0.189956,-0.0532661l-0.369281 0 0 0.386151zm1.50217 0.651904l-0.143189 0 0 -0.913064c-0.034519,0.0329014 -0.0796392,0.0657739 -0.135621,0.0986464 -0.0562414,0.0329014 -0.106503,0.057628 -0.151075,0.0739198l0 -0.138307c0.0801592,-0.0377831 0.150266,-0.0834233 0.21032,-0.136978 0.0597944,-0.0537861 0.102459,-0.105695 0.127446,-0.156245l0.0921181 0 0 1.17203z"/>
  <path class="fil0" d="M41.0845 24.6172l0 -1.16712 0.43803 0c0.0891428,0 0.160607,0.01193 0.214422,0.0352989 0.054075,0.0236578 0.096191,0.0600544 0.126637,0.109248 0.0304172,0.0489332 0.0459002,0.100293 0.0459002,0.154079 0,0.049742 -0.0135765,0.0967399 -0.0407584,0.140762 -0.026893,0.0440226 -0.0679114,0.0796392 -0.122535,0.106792 0.0706556,0.0206536 0.124731,0.0559814 0.162774,0.105723 0.0380431,0.050002 0.0570502,0.108959 0.0570502,0.176899 0,0.0546238 -0.01167,0.105435 -0.034779,0.152432 -0.023109,0.0470267 -0.0516196,0.0831634 -0.0855898,0.108699 -0.0339702,0.0255643 -0.0766351,0.0445714 -0.127735,0.057628 -0.0510708,0.0130277 -0.11384,0.019556 -0.188309,0.019556l-0.445107 0zm0.154628 -0.67663l0.252436 0c0.0682003,0 0.117393,-0.00462179 0.147291,-0.0136054 0.0391119,-0.01167 0.0687491,-0.030966 0.088594,-0.0581479 0.0198159,-0.0271819 0.0298683,-0.0611232 0.0298683,-0.10191 0,-0.0385631 -0.0092147,-0.0728221 -0.0277019,-0.10217 -0.0187471,-0.0296083 -0.0453802,-0.0497131 -0.0796392,-0.0606032 -0.0344901,-0.0108612 -0.0937357,-0.0162918 -0.177708,-0.0162918l-0.23314 0 0 0.352729zm0 0.538843l0.29048 0c0.050002,0 0.0850698,-0.0018776 0.105175,-0.0054306 0.0355878,-0.00649939 0.0651961,-0.0171006 0.0891139,-0.0320637 0.0239178,-0.0146742 0.0434737,-0.0363966 0.0589856,-0.0646762 0.0151941,-0.0285107 0.0230801,-0.0611232 0.0230801,-0.0983575 0,-0.0434737 -0.0111212,-0.0812569 -0.0334213,-0.113581 -0.0222713,-0.0320637 -0.0532661,-0.0546238 -0.0929269,-0.0676804 -0.0394008,-0.0127677 -0.0964799,-0.019296 -0.17066,-0.019296l-0.269826 0 0 0.401085zm0.882069 -0.170371l0.143189 -0.0190071c0.0165807,0.081228 0.0445714,0.139665 0.0839722,0.175541 0.0396896,0.0358478 0.0877851,0.0537861 0.144575,0.0537861 0.0673915,0 0.124442,-0.0233689 0.17092,-0.0701068 0.046189,-0.0467379 0.069558,-0.104626 0.069558,-0.173635 0,-0.0657739 -0.0214624,-0.120109 -0.0643873,-0.162774 -0.0432137,-0.0426649 -0.0978375,-0.0641274 -0.164131,-0.0641274 -0.0271819,0 -0.0608632,0.0054306 -0.101102,0.0160318l0.0160318 -0.125828c0.00953244,0.00109768 0.0171295,0.00164651 0.023109,0.00164651 0.0608632,0 0.115747,-0.0160318 0.16468,-0.0478355 0.0489043,-0.0318037 0.0733709,-0.080968 0.0733709,-0.147291 0,-0.0524284 -0.0179383,-0.096191 -0.0535261,-0.130421 -0.0356167,-0.034519 -0.0815457,-0.0519085 -0.137787,-0.0519085 -0.0557215,0 -0.10217,0.0176495 -0.139145,0.0524573 -0.0372054,0.035039 -0.0611232,0.0877563 -0.0717244,0.157863l-0.143218 -0.0255354c0.0173895,-0.096191 0.0573391,-0.17066 0.1193,-0.223377 0.0622209,-0.0527173 0.139405,-0.0793504 0.231812,-0.0793504 0.0635785,0 0.122275,0.0138654 0.175801,0.0410473 0.0535261,0.0274419 0.0945734,0.0646762 0.123113,0.111934 0.0282507,0.0472867 0.0426649,0.0972887 0.0426649,0.150555 0,0.0502909 -0.0136054,0.096191 -0.0407873,0.137787 -0.027153,0.0413073 -0.0671026,0.0741797 -0.120109,0.0986464 0.069038,0.015743 0.122564,0.0489043 0.160896,0.0991663 0.0380431,0.050002 0.0570502,0.112772 0.0570502,0.188049 0,0.10191 -0.0369454,0.188309 -0.111414,0.259254 -0.0741797,0.0709156 -0.168204,0.106243 -0.281785,0.106243 -0.102459,0 -0.1875,-0.030446 -0.255181,-0.0915692 -0.0676515,-0.0608921 -0.106243,-0.139954 -0.115747,-0.237242z"/>
  <path class="fil0" d="M41.0904 11.6347l0 -1.16712 0.43803 0c0.0891428,0 0.160607,0.01193 0.214422,0.0352989 0.054075,0.0236578 0.096191,0.0600544 0.126637,0.109248 0.0304172,0.0489332 0.0459002,0.100293 0.0459002,0.154079 0,0.049742 -0.0135765,0.0967399 -0.0407584,0.140762 -0.026893,0.0440226 -0.0679114,0.0796392 -0.122535,0.106792 0.0706556,0.0206536 0.124731,0.0559814 0.162774,0.105723 0.0380431,0.050002 0.0570502,0.108959 0.0570502,0.176899 0,0.0546238 -0.01167,0.105435 -0.034779,0.152432 -0.023109,0.0470267 -0.0516196,0.0831634 -0.0855898,0.108699 -0.0339702,0.0255643 -0.0766351,0.0445714 -0.127735,0.057628 -0.0510708,0.0130277 -0.11384,0.019556 -0.188309,0.019556l-0.445107 0zm0.154628 -0.67663l0.252436 0c0.0682003,0 0.117393,-0.00462179 0.147291,-0.0136054 0.0391119,-0.01167 0.0687491,-0.030966 0.088594,-0.0581479 0.0198159,-0.0271819 0.0298683,-0.0611232 0.0298683,-0.10191 0,-0.0385631 -0.0092147,-0.0728221 -0.0277019,-0.10217 -0.0187471,-0.0296083 -0.0453802,-0.0497131 -0.0796392,-0.0606032 -0.0344901,-0.0108612 -0.0937357,-0.0162918 -0.177708,-0.0162918l-0.23314 0 0 0.352729zm0 0.538843l0.29048 0c0.050002,0 0.0850698,-0.0018776 0.105175,-0.0054306 0.0355878,-0.00649939 0.0651961,-0.0171006 0.0891139,-0.0320637 0.0239178,-0.0146742 0.0434737,-0.0363966 0.0589856,-0.0646762 0.0151941,-0.0285107 0.0230801,-0.0611232 0.0230801,-0.0983575 0,-0.0434737 -0.0111212,-0.0812569 -0.0334213,-0.113581 -0.0222713,-0.0320637 -0.0532661,-0.0546238 -0.0929269,-0.0676804 -0.0394008,-0.0127677 -0.0964799,-0.019296 -0.17066,-0.019296l-0.269826 0 0 0.401085zm1.63453 0l0 0.137787 -0.771492 0c-0.00106879,-0.034519 0.00436182,-0.0676515 0.0165807,-0.0994552 0.019556,-0.0527173 0.0510997,-0.104366 0.0942845,-0.155437 0.0435026,-0.0508108 0.105983,-0.109796 0.1875,-0.176639 0.126926,-0.104077 0.212776,-0.186403 0.257347,-0.247295 0.0445714,-0.0605743 0.0668427,-0.118202 0.0668427,-0.172277 0,-0.0567903 -0.0203648,-0.104626 -0.0608632,-0.143738 -0.0407584,-0.0388519 -0.0937357,-0.0584368 -0.158961,-0.0584368 -0.069038,0 -0.124182,0.0206536 -0.165489,0.0622209 -0.0415961,0.0413073 -0.0625097,0.0986464 -0.0630586,0.171757l-0.147291 -0.014963c0.0100813,-0.110028 0.0481244,-0.19374 0.113869,-0.251339 0.0657739,-0.057628 0.154339,-0.0864275 0.265233,-0.0864275 0.111963,0 0.200528,0.0312549 0.265753,0.0932157 0.065485,0.0622209 0.0980975,0.139116 0.0980975,0.230974 0,0.0467379 -0.00950356,0.0926669 -0.0287995,0.137787 -0.019036,0.0450913 -0.0508108,0.0926669 -0.0951222,0.14238 -0.0442825,0.050002 -0.117913,0.118491 -0.220922,0.205439 -0.0858787,0.0722733 -0.141022,0.121206 -0.165489,0.147002 -0.0244666,0.0255643 -0.0445714,0.0513597 -0.0606032,0.0774439l0.572582 0z"/>
 </g>
</svg>
