<?xml version="1.0" encoding="UTF-8" standalone="no"?>
<svg  width="1200" height="675" xmlns="http://www.w3.org/2000/svg" font-family="Liberation Sans,sans-serif" font-size="40" text-anchor="middle" fill="black">

   <defs>
<radialGradient id="gradient1">
 <stop offset="20%" stop-color="#fee"/>
 <stop offset="100%" stop-color="#f8f8ff"/>
</radialGradient>
   </defs>

<rect width="1200" height="675" x="0" y="0" fill="#f8f8f8"/>

   <g transform="translate(337.5,365)" stroke="gray" stroke-width="0.5" fill="none">
<circle fill="url(#gradient1)" r="225"/>
<circle r="168.75"/>
<circle r="112.5"/>
<circle r="56.25"/>

<path d="M-225,0 h450 M0,-225 v450"/>
   </g>

      <g transform="translate(337.5,365)" stroke-width="6" fill="none" stroke-linecap="round" stroke-linejoin="round">

   <g transform="rotate(-90)">

<g transform="scale(1,1)">

<path stroke="#2171b5" d="M
149.23,0 149.7,2.61 150.12,5.24 150.5,7.89 150.83,10.55 151.11,13.22 151.35,15.91 151.54,18.61 151.68,21.32 151.77,24.04 151.81,26.77 151.8,29.51 151.75,32.25 151.64,35.01 151.48,37.77 151.27,40.53 151.02,43.3 150.71,46.08 150.35,48.85 149.94,51.63 149.48,54.41 148.97,57.18 148.4,59.96 147.78,62.73 147.12,65.5 146.4,68.27 145.63,71.03 144.8,73.78 143.93,76.53 143,79.27 142.02,82 140.89,84.65 139.7,87.29 138.47,89.92 137.18,92.53 135.85,95.12 134.47,97.7 133.04,100.25 131.56,102.79 130.03,105.3 
128.46,107.79 126.84,110.26 125.17,112.7 123.45,115.12 121.69,117.52 119.89,119.89 118.03,122.23 116.13,124.54 114.19,126.82 112.2,129.07 110.17,131.3 108.09,133.49 105.98,135.64 103.82,137.77 101.61,139.86 99.37,141.91 97.08,143.93 94.76,145.92 92.39,147.86 89.99,149.77 87.55,151.64 84.99,153.32 82.4,154.97 79.77,156.56 77.12,158.12 74.44,159.63 71.72,161.09 68.98,162.51 66.21,163.88 63.42,165.21 60.6,166.48 57.75,167.71 54.88,168.89 51.98,170.02 49.06,171.1 46.12,172.13 43.16,173.11 40.18,174.04 37.18,174.92 34.16,175.75 
31.13,176.52 28.07,177.24 25,177.91 21.92,178.53 18.82,179.09 15.71,179.6 12.59,180.05 9.46,180.45 6.31,180.79 3.16,181.08 0,181.32 -3.16,181.21 -6.32,181.05 -9.48,180.83 -12.63,180.56 -15.77,180.23 -18.9,179.85 -22.03,179.41 -25.15,178.92 -28.25,178.38 -31.35,177.78 -34.43,177.12 -37.5,176.42 -40.55,175.66 -43.59,174.85 -46.62,173.98 -49.63,173.06 -52.61,172.09 -55.59,171.07 -58.54,170 -61.47,168.88 -64.38,167.71 -67.26,166.48 -70.13,165.21 -72.97,163.89 -75.78,162.52 -78.57,161.1 -81.34,159.63 -84.07,158.12 -86.78,156.55 
-89.46,154.95 -91.89,152.93 -94.28,150.89 -96.63,148.8 -98.94,146.68 -101.19,144.52 -103.41,142.33 -105.58,140.11 -107.7,137.85 -109.78,135.56 -111.81,133.24 -113.79,130.9 -115.72,128.52 -117.61,126.12 -119.44,123.69 -121.23,121.23 -122.97,118.75 -124.66,116.25 -126.3,113.72 -127.89,111.17 -129.43,108.61 -130.92,106.02 -132.36,103.41 -133.74,100.78 -135.08,98.14 -136.36,95.48 -137.6,92.81 -138.78,90.12 -139.91,87.42 -140.99,84.71 -142.01,81.99 -142.39,78.93 -142.71,75.88 -142.96,72.84 -143.15,69.82 -143.28,66.81 -143.34,63.82 -143.35,60.85 -143.3,57.9 -143.18,54.96 
-143.01,52.05 -142.79,49.17 -142.5,46.3 -142.16,43.46 -141.76,40.65 -141.31,37.86 -140.81,35.11 -140.25,32.38 -139.64,29.68 -138.98,27.02 -138.27,24.38 -137.51,21.78 -136.7,19.21 -135.85,16.68 -134.94,14.18 -134,11.72 -133,9.3 -131.97,6.92 -130.89,4.57 -129.77,2.27 -128.61,0 -127.64,-2.23 -126.63,-4.42 -125.59,-6.58 -124.5,-8.71 -123.38,-10.79 -122.23,-12.85 -121.04,-14.86 -119.82,-16.84 -118.57,-18.78 -117.29,-20.68 -115.98,-22.54 -114.63,-24.37 -113.26,-26.15 -111.87,-27.89 -110.44,-29.59 -109,-31.25 -107.52,-32.87 -106.03,-34.45 -104.51,-35.99 
-102.97,-37.48 -101.42,-38.93 -99.84,-40.34 -98.24,-41.7 -96.63,-43.02 -95,-44.3 -93.36,-45.54 -91.71,-46.73 -90.04,-47.87 -88.35,-48.98 -86.66,-50.03 -85.54,-51.4 -84.39,-52.74 -83.23,-54.05 -82.04,-55.34 -80.84,-56.6 -79.62,-57.84 -78.37,-59.06 -77.11,-60.25 -75.84,-61.41 -74.54,-62.55 -73.23,-63.66 -71.9,-64.74 -70.56,-65.8 -69.2,-66.83 -67.83,-67.83 -66.44,-68.8 -65.04,-69.75 -63.63,-70.67 -62.21,-71.56 -60.77,-72.42 -59.32,-73.26 -57.87,-74.06 -56.4,-74.84 -54.92,-75.59 -53.43,-76.31 -51.94,-77 -50.44,-77.67 -48.93,-78.3 -47.41,-78.91 
-45.89,-79.48 -44.59,-80.44 -43.26,-81.37 -41.92,-82.28 -40.56,-83.17 -39.19,-84.04 -37.79,-84.88 -36.38,-85.7 -34.95,-86.5 -33.5,-87.27 -32.04,-88.02 -30.56,-88.74 -29.06,-89.44 -27.55,-90.12 -26.03,-90.77 -24.49,-91.39 -22.93,-91.99 -21.37,-92.56 -19.79,-93.1 -18.2,-93.62 -16.59,-94.11 -14.98,-94.57 -13.35,-95 -11.71,-95.41 -10.07,-95.79 -8.41,-96.14 -6.75,-96.46 -5.07,-96.75 -3.39,-97.01 -1.7,-97.25 0,-97.45 1.71,-97.83 3.43,-98.18 5.16,-98.5 6.91,-98.78 8.66,-99.04 10.43,-99.27 12.21,-99.46 14,-99.62 15.8,-99.75 
17.61,-99.85 19.42,-99.91 21.24,-99.94 23.07,-99.94 24.91,-99.9 26.75,-99.83 28.6,-99.73 30.45,-99.59 32.3,-99.42 34.16,-99.21 36.02,-98.97 37.89,-98.7 39.75,-98.39 41.62,-98.04 43.48,-97.66 45.34,-97.24 47.21,-96.79 49.07,-96.3 50.93,-95.78 52.78,-95.22 54.63,-94.62 56.57,-94.14 58.5,-93.62 60.44,-93.06 62.37,-92.46 64.3,-91.83 66.22,-91.15 68.15,-90.43 70.06,-89.68 71.98,-88.88 73.88,-88.05 75.78,-87.17 77.67,-86.26 79.55,-85.31 81.42,-84.31 83.28,-83.28 85.13,-82.21 86.97,-81.1 88.79,-79.95 90.6,-78.76 
92.39,-77.53 94.17,-76.26 95.94,-74.96 97.69,-73.61 99.41,-72.23 101.12,-70.81 102.82,-69.35 104.49,-67.85 106.14,-66.32 107.76,-64.75 109.37,-63.14 

"/>

<path stroke="#6baed6" d="M
140.44,0 140.92,2.46 141.35,4.94 141.74,7.43 142.09,9.94 142.39,12.46 142.65,14.99 142.86,17.54 143.03,20.1 143.15,22.67 143.23,25.25 143.25,27.85 143.24,30.45 143.17,33.05 143.06,35.67 142.89,38.29 142.68,40.91 142.43,43.54 142.12,46.18 141.77,48.81 141.36,51.45 140.91,54.09 140.41,56.73 139.86,59.36 139.25,62 138.6,64.63 137.9,67.26 137.15,69.88 136.36,72.5 135.51,75.11 134.61,77.72 133.51,80.22 132.37,82.72 131.19,85.19 129.95,87.65 128.67,90.1 127.35,92.52 125.98,94.93 124.56,97.32 123.1,99.69 
121.6,102.03 120.05,104.35 118.45,106.65 116.81,108.93 115.13,111.18 113.41,113.41 111.64,115.61 109.83,117.78 107.98,119.92 106.09,122.04 104.15,124.13 102.18,126.18 100.16,128.2 98.11,130.2 96.02,132.16 93.89,134.08 91.72,135.97 89.51,137.83 87.26,139.65 84.98,141.44 82.67,143.18 80.2,144.69 77.71,146.15 75.19,147.57 72.65,148.95 70.08,150.28 67.48,151.57 64.87,152.81 62.22,154.01 59.56,155.16 56.88,156.27 54.17,157.33 51.45,158.34 48.71,159.31 45.94,160.23 43.17,161.1 40.37,161.92 37.56,162.69 34.74,163.42 31.9,164.1 
29.04,164.72 26.18,165.3 23.31,165.83 20.42,166.3 17.52,166.73 14.62,167.11 11.71,167.43 8.79,167.71 5.86,167.93 2.93,168.11 0,168.23 -2.93,168.01 -5.86,167.75 -8.77,167.43 -11.68,167.07 -14.58,166.65 -17.47,166.18 -20.34,165.67 -23.2,165.1 -26.05,164.49 -28.89,163.82 -31.7,163.11 -34.51,162.35 -37.29,161.54 -40.06,160.68 -42.81,159.77 -45.54,158.82 -48.25,157.82 -50.94,156.78 -53.61,155.69 -56.25,154.55 -58.87,153.37 -61.47,152.15 -64.04,150.88 -66.59,149.56 -69.11,148.21 -71.6,146.81 -74.07,145.37 -76.51,143.89 -78.92,142.37 
-81.3,140.81 -83.41,138.82 -85.48,136.8 -87.51,134.75 -89.49,132.67 -91.42,130.57 -93.31,128.43 -95.15,126.27 -96.95,124.09 -98.7,121.88 -100.4,119.65 -102.05,117.4 -103.66,115.12 -105.22,112.83 -106.72,110.52 -108.18,108.18 -109.6,105.84 -110.96,103.47 -112.27,101.09 -113.54,98.7 -114.75,96.29 -115.92,93.87 -117.03,91.44 -118.1,89 -119.12,86.55 -120.09,84.09 -121.01,81.62 -121.88,79.15 -122.7,76.67 -123.47,74.19 -124.19,71.7 -124.44,68.98 -124.64,66.27 -124.78,63.58 -124.86,60.9 -124.89,58.24 -124.86,55.59 -124.78,52.97 -124.65,50.36 -124.46,47.78 
-124.22,45.21 -123.93,42.67 -123.59,40.16 -123.2,37.67 -122.76,35.2 -122.27,32.76 -121.74,30.35 -121.16,27.97 -120.53,25.62 -119.86,23.3 -119.14,21.01 -118.39,18.75 -117.59,16.53 -116.74,14.33 -115.86,12.18 -114.94,10.06 -113.98,7.97 -112.98,5.92 -111.95,3.91 -110.88,1.94 -109.77,0 -108.89,-1.9 -107.97,-3.77 -107.02,-5.61 -106.04,-7.42 -105.03,-9.19 -103.99,-10.93 -102.92,-12.64 -101.83,-14.31 -100.7,-15.95 -99.56,-17.55 -98.38,-19.12 -97.18,-20.66 -95.96,-22.15 -94.72,-23.62 -93.45,-25.04 -92.17,-26.43 -90.86,-27.78 -89.54,-29.09 -88.2,-30.37 
-86.84,-31.61 -85.46,-32.81 -84.07,-33.97 -82.67,-35.09 -81.25,-36.17 -79.82,-37.22 -78.37,-38.23 -76.92,-39.19 -75.46,-40.12 -73.99,-41.01 -72.51,-41.86 -71.6,-43.02 -70.66,-44.16 -69.71,-45.27 -68.75,-46.37 -67.76,-47.45 -66.76,-48.51 -65.75,-49.54 -64.71,-50.56 -63.66,-51.55 -62.6,-52.53 -61.52,-53.48 -60.43,-54.41 -59.33,-55.32 -58.21,-56.21 -57.08,-57.08 -55.93,-57.92 -54.78,-58.74 -53.61,-59.54 -52.43,-60.31 -51.24,-61.06 -50.04,-61.79 -48.83,-62.5 -47.61,-63.18 -46.38,-63.84 -45.15,-64.48 -43.9,-65.09 -42.65,-65.68 -41.39,-66.24 -40.13,-66.78 
-38.85,-67.3 -37.8,-68.2 -36.73,-69.08 -35.64,-69.94 -34.53,-70.79 -33.4,-71.62 -32.25,-72.43 -31.08,-73.23 -29.9,-74 -28.7,-74.76 -27.48,-75.49 -26.24,-76.21 -24.99,-76.91 -23.72,-77.58 -22.43,-78.24 -21.13,-78.87 -19.82,-79.48 -18.49,-80.07 -17.14,-80.64 -15.78,-81.19 -14.41,-81.71 -13.02,-82.21 -11.62,-82.68 -10.21,-83.13 -8.78,-83.56 -7.35,-83.96 -5.9,-84.34 -4.44,-84.69 -2.97,-85.02 -1.49,-85.32 0,-85.6 1.5,-86.16 3.03,-86.69 4.57,-87.19 6.13,-87.66 7.71,-88.11 9.31,-88.53 10.92,-88.92 12.55,-89.28 14.19,-89.61 
15.85,-89.91 17.53,-90.18 19.22,-90.42 20.92,-90.63 22.64,-90.8 24.37,-90.94 26.11,-91.05 27.86,-91.13 29.62,-91.17 31.39,-91.18 33.18,-91.15 34.97,-91.09 36.76,-90.99 38.57,-90.86 40.38,-90.7 42.2,-90.5 44.02,-90.26 45.85,-89.98 47.68,-89.67 49.51,-89.33 51.35,-88.94 53.21,-88.56 55.07,-88.13 56.94,-87.67 58.8,-87.17 60.66,-86.63 62.52,-86.06 64.39,-85.44 66.24,-84.79 68.1,-84.09 69.95,-83.36 71.79,-82.59 73.63,-81.78 75.47,-80.93 77.29,-80.04 79.11,-79.11 80.92,-78.14 82.72,-77.14 84.51,-76.09 86.29,-75.01 
88.05,-73.88 89.8,-72.72 91.54,-71.52 93.26,-70.28 94.97,-69 96.66,-67.68 98.33,-66.33 99.99,-64.93 101.63,-63.5 103.24,-62.04 104.84,-60.53 

"/>

<path stroke="#9ecae1" d="
M122.13,0 122.6,2.14 123.02,4.3 123.42,6.47 123.77,8.65 124.08,10.86 124.35,13.07 124.59,15.3 124.78,17.54 124.93,19.79 125.05,22.05 125.12,24.32 125.15,26.6 125.14,28.89 125.09,31.19 124.99,33.49 124.85,35.8 124.67,38.12 124.45,40.44 124.18,42.76 123.87,45.09 123.52,47.41 123.12,49.74 122.68,52.08 122.2,54.41 121.67,56.73 121.1,59.06 120.48,61.39 119.82,63.71 119.11,66.02 118.36,68.33 117.45,70.57 116.5,72.8 115.51,75.01 114.47,77.21 113.39,79.4 112.28,81.57 111.12,83.73 109.92,85.88 108.67,88 
107.39,90.11 106.07,92.2 104.7,94.28 103.3,96.33 101.86,98.36 100.37,100.37 98.85,102.36 97.29,104.33 95.69,106.27 94.05,108.19 92.37,110.09 90.66,111.96 88.91,113.8 87.12,115.62 85.3,117.4 83.44,119.16 81.54,120.89 79.61,122.59 77.65,124.26 75.65,125.9 73.61,127.5 71.47,128.93 69.29,130.32 67.09,131.67 64.86,132.99 62.61,134.27 60.33,135.51 58.03,136.71 55.7,137.87 53.35,138.99 50.98,140.08 48.59,141.12 46.18,142.12 43.74,143.08 41.29,144 38.82,144.87 36.33,145.71 33.82,146.5 31.3,147.24 28.76,147.95 
26.2,148.61 23.63,149.22 21.05,149.8 18.46,150.32 15.85,150.8 13.23,151.24 10.6,151.63 7.96,151.98 5.32,152.28 2.66,152.53 0,152.74 -2.66,152.63 -5.32,152.47 -7.98,152.27 -10.63,152.02 -13.27,151.72 -15.91,151.38 -18.54,150.99 -21.16,150.56 -23.77,150.08 -26.37,149.56 -28.96,148.99 -31.54,148.38 -34.1,147.72 -36.66,147.02 -39.19,146.27 -41.72,145.48 -44.22,144.65 -46.71,143.77 -49.19,142.85 -51.64,141.89 -54.08,140.89 -56.5,139.84 -58.9,138.75 -61.27,137.62 -63.63,136.46 -65.96,135.25 -68.27,134 -70.56,132.71 -72.83,131.38 
-75.06,130.01 -77.05,128.23 -79,126.42 -80.9,124.58 -82.77,122.71 -84.6,120.82 -86.39,118.9 -88.13,116.95 -89.83,114.98 -91.5,112.99 -93.12,110.97 -94.69,108.93 -96.23,106.87 -97.72,104.79 -99.17,102.69 -100.57,100.57 -101.93,98.44 -103.25,96.28 -104.52,94.11 -105.75,91.93 -106.94,89.73 -108.08,87.52 -109.17,85.3 -110.23,83.06 -111.23,80.82 -112.19,78.56 -113.11,76.3 -113.98,74.02 -114.81,71.74 -115.6,69.46 -116.33,67.17 -116.43,64.54 -116.47,61.93 -116.46,59.34 -116.39,56.77 -116.26,54.21 -116.09,51.69 -115.86,49.18 -115.58,46.7 -115.25,44.24 
-114.86,41.81 -114.43,39.4 -113.95,37.03 -113.42,34.68 -112.85,32.36 -112.23,30.07 -111.56,27.82 -110.85,25.59 -110.1,23.4 -109.3,21.25 -108.46,19.13 -107.59,17.04 -106.67,14.99 -105.71,12.98 -104.72,11.01 -103.69,9.07 -102.63,7.18 -101.53,5.32 -100.4,3.51 -99.24,1.73 -98.04,0 -97.09,-1.69 -96.1,-3.36 -95.09,-4.98 -94.06,-6.58 -92.99,-8.14 -91.9,-9.66 -90.79,-11.15 -89.65,-12.6 -88.49,-14.01 -87.3,-15.39 -86.1,-16.74 -84.88,-18.04 -83.63,-19.31 -82.37,-20.54 -81.1,-21.73 -79.8,-22.88 -78.49,-24 -77.17,-25.07 -75.83,-26.11 
-74.48,-27.11 -73.12,-28.07 -71.75,-28.99 -70.37,-29.87 -68.98,-30.71 -67.58,-31.51 -66.18,-32.28 -64.77,-33 -63.35,-33.68 -61.93,-34.33 -60.51,-34.94 -59.68,-35.86 -58.83,-36.76 -57.97,-37.65 -57.09,-38.51 -56.21,-39.36 -55.31,-40.19 -54.4,-40.99 -53.48,-41.78 -52.55,-42.55 -51.6,-43.3 -50.65,-44.03 -49.69,-44.74 -48.72,-45.43 -47.74,-46.1 -46.75,-46.75 -45.75,-47.38 -44.75,-47.98 -43.73,-48.57 -42.71,-49.14 -41.69,-49.68 -40.66,-50.21 -39.62,-50.71 -38.58,-51.2 -37.53,-51.66 -36.48,-52.1 -35.43,-52.52 -34.37,-52.92 -33.31,-53.3 -32.24,-53.66 
-31.17,-54 -30.34,-54.73 -29.49,-55.46 -28.62,-56.17 -27.74,-56.87 -26.84,-57.55 -25.92,-58.22 -24.99,-58.88 -24.05,-59.52 -23.09,-60.14 -22.11,-60.75 -21.12,-61.35 -20.12,-61.93 -19.1,-62.49 -18.07,-63.03 -17.03,-63.56 -15.98,-64.07 -14.91,-64.57 -13.83,-65.04 -12.73,-65.5 -11.63,-65.94 -10.51,-66.36 -9.38,-66.76 -8.24,-67.14 -7.1,-67.51 -5.94,-67.85 -4.77,-68.17 -3.59,-68.47 -2.4,-68.76 -1.2,-69.02 0,-69.26 1.22,-69.73 2.45,-70.19 3.7,-70.62 4.97,-71.03 6.25,-71.41 7.54,-71.78 8.85,-72.12 10.18,-72.43 11.52,-72.72 
12.87,-72.99 14.23,-73.23 15.61,-73.44 17,-73.63 18.4,-73.8 19.81,-73.93 21.23,-74.04 22.66,-74.12 24.1,-74.18 25.55,-74.21 27.01,-74.2 28.47,-74.17 29.94,-74.12 31.42,-74.03 32.91,-73.91 34.4,-73.77 35.89,-73.59 37.39,-73.39 38.9,-73.15 40.4,-72.89 41.91,-72.59 43.46,-72.34 45.02,-72.05 46.59,-71.74 48.15,-71.39 49.72,-71 51.29,-70.59 52.85,-70.14 54.42,-69.66 55.99,-69.14 57.55,-68.59 59.12,-68.01 60.68,-67.39 62.24,-66.74 63.79,-66.05 65.34,-65.34 66.88,-64.58 68.41,-63.8 69.94,-62.97 71.46,-62.12 
72.97,-61.23 74.47,-60.31 75.97,-59.35 77.45,-58.36 78.92,-57.34 80.37,-56.28 81.82,-55.19 83.25,-54.06 84.66,-52.9 86.06,-51.71 87.45,-50.49 

"/>

<path stroke="#fc9272" d="M
99.38,0 99.91,1.74 100.41,3.51 100.88,5.29 101.31,7.08 101.72,8.9 102.09,10.73 102.43,12.58 102.74,14.44 103.01,16.31 103.25,18.21 103.45,20.11 103.62,22.02 103.75,23.95 103.85,25.89 103.91,27.84 103.93,29.8 103.92,31.77 103.86,33.75 103.78,35.73 103.65,37.73 103.49,39.72 103.28,41.73 103.04,43.74 102.76,45.75 102.44,47.77 102.09,49.79 101.69,51.81 101.25,53.84 100.77,55.86 100.26,57.88 99.63,59.87 98.97,61.84 98.27,63.82 97.53,65.78 96.75,67.75 95.93,69.7 95.08,71.65 94.18,73.58 93.25,75.51 
92.27,77.43 91.26,79.33 90.21,81.23 89.12,83.11 88,84.98 86.83,86.83 85.63,88.67 84.39,90.5 83.11,92.3 81.79,94.09 80.44,95.87 79.05,97.62 77.62,99.35 76.16,101.07 74.66,102.76 73.13,104.43 71.55,106.08 69.95,107.71 68.31,109.31 66.63,110.89 64.92,112.44 63.04,113.72 61.13,114.97 59.2,116.19 57.25,117.38 55.27,118.53 53.27,119.65 51.25,120.74 49.21,121.79 47.14,122.81 45.06,123.79 42.95,124.74 40.83,125.65 38.68,126.53 36.52,127.37 34.34,128.17 32.15,128.93 29.93,129.66 27.71,130.35 25.46,131 
23.21,131.61 20.94,132.18 18.65,132.72 16.36,133.21 14.05,133.67 11.73,134.08 9.4,134.46 7.06,134.79 4.72,135.08 2.36,135.33 0,135.55 -2.36,135.17 -4.71,134.76 -7.04,134.31 -9.36,133.81 -11.66,133.28 -13.95,132.71 -16.22,132.09 -18.47,131.44 -20.71,130.75 -22.93,130.03 -25.13,129.26 -27.3,128.46 -29.46,127.62 -31.6,126.75 -33.72,125.83 -35.81,124.89 -37.88,123.91 -39.93,122.9 -41.96,121.85 -43.96,120.77 -45.93,119.65 -47.88,118.51 -49.8,117.33 -51.7,116.12 -53.57,114.88 -55.41,113.62 -57.23,112.32 -59.02,110.99 -60.77,109.64 
-62.5,108.26 -63.89,106.33 -65.23,104.39 -66.52,102.44 -67.77,100.47 -68.97,98.49 -70.12,96.51 -71.22,94.51 -72.27,92.5 -73.27,90.48 -74.23,88.46 -75.13,86.43 -75.99,84.4 -76.81,82.36 -77.57,80.33 -78.29,78.29 -78.96,76.25 -79.58,74.21 -80.15,72.17 -80.68,70.13 -81.16,68.1 -81.6,66.08 -81.99,64.06 -82.33,62.04 -82.63,60.04 -82.89,58.04 -83.1,56.05 -83.27,54.07 -83.39,52.11 -83.47,50.15 -83.51,48.21 -83.2,46.12 -82.85,44.05 -82.46,42.01 -82.02,40 -81.53,38.02 -81,36.06 -80.43,34.14 -79.81,32.25 -79.15,30.38 
-78.46,28.56 -77.72,26.76 -76.94,25 -76.13,23.28 -75.28,21.59 -74.4,19.94 -73.48,18.32 -72.53,16.74 -71.55,15.21 -70.53,13.71 -69.49,12.25 -68.41,10.84 -67.31,9.46 -66.18,8.13 -65.03,6.83 -63.85,5.59 -62.64,4.38 -61.42,3.22 -60.17,2.1 -58.91,1.03 -57.62,0 -56.81,-0.99 -55.97,-1.95 -55.12,-2.89 -54.25,-3.79 -53.37,-4.67 -52.48,-5.52 -51.57,-6.33 -50.65,-7.12 -49.72,-7.87 -48.78,-8.6 -47.82,-9.3 -46.86,-9.96 -45.89,-10.6 -44.92,-11.2 -43.93,-11.77 -42.94,-12.31 -41.95,-12.82 -40.95,-13.3 -39.94,-13.75 
-38.94,-14.17 -37.93,-14.56 -36.92,-14.92 -35.91,-15.24 -34.9,-15.54 -33.89,-15.8 -32.88,-16.03 -31.87,-16.24 -30.87,-16.41 -29.87,-16.56 -28.87,-16.67 -28.39,-17.06 -27.9,-17.43 -27.4,-17.8 -26.9,-18.15 -26.4,-18.49 -25.89,-18.81 -25.38,-19.13 -24.87,-19.43 -24.36,-19.72 -23.84,-20 -23.32,-20.27 -22.8,-20.52 -22.27,-20.77 -21.75,-21 -21.22,-21.22 -20.69,-21.43 -20.16,-21.62 -19.63,-21.8 -19.1,-21.98 -18.57,-22.14 -18.04,-22.28 -17.52,-22.42 -16.99,-22.54 -16.46,-22.66 -15.94,-22.76 -15.41,-22.85 -14.89,-22.93 -14.37,-23 -13.85,-23.05 
-13.34,-23.1 -13.06,-23.57 -12.78,-24.03 -12.48,-24.5 -12.17,-24.95 -11.85,-25.41 -11.52,-25.86 -11.17,-26.31 -10.81,-26.76 -10.44,-27.19 -10.06,-27.63 -9.66,-28.06 -9.25,-28.48 -8.84,-28.9 -8.41,-29.31 -7.96,-29.72 -7.51,-30.12 -7.04,-30.51 -6.57,-30.9 -6.08,-31.27 -5.58,-31.64 -5.07,-32.01 -4.55,-32.36 -4.02,-32.71 -3.47,-33.04 -2.92,-33.37 -2.36,-33.69 -1.78,-34 -1.2,-34.29 -0.6,-34.58 0,-34.86 0.62,-35.47 1.26,-36.07 1.92,-36.66 2.6,-37.23 3.31,-37.79 4.03,-38.34 4.77,-38.88 5.54,-39.4 6.32,-39.9 
7.12,-40.39 7.94,-40.87 8.78,-41.32 9.64,-41.76 10.52,-42.19 11.41,-42.59 12.32,-42.98 13.25,-43.34 14.2,-43.69 15.16,-44.02 16.13,-44.32 17.12,-44.61 18.13,-44.88 19.15,-45.12 20.19,-45.34 21.23,-45.54 22.3,-45.71 23.37,-45.87 24.46,-45.99 25.55,-46.1 26.66,-46.18 27.8,-46.26 28.94,-46.32 30.1,-46.35 31.26,-46.35 32.44,-46.33 33.62,-46.27 34.81,-46.2 36.01,-46.09 37.22,-45.96 38.43,-45.8 39.65,-45.61 40.87,-45.39 42.09,-45.14 43.32,-44.86 44.56,-44.56 45.79,-44.22 47.03,-43.86 48.27,-43.46 49.51,-43.04 
50.75,-42.58 51.98,-42.09 53.22,-41.58 54.45,-41.03 55.68,-40.46 56.91,-39.85 58.13,-39.21 59.35,-38.54 60.56,-37.84 61.77,-37.11 62.96,-36.35 

"/>

<path stroke="#a50f15" d="M
86.45,0 86.96,1.52 87.44,3.05 87.89,4.61 88.32,6.18 88.71,7.76 89.08,9.36 89.42,10.98 89.73,12.61 90.01,14.26 90.26,15.92 90.48,17.59 90.67,19.27 90.83,20.97 90.95,22.68 91.05,24.4 91.11,26.12 91.13,27.86 91.13,29.61 91.09,31.36 91.02,33.13 90.91,34.9 90.77,36.67 90.6,38.46 90.39,40.24 90.14,42.03 89.86,43.83 89.55,45.63 89.2,47.43 88.81,49.23 88.39,51.03 87.85,52.79 87.28,54.54 86.67,56.28 86.03,58.03 85.35,59.76 84.64,61.49 83.89,63.22 83.11,64.94 82.3,66.65 
81.45,68.35 80.57,70.04 79.65,71.72 78.7,73.39 77.71,75.05 76.69,76.69 75.64,78.33 74.55,79.95 73.43,81.55 72.27,83.14 71.09,84.72 69.87,86.28 68.61,87.82 67.32,89.34 66.01,90.85 64.66,92.34 63.27,93.8 61.86,95.25 60.41,96.68 58.93,98.08 57.43,99.47 55.8,100.66 54.14,101.82 52.46,102.96 50.76,104.07 49.03,105.15 47.28,106.2 45.51,107.22 43.72,108.21 41.91,109.18 40.08,110.11 38.22,111.01 36.35,111.88 34.46,112.72 32.55,113.53 30.63,114.31 28.68,115.05 26.72,115.76 24.75,116.43 22.76,117.08 
20.75,117.68 18.73,118.26 16.7,118.8 14.65,119.3 12.59,119.77 10.52,120.2 8.43,120.6 6.34,120.96 4.24,121.28 2.12,121.57 0,121.82 -2.12,121.56 -4.23,121.26 -6.34,120.92 -8.43,120.55 -10.51,120.14 -12.58,119.69 -14.64,119.21 -16.68,118.69 -18.71,118.14 -20.73,117.55 -22.73,116.93 -24.72,116.28 -26.69,115.59 -28.64,114.87 -30.58,114.12 -32.5,113.33 -34.4,112.51 -36.28,111.66 -38.14,110.78 -39.99,109.86 -41.81,108.92 -43.61,107.95 -45.39,106.94 -47.15,105.91 -48.89,104.85 -50.61,103.76 -52.3,102.64 -53.97,101.5 -55.61,100.32 
-57.23,99.13 -58.51,97.37 -59.74,95.6 -60.93,93.82 -62.07,92.03 -63.17,90.22 -64.23,88.41 -65.24,86.58 -66.21,84.75 -67.14,82.91 -68.02,81.06 -68.86,79.21 -69.65,77.36 -70.4,75.5 -71.11,73.63 -71.77,71.77 -72.39,69.91 -72.97,68.04 -73.5,66.18 -73.99,64.32 -74.44,62.47 -74.85,60.61 -75.22,58.77 -75.54,56.92 -75.82,55.09 -76.07,53.26 -76.27,51.44 -76.43,49.63 -76.55,47.83 -76.63,46.05 -76.68,44.27 -76.4,42.35 -76.08,40.45 -75.71,38.58 -75.31,36.73 -74.86,34.91 -74.37,33.11 -73.84,31.35 -73.28,29.61 -72.68,27.9 
-72.03,26.22 -71.36,24.57 -70.65,22.95 -69.9,21.37 -69.12,19.82 -68.31,18.3 -67.46,16.82 -66.59,15.37 -65.69,13.96 -64.75,12.59 -63.79,11.25 -62.81,9.95 -61.79,8.68 -60.76,7.46 -59.7,6.27 -58.61,5.13 -57.51,4.02 -56.38,2.95 -55.24,1.93 -54.08,0.94 -52.9,0 -52.09,-0.91 -51.27,-1.79 -50.43,-2.64 -49.58,-3.47 -48.72,-4.26 -47.84,-5.03 -46.95,-5.77 -46.06,-6.47 -45.15,-7.15 -44.23,-7.8 -43.3,-8.42 -42.37,-9.01 -41.43,-9.56 -40.48,-10.09 -39.53,-10.59 -38.57,-11.06 -37.61,-11.5 -36.64,-11.91 -35.67,-12.28 
-34.7,-12.63 -33.73,-12.95 -32.76,-13.24 -31.79,-13.49 -30.82,-13.72 -29.85,-13.92 -28.89,-14.09 -27.93,-14.23 -26.97,-14.34 -26.02,-14.42 -25.07,-14.47 -24.63,-14.8 -24.19,-15.12 -23.75,-15.42 -23.3,-15.71 -22.85,-16 -22.39,-16.27 -21.94,-16.53 -21.48,-16.78 -21.02,-17.02 -20.56,-17.25 -20.09,-17.47 -19.63,-17.67 -19.16,-17.87 -18.7,-18.06 -18.23,-18.23 -17.76,-18.39 -17.3,-18.55 -16.83,-18.69 -16.36,-18.82 -15.89,-18.94 -15.43,-19.05 -14.96,-19.15 -14.5,-19.24 -14.04,-19.32 -13.58,-19.39 -13.12,-19.45 -12.66,-19.5 -12.21,-19.54 -11.76,-19.57 
-11.31,-19.59 -11.05,-19.93 -10.78,-20.28 -10.5,-20.62 -10.22,-20.95 -9.93,-21.28 -9.62,-21.61 -9.31,-21.94 -8.99,-22.26 -8.67,-22.57 -8.33,-22.88 -7.99,-23.19 -7.63,-23.49 -7.27,-23.79 -6.9,-24.08 -6.53,-24.36 -6.14,-24.64 -5.75,-24.91 -5.35,-25.18 -4.94,-25.44 -4.53,-25.69 -4.11,-25.94 -3.68,-26.18 -3.24,-26.41 -2.8,-26.64 -2.35,-26.85 -1.89,-27.06 -1.43,-27.27 -0.96,-27.46 -0.48,-27.65 0,-27.82 0.49,-28.34 1.01,-28.85 1.54,-29.34 2.09,-29.83 2.65,-30.31 3.23,-30.78 3.83,-31.23 4.45,-31.68 5.09,-32.11 
5.74,-32.53 6.4,-32.93 7.08,-33.32 7.78,-33.7 8.49,-34.07 9.22,-34.42 9.96,-34.75 10.72,-35.07 11.49,-35.37 12.28,-35.66 13.08,-35.93 13.89,-36.18 14.71,-36.41 15.55,-36.63 16.4,-36.83 17.26,-37.01 18.13,-37.17 19.01,-37.31 19.9,-37.43 20.81,-37.53 21.72,-37.62 22.7,-37.77 23.69,-37.91 24.69,-38.02 25.7,-38.11 26.73,-38.17 27.76,-38.21 28.81,-38.23 29.86,-38.22 30.92,-38.18 31.99,-38.12 33.06,-38.03 34.15,-37.92 35.23,-37.78 36.33,-37.62 37.43,-37.43 38.53,-37.21 39.63,-36.96 40.74,-36.69 41.86,-36.38 
42.97,-36.06 44.08,-35.7 45.2,-35.31 46.31,-34.9 47.43,-34.46 48.54,-33.99 49.65,-33.49 50.76,-32.96 51.86,-32.41 52.96,-31.82 54.06,-31.21 
"/>

</g></g></g>

<g font-size="35" transform="translate(337.5,365)">
<text x="0" y="-239">Jan. ►</text>
<text x="0" y="267" transform="rotate(-90)">◄ April</text>
<text x="0" y="267">◄ July</text>
<text x="0" y="-239" transform="rotate(-90)">Oct. ►</text>
</g>

<g text-anchor="start" transform="translate(725,231)" font-size="40">

<path d="M0,0 h60 v13.33 h-60 z" fill="#2171b5"/>
<path d="M0,60 h60 v13.33 h-60 z" fill="#6baed6"/>
<path d="M0,120 h60 v13.33 h-60 z" fill="#9ecae1"/>
<path d="M0,180 h60 v13.33 h-60 z" fill="#fc9272"/>
<path d="M0,240 h60 v13.33 h-60 z" fill="#a50f15"/>

<text x="80" y="22.22" fill="black">1980</text>
<text x="80" y="82.22" fill="black">1990</text>
<text x="80" y="142.22" fill="black">2000</text>
<text x="80" y="202.22" fill="black">2010</text>
<text x="80" y="262.22" fill="black">2025</text>

</g>

<text x="600" y="66" font-size="55">Arctic sea ice volume</text>

<g transform="translate(600,600)" text-anchor="start" font-size="30">
<text>Radial scale: 0–40  million cubic km</text>
<text y="40" font-size="30">(center of chart would be zero ice)</text>
</g>

<text text-anchor="start" x="10" y="670" font-size="7">Monthly data, charted at 30° intervals. Linear arithmetic interpolations between monthly values render as slight outward curves to smooth out the traces.</text>

</svg>
