<?xml version="1.0" encoding="UTF-8" standalone="no"?>
<svg xmlns="http://www.w3.org/2000/svg" width="1200" height="1675">

<!-- Background rectangles for overall page, and for plot area:  -->
<path d="M0,0 h1200 v1675 h-1200 z" stroke="green" stroke-width="0.25" fill="#f8f8f8"/>
<path d="M250,100 h900 v1180 h-900 z" stroke="#888888" stroke-width="1" fill="white"/>

<!-- LABELS for entire graph and two axes:  -->
<switch><text x="700" y="56" font-size="40px" font-family="sans-serif" text-anchor="middle" fill="black" id="trsvg50-ja" systemLanguage="ja"><tspan id="trsvg1-ja">世論：気候変動の原因</tspan></text><text x="700" y="56" font-size="40px" font-family="sans-serif" text-anchor="middle" fill="black" id="trsvg50"><tspan id="trsvg1">Public opinion: causes of climate change</tspan></text></switch>

<!-- Horizontal Axis Tick labels -->
<g transform="translate(0,0)">
<switch><text font-size="40px" font-family="sans-serif" text-anchor="middle" fill="black" id="trsvg51"><tspan x="256" y="1340" id="trsvg2">0%</tspan><tspan x="346" y="1340" id="trsvg3">10</tspan><tspan x="436" y="1340" id="trsvg4">20</tspan><tspan x="526" y="1340" id="trsvg5">30</tspan><tspan x="616" y="1340" id="trsvg6">40</tspan><tspan x="706" y="1340" id="trsvg7">50</tspan><tspan x="796" y="1340" id="trsvg8">60</tspan><tspan x="886" y="1340" id="trsvg9">70</tspan><tspan x="976" y="1340" id="trsvg10">80</tspan><tspan x="1066" y="1340" id="trsvg11">90</tspan>
<tspan x="1150" y="1340" id="trsvg12">100</tspan>
</text></switch>  
</g>

<!-- Category Axis Tick mark text labels  -->
<g transform="translate(0,0)">  <switch><text font-size="25" font-family="sans-serif" text-anchor="middle" fill="black" id="trsvg52-ja" systemLanguage="ja"><tspan x="125" y="163.64" id="trsvg13-ja">スペイン</tspan><tspan x="125" y="199.39" id="trsvg14-ja">イタリア</tspan><tspan x="125" y="235.15" id="trsvg15-ja">アイルランド</tspan><tspan x="125" y="270.91" id="trsvg16-ja">台湾</tspan><tspan x="125" y="306.67" id="trsvg17-ja">コスタリカ</tspan><tspan x="125" y="342.42" id="trsvg18-ja">アルゼンチン</tspan><tspan x="125" y="378.18" id="trsvg19-ja">イギリス</tspan><tspan x="125" y="413.94" id="trsvg20-ja">フランス</tspan><tspan x="125" y="449.7" id="trsvg21-ja">メキシコ</tspan><tspan x="125" y="485.45" id="trsvg22-ja">コロンビア</tspan><tspan x="125" y="521.21" id="trsvg23-ja">● ブラジル</tspan><tspan x="125" y="556.97" id="trsvg24-ja">オランダ</tspan><tspan x="125" y="592.73" id="trsvg25-ja">● 日本</tspan><tspan x="125" y="628.48" id="trsvg26-ja">● カナダ</tspan><tspan x="125" y="664.24" id="trsvg27-ja">オーストラリア</tspan><tspan x="125" y="700" id="trsvg28-ja">● ドイツ</tspan><tspan x="125" y="735.76" id="trsvg29-ja">ポーランド</tspan><tspan x="125" y="771.52" id="trsvg30-ja">チェコ共和国</tspan><tspan x="125" y="807.27" id="trsvg31-ja">タイ</tspan><tspan x="125" y="843.03" id="trsvg32-ja">● インド</tspan><tspan x="125" y="878.79" id="trsvg33-ja">トルコ</tspan><tspan x="125" y="914.55" id="trsvg34-ja">● アメリカ合衆国</tspan><tspan x="125" y="950.3" id="trsvg35-ja">● ロシア</tspan><tspan x="125" y="986.06" id="trsvg36-ja">南アメリカ</tspan><tspan x="125" y="1021.82" id="trsvg37-ja">フィリピン</tspan><tspan x="125" y="1057.58" id="trsvg38-ja">マレーシア</tspan><tspan x="125" y="1093.33" id="trsvg39-ja">エジプト</tspan><tspan x="125" y="1129.09" id="trsvg40-ja">サウジアラビア</tspan><tspan x="125" y="1164.85" id="trsvg41-ja">ベトナム</tspan><tspan x="125" y="1200.61" id="trsvg42-ja">ナイジェリア</tspan>
<tspan x="125" y="1236.36" id="trsvg43-ja">● インドネシア</tspan> 
</text><text font-size="25" font-family="sans-serif" text-anchor="middle" fill="black" id="trsvg52"><tspan x="125" y="163.64" id="trsvg13">Spain</tspan><tspan x="125" y="199.39" id="trsvg14">Italy</tspan><tspan x="125" y="235.15" id="trsvg15">Ireland</tspan><tspan x="125" y="270.91" id="trsvg16">Taiwan</tspan><tspan x="125" y="306.67" id="trsvg17">Costa Rica</tspan><tspan x="125" y="342.42" id="trsvg18">Argentina</tspan><tspan x="125" y="378.18" id="trsvg19">U.K.</tspan><tspan x="125" y="413.94" id="trsvg20">France</tspan><tspan x="125" y="449.7" id="trsvg21">Mexico</tspan><tspan x="125" y="485.45" id="trsvg22">Colombia</tspan><tspan x="125" y="521.21" id="trsvg23">● Brazil</tspan><tspan x="125" y="556.97" id="trsvg24">Netherlands</tspan><tspan x="125" y="592.73" id="trsvg25">● Japan</tspan><tspan x="125" y="628.48" id="trsvg26">● Canada</tspan><tspan x="125" y="664.24" id="trsvg27">Australia</tspan><tspan x="125" y="700" id="trsvg28">● Germany</tspan><tspan x="125" y="735.76" id="trsvg29">Poland</tspan><tspan x="125" y="771.52" id="trsvg30">Czech Rep.</tspan><tspan x="125" y="807.27" id="trsvg31">Thailand</tspan><tspan x="125" y="843.03" id="trsvg32">● India</tspan><tspan x="125" y="878.79" id="trsvg33">Turkey</tspan><tspan x="125" y="914.55" id="trsvg34">● U.S.A.</tspan><tspan x="125" y="950.3" id="trsvg35">● Russia</tspan><tspan x="125" y="986.06" id="trsvg36">South Africa</tspan><tspan x="125" y="1021.82" id="trsvg37">Philippines</tspan><tspan x="125" y="1057.58" id="trsvg38">Malaysia</tspan><tspan x="125" y="1093.33" id="trsvg39">Egypt</tspan><tspan x="125" y="1129.09" id="trsvg40">Saudi Arabia</tspan><tspan x="125" y="1164.85" id="trsvg41">Vietnam</tspan><tspan x="125" y="1200.61" id="trsvg42">Nigeria</tspan>
<tspan x="125" y="1236.36" id="trsvg43">● Indonesia</tspan> 
</text></switch>  </g>

<!-- FIRST SERIES -->
<g fill="royalblue"> <path d=" M250,139.333 h576 v28.892 h-576 z M250,175.091 h540 v28.892 h-540 z M250,210.848 h522 v28.892 h-522 z M250,246.606 h522 v28.892 h-522 z M250,282.364 h513 v28.892 h-513 z M250,318.121 h504 v28.892 h-504 z M250,353.879 h495 v28.892 h-495 z M250,389.636 h495 v28.892 h-495 z M250,425.394 h486 v28.892 h-486 z  M250,461.152 h486 v28.892 h-486 z M250,496.909 h477 v28.892 h-477 z M250,532.667 h468 v28.892 h-468 z M250,568.424 h459 v28.892 h-459 z M250,604.182 h450 v28.892 h-450 z M250,639.939 h450 v28.892 h-450 z M250,675.697 h441 v28.892 h-441 z M250,711.455 h423 v28.892 h-423 z M250,747.212 h414 v28.892 h-414 z M250,782.97 h405 v28.892 h-405 z  M250,818.727 h378 v28.892 h-378 z M250,854.485 h369 v28.892 h-369 z M250,890.242 h360 v28.892 h-360 z M250,926 h306 v28.892 h-306 z M250,961.758 h297 v28.892 h-297 z M250,997.515 h288 v28.892 h-288 z M250,1033.273 h288 v28.892 h-288 z M250,1069.03 h261 v28.892 h-261 z M250,1104.788 h261 v28.892 h-261 z M250,1140.545 h243 v28.892 h-243 z  M250,1176.303 h216 v28.892 h-216 z M250,1212.061 h144 v28.892 h-144 z  "/> </g>

<!-- SECOND SERIES -->
<g fill="skyblue"> <path d=" M826,139.333 h225 v28.892 h-225 z M790,175.091 h261 v28.892 h-261 z M772,210.848 h252 v28.892 h-252 z M772,246.606 h252 v28.892 h-252 z M763,282.364 h243 v28.892 h-243 z M754,318.121 h243 v28.892 h-243 z M745,353.879 h297 v28.892 h-297 z M745,389.636 h306 v28.892 h-306 z M736,425.394 h243 v28.892 h-243 z  M736,461.152 h225 v28.892 h-225 z M727,496.909 h252 v28.892 h-252 z M718,532.667 h288 v28.892 h-288 z M709,568.424 h324 v28.892 h-324 z M700,604.182 h324 v28.892 h-324 z M700,639.939 h288 v28.892 h-288 z M691,675.697 h324 v28.892 h-324 z M673,711.455 h369 v28.892 h-369 z M664,747.212 h360 v28.892 h-360 z M655,782.97 h315 v28.892 h-315 z  M628,818.727 h288 v28.892 h-288 z M619,854.485 h297 v28.892 h-297 z M610,890.242 h306 v28.892 h-306 z M556,926 h396 v28.892 h-396 z M547,961.758 h288 v28.892 h-288 z M538,997.515 h360 v28.892 h-360 z M538,1033.273 h405 v28.892 h-405 z M511,1069.03 h288 v28.892 h-288 z M511,1104.788 h288 v28.892 h-288 z M493,1140.545 h531 v28.892 h-531 z  M466,1176.303 h288 v28.892 h-288 z M394,1212.061 h468 v28.892 h-468 z  "/> </g>

<!-- THIRD SERIES -->
<g fill="darksalmon"> <path d=" M1051,139.333 h63 v28.892 h-63 z M1051,175.091 h63 v28.892 h-63 z M1024,210.848 h81 v28.892 h-81 z M1024,246.606 h72 v28.892 h-72 z M1006,282.364 h108 v28.892 h-108 z M997,318.121 h117 v28.892 h-117 z M1042,353.879 h63 v28.892 h-63 z M1051,389.636 h54 v28.892 h-54 z M979,425.394 h135 v28.892 h-135 z  M961,461.152 h144 v28.892 h-144 z M979,496.909 h117 v28.892 h-117 z M1006,532.667 h90 v28.892 h-90 z M1033,568.424 h90 v28.892 h-90 z M1024,604.182 h90 v28.892 h-90 z M988,639.939 h108 v28.892 h-108 z M1015,675.697 h90 v28.892 h-90 z M1042,711.455 h72 v28.892 h-72 z M1024,747.212 h90 v28.892 h-90 z M970,782.97 h99 v28.892 h-99 z  M916,818.727 h126 v28.892 h-126 z M916,854.485 h126 v28.892 h-126 z M916,890.242 h144 v28.892 h-144 z M952,926 h135 v28.892 h-135 z M835,961.758 h216 v28.892 h-216 z M898,997.515 h171 v28.892 h-171 z M943,1033.273 h99 v28.892 h-99 z M799,1069.03 h198 v28.892 h-198 z M799,1104.788 h180 v28.892 h-180 z M1024,1140.545 h72 v28.892 h-72 z  M754,1176.303 h261 v28.892 h-261 z M862,1212.061 h162 v28.892 h-162 z  "/> </g>

<!-- FOURTH SERIES -->
<g fill="red"> <path d=" M1114,139.333 h9 v28.892 h-9 z M1114,175.091 h9 v28.892 h-9 z M1105,210.848 h18 v28.892 h-18 z M1096,246.606 h27 v28.892 h-27 z M1114,282.364 h9 v28.892 h-9 z M1114,318.121 h9 v28.892 h-9 z M1105,353.879 h18 v28.892 h-18 z M1105,389.636 h18 v28.892 h-18 z M1114,425.394 h9 v28.892 h-9 z  M1105,461.152 h9 v28.892 h-9 z M1096,496.909 h18 v28.892 h-18 z M1096,532.667 h27 v28.892 h-27 z M1123,568.424 h9 v28.892 h-9 z M1114,604.182 h27 v28.892 h-27 z M1096,639.939 h36 v28.892 h-36 z M1105,675.697 h9 v28.892 h-9 z M1114,711.455 h18 v28.892 h-18 z M1114,747.212 h9 v28.892 h-9 z M1069,782.97 h9 v28.892 h-9 z  M1042,818.727 h27 v28.892 h-27 z M1042,854.485 h27 v28.892 h-27 z M1060,890.242 h45 v28.892 h-45 z M1087,926 h27 v28.892 h-27 z M1051,961.758 h45 v28.892 h-45 z M1069,997.515 h36 v28.892 h-36 z M1042,1033.273 h27 v28.892 h-27 z M997,1069.03 h63 v28.892 h-63 z M979,1104.788 h63 v28.892 h-63 z M1096,1140.545 h9 v28.892 h-9 z  M1015,1176.303 h72 v28.892 h-72 z M1024,1212.061 h54 v28.892 h-54 z  "/> </g>

<!-- FIFTH SERIES  -->
<g fill="gainsboro"> <path d=" M1123,139.333 h27 v28.892 h-27 z M1123,175.091 h27 v28.892 h-27 z M1123,210.848 h27 v28.892 h-27 z M1123,246.606 h27 v28.892 h-27 z M1123,282.364 h27 v28.892 h-27 z M1123,318.121 h27 v28.892 h-27 z M1123,353.879 h27 v28.892 h-27 z M1123,389.636 h27 v28.892 h-27 z M1123,425.394 h27 v28.892 h-27 z  M1114,461.152 h36 v28.892 h-36 z M1114,496.909 h36 v28.892 h-36 z M1123,532.667 h27 v28.892 h-27 z M1132,568.424 h18 v28.892 h-18 z M1141,604.182 h9 v28.892 h-9 z M1132,639.939 h18 v28.892 h-18 z M1114,675.697 h36 v28.892 h-36 z M1132,711.455 h18 v28.892 h-18 z M1123,747.212 h27 v28.892 h-27 z M1078,782.97 h72 v28.892 h-72 z  M1069,818.727 h81 v28.892 h-81 z M1069,854.485 h81 v28.892 h-81 z M1105,890.242 h45 v28.892 h-45 z M1114,926 h36 v28.892 h-36 z M1096,961.758 h54 v28.892 h-54 z M1105,997.515 h45 v28.892 h-45 z M1069,1033.273 h81 v28.892 h-81 z M1060,1069.03 h90 v28.892 h-90 z M1042,1104.788 h108 v28.892 h-108 z M1105,1140.545 h45 v28.892 h-45 z  M1087,1176.303 h63 v28.892 h-63 z M1078,1212.061 h72 v28.892 h-72 z  "/> </g>

<!-- Vertical gridlines -->
<g stroke="white" stroke-width="1"> <path d=" M250,100 v1190 M340,100 v1190 M430,100 v1190 M520,100 v1190 M610,100 v1190 M700,100 v1190 M790,100 v1190 M880,100 v1190 M970,100 v1190 M1060,100 v1190 M1150,100 v1190 "/> </g>

<!-- COLORED AREAS for LEGEND -->
<g transform="translate(0,320)">
<path d="M295,1061.25 h35 v35 h-35 z" fill="royalblue"/>
<path d="M295,1105 h35 v35 h-35 z" fill="skyblue"/>
<path d="M295,1148.75 h35 v35 h-35 z" fill="darksalmon"/>
<path d="M295,1192.5 h35 v35 h-35 z" fill="red"/>
<path d="M295,1236.25 h35 v35 h-35 z" fill="gainsboro"/>
<circle cx="312.5" cy="1300" r="10"/>

<!-- TEXT for LEGEND -->
<switch><text font-family="sans-serif" text-anchor="start" font-size="35" id="trsvg53-ja" systemLanguage="ja"><tspan x="347.5" y="1092.75" fill="black" id="trsvg44-ja">主に人間が原因である</tspan><tspan x="347.5" y="1136.5" fill="black" id="trsvg45-ja">人間と自然の変化が同じくらいの原因である</tspan><tspan x="347.5" y="1180.25" fill="black" id="trsvg46-ja">主に自然の変化が原因である</tspan><tspan x="347.5" y="1224" fill="black" id="trsvg47-ja">気候が変化していることを否定</tspan><tspan x="347.5" y="1267.75" fill="black" id="trsvg48-ja">その他 / 回答なし</tspan>
<tspan x="347.5" y="1311.5" fill="black" id="trsvg49-ja">温暖化効果ガス排出国上位10カ国</tspan>
</text><text font-family="sans-serif" text-anchor="start" font-size="35" id="trsvg53"><tspan x="347.5" y="1092.75" fill="black" id="trsvg44">Caused mostly by humans</tspan><tspan x="347.5" y="1136.5" fill="black" id="trsvg45">About equally by humans, natural changes</tspan><tspan x="347.5" y="1180.25" fill="black" id="trsvg46">Caused mostly by natural changes</tspan><tspan x="347.5" y="1224" fill="black" id="trsvg47">Deny that the climate is changing</tspan><tspan x="347.5" y="1267.75" fill="black" id="trsvg48">Other / no response</tspan>
<tspan x="347.5" y="1311.5" fill="black" id="trsvg49">Among top 10 greenhouse gas emitters</tspan>
</text></switch>  </g>

<!-- Hollow rectangle surrounds plot area, and covers edges' grid lines  -->
<path d="M250,100 h900 v1180 h-900 z" stroke="#888888" stroke-width="3" fill="none"/>

</svg>
