<svg xmlns="http://www.w3.org/2000/svg" viewBox="0 0 240 180" fill="none" stroke-linecap="round" stroke-linejoin="round" role="img">
<rect x="38.0" y="38.0" width="52.0" height="9.0" rx="2" fill="#C4622D"/><rect x="38.0" y="54.0" width="24.0" height="16.0" rx="2" fill="#FFFFFF" stroke="#3A372F" stroke-width="2"/><rect x="66.0" y="54.0" width="24.0" height="16.0" rx="2" fill="#FFFFFF" stroke="#3A372F" stroke-width="2"/><rect x="52.0" y="74.0" width="24.0" height="16.0" rx="2" fill="#FFFFFF" stroke="#3A372F" stroke-width="2"/><rect x="150.0" y="38.0" width="52.0" height="9.0" rx="2" fill="#C4BDB0"/><rect x="150.0" y="54.0" width="24.0" height="16.0" rx="2" fill="#FFFFFF" stroke="#3A372F" stroke-width="2"/><rect x="178.0" y="54.0" width="24.0" height="16.0" rx="2" fill="#FFFFFF" stroke="#3A372F" stroke-width="2"/><rect x="164.0" y="74.0" width="24.0" height="16.0" rx="2" fill="#FFFFFF" stroke="#3A372F" stroke-width="2"/><rect x="94.0" y="108.0" width="52.0" height="9.0" rx="2" fill="#E7C7B2"/><rect x="94.0" y="124.0" width="24.0" height="16.0" rx="2" fill="#FFFFFF" stroke="#3A372F" stroke-width="2"/><rect x="122.0" y="124.0" width="24.0" height="16.0" rx="2" fill="#FFFFFF" stroke="#3A372F" stroke-width="2"/><rect x="108.0" y="144.0" width="24.0" height="16.0" rx="2" fill="#FFFFFF" stroke="#3A372F" stroke-width="2"/>
</svg>
