<svg xmlns="http://www.w3.org/2000/svg" viewBox="0 0 240 180" fill="none" stroke-linecap="round" stroke-linejoin="round" role="img">
<rect x="52.0" y="36.0" width="136.0" height="108.0" rx="4" fill="#FFFFFF" stroke="#3A372F" stroke-width="2.5"/><line x1="52.0" y1="63.0" x2="188.0" y2="63.0" stroke="#3A372F" stroke-width="1.6" /><line x1="86.0" y1="36.0" x2="86.0" y2="144.0" stroke="#3A372F" stroke-width="1.6" /><line x1="52.0" y1="90.0" x2="188.0" y2="90.0" stroke="#3A372F" stroke-width="1.6" /><line x1="120.0" y1="36.0" x2="120.0" y2="144.0" stroke="#3A372F" stroke-width="1.6" /><line x1="52.0" y1="117.0" x2="188.0" y2="117.0" stroke="#3A372F" stroke-width="1.6" /><line x1="154.0" y1="36.0" x2="154.0" y2="144.0" stroke="#3A372F" stroke-width="1.6" /><circle cx="69.0" cy="49.5" r="6.0" fill="#C4622D"/><circle cx="103.0" cy="49.5" r="6.0" fill="#C4622D"/><circle cx="137.0" cy="49.5" r="3.0" fill="#C4BDB0"/><circle cx="171.0" cy="49.5" r="6.0" fill="#C4622D"/><circle cx="69.0" cy="76.5" r="3.0" fill="#C4BDB0"/><circle cx="103.0" cy="76.5" r="3.0" fill="#C4BDB0"/><circle cx="137.0" cy="76.5" r="6.0" fill="#C4622D"/><circle cx="171.0" cy="76.5" r="3.0" fill="#C4BDB0"/><circle cx="69.0" cy="103.5" r="6.0" fill="#C4622D"/><circle cx="103.0" cy="103.5" r="3.0" fill="#C4BDB0"/><circle cx="137.0" cy="103.5" r="3.0" fill="#C4BDB0"/><circle cx="171.0" cy="103.5" r="6.0" fill="#C4622D"/><circle cx="69.0" cy="130.5" r="3.0" fill="#C4BDB0"/><circle cx="103.0" cy="130.5" r="6.0" fill="#C4622D"/><circle cx="137.0" cy="130.5" r="6.0" fill="#C4622D"/><circle cx="171.0" cy="130.5" r="3.0" fill="#C4BDB0"/>
</svg>
