<svg xmlns="http://www.w3.org/2000/svg" viewBox="0 0 240 180" fill="none" stroke-linecap="round" stroke-linejoin="round" role="img">
<rect x="34.0" y="30.0" width="172.0" height="122.0" rx="6" fill="#FFFFFF" stroke="#3A372F" stroke-width="2.5"/><line x1="78.0" y1="70.0" x2="120.0" y2="92.0" stroke="#C4622D" stroke-width="1.6" stroke-dasharray="3 3"/><line x1="134.0" y1="64.0" x2="120.0" y2="92.0" stroke="#C4622D" stroke-width="1.6" stroke-dasharray="3 3"/><line x1="174.0" y1="86.0" x2="120.0" y2="92.0" stroke="#C4622D" stroke-width="1.6" stroke-dasharray="3 3"/><line x1="92.0" y1="116.0" x2="120.0" y2="92.0" stroke="#C4622D" stroke-width="1.6" stroke-dasharray="3 3"/><line x1="152.0" y1="122.0" x2="120.0" y2="92.0" stroke="#C4622D" stroke-width="1.6" stroke-dasharray="3 3"/><g transform="rotate(-7 78 70)"><rect x="64.0" y="58.0" width="28.0" height="22.0" rx="2" fill="#E7C7B2" stroke="#3A372F" stroke-width="2"/></g><circle cx="78.0" cy="58.0" r="2.4" fill="#C4622D"/><g transform="rotate(4 134 64)"><rect x="120.0" y="52.0" width="28.0" height="22.0" rx="2" fill="#FFFFFF" stroke="#3A372F" stroke-width="2"/></g><circle cx="134.0" cy="52.0" r="2.4" fill="#C4622D"/><g transform="rotate(-4 174 86)"><rect x="160.0" y="74.0" width="28.0" height="22.0" rx="2" fill="#C4BDB0" stroke="#3A372F" stroke-width="2"/></g><circle cx="174.0" cy="74.0" r="2.4" fill="#C4622D"/><g transform="rotate(6 92 116)"><rect x="78.0" y="104.0" width="28.0" height="22.0" rx="2" fill="#FFFFFF" stroke="#3A372F" stroke-width="2"/></g><circle cx="92.0" cy="104.0" r="2.4" fill="#C4622D"/><g transform="rotate(-6 152 122)"><rect x="138.0" y="110.0" width="28.0" height="22.0" rx="2" fill="#E7C7B2" stroke="#3A372F" stroke-width="2"/></g><circle cx="152.0" cy="110.0" r="2.4" fill="#C4622D"/>
</svg>
