<svg xmlns="http://www.w3.org/2000/svg" viewBox="0 0 240 180" fill="none" stroke-linecap="round" stroke-linejoin="round" role="img">
<rect x="104.0" y="28.0" width="32.0" height="22.0" rx="3" fill="#E7C7B2" stroke="#3A372F" stroke-width="2.5"/><line x1="120.0" y1="50.0" x2="120.0" y2="64.0" stroke="#3A372F" stroke-width="2.5" /><line x1="70.0" y1="64.0" x2="170.0" y2="64.0" stroke="#3A372F" stroke-width="2.5" /><line x1="70.0" y1="64.0" x2="70.0" y2="76.0" stroke="#3A372F" stroke-width="2.5" /><rect x="54.0" y="76.0" width="32.0" height="20.0" rx="3" fill="#FFFFFF" stroke="#3A372F" stroke-width="2.5"/><line x1="120.0" y1="64.0" x2="120.0" y2="76.0" stroke="#3A372F" stroke-width="2.5" /><rect x="104.0" y="76.0" width="32.0" height="20.0" rx="3" fill="#FFFFFF" stroke="#3A372F" stroke-width="2.5"/><line x1="170.0" y1="64.0" x2="170.0" y2="76.0" stroke="#3A372F" stroke-width="2.5" /><rect x="154.0" y="76.0" width="32.0" height="20.0" rx="3" fill="#FFFFFF" stroke="#3A372F" stroke-width="2.5"/><line x1="70.0" y1="96.0" x2="54.0" y2="112.0" stroke="#3A372F" stroke-width="2" /><rect x="40.0" y="112.0" width="28.0" height="16.0" rx="2" fill="#C4BDB0" stroke="#3A372F" stroke-width="2"/><line x1="70.0" y1="96.0" x2="86.0" y2="112.0" stroke="#3A372F" stroke-width="2" /><rect x="72.0" y="112.0" width="28.0" height="16.0" rx="2" fill="#C4BDB0" stroke="#3A372F" stroke-width="2"/><line x1="170.0" y1="96.0" x2="154.0" y2="112.0" stroke="#3A372F" stroke-width="2" /><rect x="140.0" y="112.0" width="28.0" height="16.0" rx="2" fill="#C4BDB0" stroke="#3A372F" stroke-width="2"/><line x1="170.0" y1="96.0" x2="186.0" y2="112.0" stroke="#3A372F" stroke-width="2" /><rect x="172.0" y="112.0" width="28.0" height="16.0" rx="2" fill="#C4BDB0" stroke="#3A372F" stroke-width="2"/>
</svg>
