<svg xmlns="http://www.w3.org/2000/svg" viewBox="0 0 240 180" fill="none" stroke-linecap="round" stroke-linejoin="round" role="img">
<line x1="40.0" y1="110.0" x2="200.0" y2="110.0" stroke="#3A372F" stroke-width="2.5" /><rect x="46.0" y="88.0" width="28.0" height="12.0" rx="2" fill="#E7C7B2" stroke="#3A372F" stroke-width="2"/><rect x="46.0" y="72.0" width="28.0" height="12.0" rx="2" fill="#FFFFFF" stroke="#3A372F" stroke-width="2"/><rect x="82.0" y="88.0" width="28.0" height="12.0" rx="2" fill="#E7C7B2" stroke="#3A372F" stroke-width="2"/><rect x="82.0" y="72.0" width="28.0" height="12.0" rx="2" fill="#FFFFFF" stroke="#3A372F" stroke-width="2"/><rect x="82.0" y="56.0" width="28.0" height="12.0" rx="2" fill="#FFFFFF" stroke="#3A372F" stroke-width="2"/><rect x="118.0" y="88.0" width="28.0" height="12.0" rx="2" fill="#E7C7B2" stroke="#3A372F" stroke-width="2"/><rect x="118.0" y="72.0" width="28.0" height="12.0" rx="2" fill="#FFFFFF" stroke="#3A372F" stroke-width="2"/><rect x="154.0" y="88.0" width="28.0" height="12.0" rx="2" fill="#E7C7B2" stroke="#3A372F" stroke-width="2"/><rect x="154.0" y="72.0" width="28.0" height="12.0" rx="2" fill="#FFFFFF" stroke="#3A372F" stroke-width="2"/><rect x="154.0" y="56.0" width="28.0" height="12.0" rx="2" fill="#FFFFFF" stroke="#3A372F" stroke-width="2"/><rect x="56.0" y="122.0" width="32.0" height="16.0" rx="2" fill="#C4BDB0" stroke="#3A372F" stroke-width="2"/><rect x="104.0" y="122.0" width="32.0" height="16.0" rx="2" fill="#C4BDB0" stroke="#3A372F" stroke-width="2"/><rect x="152.0" y="122.0" width="32.0" height="16.0" rx="2" fill="#C4BDB0" stroke="#3A372F" stroke-width="2"/>
</svg>
