<svg xmlns="http://www.w3.org/2000/svg" viewBox="0 0 240 180" fill="none" stroke-linecap="round" stroke-linejoin="round" role="img">
<line x1="120.0" y1="60.0" x2="120.0" y2="120.0" stroke="#3A372F" stroke-width="3" /><rect x="104.0" y="84.0" width="32.0" height="18.0" rx="3" fill="#E7C7B2" stroke="#3A372F" stroke-width="2.5"/><path d="M120 60 C108 44 92 44 84 36" fill="none" stroke="#3A372F" stroke-width="2.5" /><path d="M120 60 C132 44 148 44 156 36" fill="none" stroke="#3A372F" stroke-width="2.5" /><path d="M120 60 L120 32" fill="none" stroke="#3A372F" stroke-width="2.5" /><circle cx="84.0" cy="34.0" r="6.0" fill="#C4BDB0"/><circle cx="120.0" cy="30.0" r="6.0" fill="#C4BDB0"/><circle cx="156.0" cy="34.0" r="6.0" fill="#C4BDB0"/><path d="M120 120 C108 136 92 136 84 146" fill="none" stroke="#3A372F" stroke-width="2.5" /><path d="M120 120 C132 136 148 136 156 146" fill="none" stroke="#3A372F" stroke-width="2.5" /><path d="M120 120 L120 150" fill="none" stroke="#3A372F" stroke-width="2.5" /><circle cx="84.0" cy="148.0" r="6.0" fill="#C4622D"/><circle cx="120.0" cy="152.0" r="6.0" fill="#C4622D"/><circle cx="156.0" cy="148.0" r="6.0" fill="#C4622D"/>
</svg>
