<svg xmlns="http://www.w3.org/2000/svg" viewBox="0 0 240 180" fill="none" stroke-linecap="round" stroke-linejoin="round" role="img">
<path d="M120 94 L120.0 64.0 A30 30 0 0 1 141.2 72.8 Z" fill="#C4622D" stroke="#FFFFFF" stroke-width="1.5"/><path d="M120 94 L153.9 60.1 A48 48 0 0 1 168.0 94.0 Z" fill="#E7C7B2" stroke="#FFFFFF" stroke-width="1.5"/><path d="M120 94 L158.0 94.0 A38 38 0 0 1 146.9 120.9 Z" fill="#C4622D" stroke="#FFFFFF" stroke-width="1.5"/><path d="M120 94 L159.6 133.6 A56 56 0 0 1 120.0 150.0 Z" fill="#E7C7B2" stroke="#FFFFFF" stroke-width="1.5"/><path d="M120 94 L120.0 134.0 A40 40 0 0 1 91.7 122.3 Z" fill="#C4622D" stroke="#FFFFFF" stroke-width="1.5"/><path d="M120 94 L96.0 118.0 A34 34 0 0 1 86.0 94.0 Z" fill="#E7C7B2" stroke="#FFFFFF" stroke-width="1.5"/><path d="M120 94 L68.0 94.0 A52 52 0 0 1 83.2 57.2 Z" fill="#C4622D" stroke="#FFFFFF" stroke-width="1.5"/><path d="M120 94 L88.9 62.9 A44 44 0 0 1 120.0 50.0 Z" fill="#E7C7B2" stroke="#FFFFFF" stroke-width="1.5"/>
</svg>
