<svg xmlns="http://www.w3.org/2000/svg" viewBox="0 0 240 180" fill="none" stroke-linecap="round" stroke-linejoin="round" role="img">
<rect x="40.0" y="44.0" width="160.0" height="26.0" rx="3" fill="#E7C7B2" stroke="#3A372F" stroke-width="2"/><rect x="50.0" y="50.0" width="22.0" height="14.0" rx="2" fill="#FFFFFF" stroke="#3A372F" stroke-width="1.6"/><rect x="96.0" y="50.0" width="22.0" height="14.0" rx="2" fill="#FFFFFF" stroke="#3A372F" stroke-width="1.6"/><rect x="142.0" y="50.0" width="22.0" height="14.0" rx="2" fill="#FFFFFF" stroke="#3A372F" stroke-width="1.6"/><rect x="40.0" y="80.0" width="160.0" height="26.0" rx="3" fill="#FFFFFF" stroke="#3A372F" stroke-width="2"/><rect x="50.0" y="86.0" width="22.0" height="14.0" rx="2" fill="#C4BDB0" stroke="#3A372F" stroke-width="1.6"/><rect x="96.0" y="86.0" width="22.0" height="14.0" rx="2" fill="#C4BDB0" stroke="#3A372F" stroke-width="1.6"/><rect x="142.0" y="86.0" width="22.0" height="14.0" rx="2" fill="#C4BDB0" stroke="#3A372F" stroke-width="1.6"/><rect x="40.0" y="116.0" width="160.0" height="26.0" rx="3" fill="#FFFFFF" stroke="#3A372F" stroke-width="2"/><rect x="50.0" y="122.0" width="22.0" height="14.0" rx="2" fill="#C4BDB0" stroke="#3A372F" stroke-width="1.6"/><rect x="96.0" y="122.0" width="22.0" height="14.0" rx="2" fill="#C4BDB0" stroke="#3A372F" stroke-width="1.6"/><rect x="142.0" y="122.0" width="22.0" height="14.0" rx="2" fill="#C4BDB0" stroke="#3A372F" stroke-width="1.6"/><line x1="120.0" y1="38.0" x2="120.0" y2="150.0" stroke="#C4622D" stroke-width="2" stroke-dasharray="5 4"/>
</svg>
