<svg xmlns="http://www.w3.org/2000/svg" viewBox="0 0 240 180" fill="none" stroke-linecap="round" stroke-linejoin="round" role="img">
<line x1="36.0" y1="60.0" x2="204.0" y2="60.0" stroke="#3A372F" stroke-width="1.8" stroke-dasharray="4 4"/><line x1="36.0" y1="120.0" x2="204.0" y2="120.0" stroke="#3A372F" stroke-width="1.8" stroke-dasharray="4 4"/><rect x="38.0" y="38.0" width="36.0" height="22.0" rx="3" fill="#FFFFFF" stroke="#3A372F" stroke-width="2.5"/><rect x="92.0" y="38.0" width="36.0" height="22.0" rx="3" fill="#FFFFFF" stroke="#3A372F" stroke-width="2.5"/><rect x="92.0" y="90.0" width="36.0" height="22.0" rx="3" fill="#FFFFFF" stroke="#3A372F" stroke-width="2.5"/><rect x="146.0" y="90.0" width="36.0" height="22.0" rx="3" fill="#FFFFFF" stroke="#3A372F" stroke-width="2.5"/><path d="M74 49 L92 49" fill="none" stroke="#C4622D" stroke-width="2.5" marker-end="url(#a)"/><path d="M74 49 L92 49 M92 49 L88 45 M92 49 L88 53" fill="none" stroke="#C4622D" stroke-width="2.4" /><path d="M146 101 L164 101 M164 101 L160 97 M164 101 L160 105" fill="none" stroke="#C4622D" stroke-width="2.4" /><path d="M110 60 L110 88 M110 88 L106 84 M110 88 L114 84" fill="none" stroke="#C4622D" stroke-width="2.4" />
</svg>
