<?xml version="1.0" encoding="utf-8"?>
<!-- Generator: Adobe Illustrator 15.0.2, SVG Export Plug-In  -->
<!--  Created by User:Zirguezi(http://commons.wikimedia.org/wiki/User:Zirguezi) for use on Wikimedia projects. This file is released into the public domain. This applies worldwide. If this is not legally possible: I grant any entity the right to use this work for any purpose, without any conditions, unless such conditions are required by law.-->
<!DOCTYPE svg PUBLIC "-//W3C//DTD SVG 1.1//EN" "http://www.w3.org/Graphics/SVG/1.1/DTD/svg11.dtd" [
	<!ENTITY ns_flows "http://ns.adobe.com/Flows/1.0/">
]>
<svg version="1.1"
	 xmlns="http://www.w3.org/2000/svg" xmlns:xlink="http://www.w3.org/1999/xlink" xmlns:a="http://ns.adobe.com/AdobeSVGViewerExtensions/3.0/"
	 x="0px" y="0px" width="512px" height="507px" viewBox="-6.721 0 512 507" enable-background="new -6.721 0 512 507"
	 xml:space="preserve">
<defs>
</defs>
<rect x="48.779" y="0.5" fill="#F1BC92" stroke="#000000" stroke-miterlimit="10" width="228" height="227"/>
<rect x="276.779" y="0.5" fill="#FF4B4C" stroke="#000000" stroke-miterlimit="10" width="228" height="227"/>
<rect x="48.779" y="227.5" fill="#D0D8B1" stroke="#000000" stroke-miterlimit="10" width="228" height="227"/>
<rect x="276.779" y="227.5" fill="#F0F75B" stroke="#000000" stroke-miterlimit="10" width="228" height="227"/>
<g>
	<g>
		<line fill="none" stroke="#000000" stroke-width="4" stroke-miterlimit="10" x1="49.279" y1="488" x2="451.279" y2="488"/>
		<g>
			<polygon points="440.166,502.813 446.459,488 440.166,473.188 475.279,488 			"/>
		</g>
	</g>
</g>
<g>
	<g>
		<line fill="none" stroke="#000000" stroke-width="4" stroke-miterlimit="10" x1="32.279" y1="36" x2="32.279" y2="454"/>
		<g>
			<polygon points="17.467,47.113 32.279,40.82 47.092,47.113 32.279,12 			"/>
		</g>
	</g>
</g>
<g>
	<rect x="58.029" y="7.75" fill="none" width="111.5" height="30"/>
	<path d="M63.175,11.284v20.708h7.099v2.666H60.261V11.284H63.175z"/>
	<path d="M85.495,20.15v14.508h-2.79v-2.263h-0.062c-1.24,1.84-2.883,2.759-4.929,2.759c-2.129,0-3.818-0.76-5.068-2.279
		c-1.251-1.519-1.875-3.374-1.875-5.564c0-2.066,0.63-3.849,1.891-5.347s2.914-2.248,4.96-2.248c2.087,0,3.761,0.951,5.022,2.852
		h0.062V20.15H85.495z M78.148,32.674c1.467,0,2.62-0.506,3.457-1.519c0.837-1.012,1.255-2.263,1.255-3.751
		c0-1.467-0.424-2.702-1.271-3.705c-0.848-1.002-1.995-1.503-3.441-1.503c-1.385,0-2.496,0.511-3.333,1.534
		c-0.837,1.023-1.255,2.248-1.255,3.674c0,1.447,0.413,2.687,1.24,3.72C75.626,32.157,76.743,32.674,78.148,32.674z"/>
	<path d="M92.315,22.754v11.904h-2.79V22.754h-1.519V20.15h1.519v-5.549h2.79v5.549h2.728v2.604H92.315z"/>
	<path d="M109.303,27.869H98.236c0.02,1.302,0.434,2.429,1.24,3.379c0.806,0.951,1.85,1.426,3.131,1.426
		c1.013,0,1.845-0.232,2.496-0.698c0.651-0.465,1.266-1.172,1.845-2.124l2.356,1.333c-0.682,1.24-1.617,2.212-2.806,2.914
		c-1.188,0.703-2.496,1.054-3.921,1.054c-2.17,0-3.901-0.723-5.192-2.17c-1.292-1.446-1.938-3.265-1.938-5.456
		c0-2.314,0.609-4.195,1.829-5.642c1.219-1.446,2.966-2.17,5.239-2.17c2.211,0,3.896,0.718,5.053,2.154
		c1.157,1.437,1.736,3.292,1.736,5.564V27.869z M98.391,25.761h8.122c-0.166-1.116-0.6-2-1.302-2.65
		c-0.703-0.651-1.602-0.977-2.697-0.977c-1.075,0-1.989,0.341-2.744,1.023S98.556,24.707,98.391,25.761z"/>
	<path d="M114.479,20.15v1.953h0.062c0.413-0.764,1.018-1.353,1.813-1.767c0.795-0.414,1.648-0.62,2.558-0.62
		c1.901,0,3.234,0.558,3.999,1.674c0.764,1.116,1.147,2.656,1.147,4.619v8.649h-2.79V26.35c0-1.426-0.202-2.475-0.604-3.146
		c-0.403-0.671-1.266-1.007-2.588-1.007c-0.579,0-1.085,0.073-1.519,0.217c-0.434,0.145-0.775,0.383-1.023,0.713
		c-0.248,0.331-0.45,0.646-0.604,0.946c-0.155,0.3-0.264,0.724-0.326,1.271c-0.062,0.548-0.098,0.977-0.108,1.287
		c-0.011,0.31-0.016,0.765-0.016,1.364v6.665h-2.79V20.15H114.479z"/>
	<path d="M131.096,22.754v11.904h-2.79V22.754h-1.519V20.15h1.519v-5.549h2.79v5.549h2.728v2.604H131.096z"/>
	<path d="M143.433,22.258l-2.263,1.209c-0.414-0.847-1.034-1.271-1.86-1.271c-0.393,0-0.744,0.14-1.054,0.418
		s-0.465,0.615-0.465,1.007c0,0.186,0.025,0.356,0.078,0.512c0.051,0.155,0.155,0.3,0.31,0.434c0.155,0.134,0.29,0.253,0.403,0.356
		c0.113,0.104,0.299,0.222,0.558,0.356c0.258,0.135,0.459,0.238,0.604,0.31c0.144,0.073,0.387,0.181,0.729,0.325
		c0.341,0.145,0.573,0.248,0.697,0.31c1.033,0.476,1.849,1.023,2.449,1.643c0.599,0.62,0.899,1.447,0.899,2.48
		c0,1.364-0.491,2.506-1.473,3.426c-0.982,0.919-2.154,1.379-3.519,1.379c-1.096,0-2.113-0.294-3.053-0.884
		c-0.941-0.589-1.597-1.379-1.969-2.371l2.387-1.085c0.682,1.24,1.56,1.86,2.635,1.86c0.599,0,1.116-0.191,1.55-0.574
		c0.434-0.382,0.651-0.873,0.651-1.472s-0.341-1.126-1.023-1.581l-2.728-1.457c-0.951-0.517-1.654-1.028-2.108-1.535
		c-0.455-0.506-0.682-1.214-0.682-2.124c0-1.178,0.418-2.175,1.255-2.991s1.845-1.225,3.022-1.225
		C141.283,19.716,142.606,20.563,143.433,22.258z"/>
</g>
<g>
	<rect x="341.779" y="7.5" fill="none" width="163" height="30.5"/>
	<path d="M346.926,24.612v9.796h-2.914V11.034h3.348c3.451,0,5.885,0.563,7.301,1.689c1.415,1.127,2.123,2.816,2.123,5.068
		c0,2.315-0.76,4.03-2.278,5.146c-1.519,1.116-3.487,1.674-5.905,1.674H346.926z M346.926,13.638v8.37h0.93
		c0.848,0,1.596-0.051,2.248-0.155c0.65-0.103,1.296-0.294,1.938-0.573c0.64-0.279,1.136-0.718,1.487-1.317
		c0.351-0.6,0.526-1.343,0.526-2.232c0-0.868-0.186-1.591-0.558-2.17c-0.372-0.578-0.899-0.997-1.581-1.255
		c-0.682-0.258-1.344-0.434-1.984-0.527c-0.641-0.093-1.385-0.14-2.231-0.14H346.926z"/>
	<path d="M362.021,19.9v2.356h0.094c0.352-0.868,0.873-1.55,1.565-2.046c0.692-0.496,1.493-0.744,2.402-0.744
		c0.785,0,1.55,0.238,2.294,0.713l-1.271,2.542c-0.454-0.392-1.022-0.589-1.705-0.589c-0.723,0-1.322,0.15-1.797,0.449
		c-0.477,0.3-0.822,0.724-1.039,1.271c-0.217,0.548-0.361,1.085-0.434,1.612c-0.072,0.527-0.109,1.131-0.109,1.813v7.13h-2.789V19.9
		H362.021z"/>
	<path d="M370.873,21.698c1.498-1.488,3.332-2.232,5.502-2.232s4.004,0.744,5.502,2.232c1.498,1.488,2.248,3.317,2.248,5.487
		s-0.75,3.999-2.248,5.487c-1.498,1.488-3.332,2.232-5.502,2.232s-4.004-0.744-5.502-2.232c-1.5-1.488-2.248-3.317-2.248-5.487
		S369.373,23.186,370.873,21.698z M379.878,23.62c-0.972-0.992-2.14-1.488-3.503-1.488c-1.364,0-2.531,0.496-3.503,1.488
		c-0.972,0.992-1.457,2.181-1.457,3.565c0,1.364,0.485,2.547,1.457,3.55s2.139,1.503,3.503,1.503c1.363,0,2.531-0.501,3.503-1.503
		s1.457-2.186,1.457-3.55C381.335,25.8,380.85,24.612,379.878,23.62z"/>
	<path d="M389.363,19.9v1.829h0.063c0.413-0.661,0.966-1.204,1.658-1.627c0.692-0.423,1.421-0.635,2.186-0.635
		c1.799,0,3.193,0.858,4.186,2.573c0.454-0.785,1.084-1.41,1.891-1.875c0.807-0.465,1.663-0.697,2.572-0.697
		c3.203,0,4.806,2.087,4.806,6.262v8.68h-2.79v-8.215c0-0.558-0.025-1.049-0.078-1.473c-0.051-0.423-0.165-0.868-0.34-1.333
		c-0.176-0.465-0.455-0.821-0.838-1.069s-0.863-0.372-1.441-0.372s-1.069,0.119-1.473,0.356c-0.402,0.238-0.713,0.527-0.93,0.868
		c-0.217,0.341-0.387,0.77-0.512,1.286c-0.123,0.517-0.201,0.982-0.232,1.395c-0.031,0.414-0.047,0.889-0.047,1.426v7.13h-2.789
		V26.72c0-0.496-0.011-0.909-0.031-1.24c-0.021-0.33-0.078-0.744-0.17-1.24c-0.094-0.496-0.229-0.888-0.404-1.178
		c-0.176-0.289-0.438-0.547-0.79-0.775c-0.352-0.227-0.774-0.341-1.271-0.341c-0.703,0-1.287,0.16-1.752,0.48
		c-0.465,0.321-0.795,0.775-0.992,1.364c-0.196,0.589-0.325,1.142-0.387,1.659c-0.063,0.517-0.094,1.126-0.094,1.829v7.13h-2.789
		V19.9H389.363z"/>
	<path d="M411.389,21.698c1.498-1.488,3.333-2.232,5.503-2.232s4.004,0.744,5.503,2.232c1.498,1.488,2.247,3.317,2.247,5.487
		s-0.749,3.999-2.247,5.487c-1.499,1.488-3.333,2.232-5.503,2.232s-4.005-0.744-5.503-2.232c-1.498-1.488-2.247-3.317-2.247-5.487
		S409.891,23.186,411.389,21.698z M420.395,23.62c-0.972-0.992-2.139-1.488-3.503-1.488s-2.532,0.496-3.503,1.488
		c-0.972,0.992-1.457,2.181-1.457,3.565c0,1.364,0.485,2.547,1.457,3.55c0.971,1.002,2.139,1.503,3.503,1.503
		s2.531-0.501,3.503-1.503c0.971-1.002,1.457-2.186,1.457-3.55C421.852,25.8,421.365,24.612,420.395,23.62z"/>
	<path d="M430.377,22.504v11.904h-2.791V22.504h-1.519V19.9h1.519v-5.549h2.791V19.9h2.727v2.604H430.377z"/>
	<path d="M447.364,27.619h-11.067c0.021,1.302,0.434,2.429,1.24,3.379c0.807,0.951,1.85,1.426,3.131,1.426
		c1.013,0,1.845-0.232,2.496-0.698c0.65-0.465,1.266-1.172,1.844-2.124l2.356,1.333c-0.683,1.24-1.617,2.212-2.806,2.914
		c-1.188,0.703-2.496,1.054-3.922,1.054c-2.17,0-3.9-0.723-5.191-2.17c-1.293-1.446-1.938-3.265-1.938-5.456
		c0-2.314,0.609-4.195,1.828-5.642c1.219-1.446,2.966-2.17,5.239-2.17c2.211,0,3.896,0.718,5.053,2.154
		c1.157,1.437,1.736,3.292,1.736,5.564V27.619z M436.452,25.511h8.122c-0.166-1.116-0.6-2-1.303-2.65
		c-0.702-0.651-1.602-0.977-2.696-0.977c-1.075,0-1.989,0.341-2.743,1.023C437.077,23.589,436.617,24.457,436.452,25.511z"/>
	<path d="M452.727,19.9v2.356h0.094c0.352-0.868,0.873-1.55,1.565-2.046c0.692-0.496,1.493-0.744,2.402-0.744
		c0.785,0,1.55,0.238,2.294,0.713l-1.271,2.542c-0.454-0.392-1.022-0.589-1.705-0.589c-0.723,0-1.322,0.15-1.797,0.449
		c-0.477,0.3-0.822,0.724-1.039,1.271c-0.217,0.548-0.361,1.085-0.434,1.612c-0.072,0.527-0.109,1.131-0.109,1.813v7.13h-2.789V19.9
		H452.727z"/>
	<path d="M468.723,22.008l-2.263,1.209c-0.413-0.847-1.034-1.271-1.86-1.271c-0.393,0-0.744,0.14-1.054,0.418
		s-0.465,0.615-0.465,1.007c0,0.186,0.025,0.356,0.077,0.512c0.052,0.155,0.155,0.3,0.311,0.434
		c0.154,0.134,0.289,0.253,0.402,0.356s0.3,0.222,0.559,0.356c0.258,0.135,0.459,0.238,0.604,0.31
		c0.144,0.073,0.388,0.181,0.729,0.325c0.341,0.145,0.573,0.248,0.697,0.31c1.033,0.476,1.849,1.023,2.449,1.643
		c0.599,0.62,0.899,1.447,0.899,2.48c0,1.364-0.492,2.506-1.473,3.426c-0.982,0.919-2.154,1.379-3.52,1.379
		c-1.096,0-2.113-0.294-3.053-0.884c-0.941-0.589-1.597-1.379-1.969-2.371l2.387-1.085c0.682,1.24,1.561,1.86,2.635,1.86
		c0.6,0,1.117-0.191,1.551-0.574c0.434-0.382,0.65-0.873,0.65-1.472s-0.341-1.126-1.022-1.581l-2.728-1.457
		c-0.951-0.517-1.654-1.028-2.108-1.535c-0.455-0.506-0.683-1.214-0.683-2.124c0-1.178,0.419-2.175,1.256-2.991
		s1.845-1.225,3.022-1.225C466.573,19.466,467.896,20.313,468.723,22.008z"/>
</g>
<g>
	<rect x="345.779" y="415.5" fill="none" width="155" height="27.5"/>
	<path d="M347.764,442.408v-23.375h4.836c3.781,0,6.912,0.998,9.393,2.992s3.721,4.852,3.721,8.571c0,3.823-1.23,6.748-3.689,8.772
		c-2.46,2.026-5.632,3.039-9.518,3.039H347.764z M350.678,421.699v18.043h1.022c1.57,0,2.997-0.155,4.278-0.465
		c1.281-0.311,2.443-0.807,3.487-1.488s1.86-1.623,2.449-2.821s0.884-2.614,0.884-4.247c0-1.653-0.295-3.079-0.884-4.277
		c-0.589-1.199-1.411-2.135-2.465-2.807c-1.054-0.671-2.216-1.162-3.487-1.473c-1.271-0.31-2.692-0.465-4.263-0.465H350.678z"/>
	<path d="M381.057,435.619H369.99c0.02,1.302,0.434,2.428,1.24,3.379c0.806,0.951,1.85,1.426,3.131,1.426
		c1.012,0,1.844-0.232,2.495-0.697s1.266-1.173,1.845-2.124l2.355,1.333c-0.682,1.24-1.617,2.212-2.805,2.914
		c-1.189,0.703-2.496,1.055-3.922,1.055c-2.17,0-3.901-0.724-5.192-2.17c-1.292-1.447-1.938-3.266-1.938-5.457
		c0-2.314,0.609-4.195,1.829-5.642c1.219-1.446,2.965-2.17,5.238-2.17c2.211,0,3.896,0.718,5.053,2.154
		c1.158,1.437,1.736,3.292,1.736,5.564V435.619z M370.145,433.511h8.123c-0.166-1.116-0.6-1.999-1.303-2.65
		s-1.602-0.977-2.697-0.977c-1.074,0-1.988,0.341-2.743,1.022C370.77,431.589,370.311,432.457,370.145,433.511z"/>
	<path d="M390.636,415.5v2.82c-0.889-0.393-1.509-0.588-1.86-0.588c-0.371,0-0.691,0.098-0.961,0.294
		c-0.268,0.196-0.465,0.419-0.588,0.667c-0.125,0.248-0.223,0.584-0.295,1.007c-0.072,0.424-0.113,0.755-0.124,0.992
		s-0.016,0.563-0.016,0.977v6.231h3.844v2.604h-3.844v11.904h-2.79v-11.904h-1.271V427.9h1.271v-7.068
		c0-3.803,1.561-5.704,4.682-5.704C389.365,415.128,390.016,415.252,390.636,415.5z"/>
	<path d="M404.71,435.619h-11.067c0.021,1.302,0.434,2.428,1.24,3.379s1.85,1.426,3.131,1.426c1.013,0,1.845-0.232,2.496-0.697
		c0.65-0.465,1.266-1.173,1.844-2.124l2.356,1.333c-0.683,1.24-1.617,2.212-2.806,2.914c-1.188,0.703-2.496,1.055-3.922,1.055
		c-2.17,0-3.9-0.724-5.191-2.17c-1.293-1.447-1.938-3.266-1.938-5.457c0-2.314,0.609-4.195,1.828-5.642s2.966-2.17,5.239-2.17
		c2.211,0,3.896,0.718,5.053,2.154s1.736,3.292,1.736,5.564V435.619z M393.798,433.511h8.122c-0.166-1.116-0.6-1.999-1.303-2.65
		c-0.702-0.651-1.602-0.977-2.696-0.977c-1.075,0-1.989,0.341-2.743,1.022C394.423,431.589,393.963,432.457,393.798,433.511z"/>
	<path d="M409.887,427.9v1.952h0.063c0.412-0.765,1.018-1.353,1.813-1.767c0.796-0.414,1.648-0.62,2.559-0.62
		c1.9,0,3.234,0.558,3.998,1.674c0.765,1.116,1.147,2.655,1.147,4.619v8.649h-2.79V434.1c0-1.426-0.201-2.475-0.604-3.146
		s-1.267-1.008-2.589-1.008c-0.578,0-1.084,0.073-1.519,0.217c-0.435,0.146-0.774,0.383-1.022,0.713
		c-0.248,0.332-0.45,0.646-0.605,0.946c-0.154,0.3-0.264,0.724-0.325,1.271c-0.062,0.549-0.099,0.977-0.108,1.287
		c-0.011,0.31-0.016,0.765-0.016,1.363v6.666h-2.79V427.9H409.887z"/>
	<path d="M434.129,442.408v-2.264h-0.063c-0.578,0.848-1.297,1.52-2.154,2.016s-1.782,0.744-2.774,0.744
		c-2.149,0-3.845-0.76-5.084-2.279c-1.24-1.519-1.86-3.373-1.86-5.564c0-2.066,0.631-3.849,1.891-5.348
		c1.262-1.498,2.904-2.247,4.93-2.247c2.107,0,3.792,0.95,5.053,2.853h0.063V415.5h2.789v26.908H434.129z M429.572,440.424
		c1.467,0,2.619-0.506,3.456-1.52c0.837-1.012,1.255-2.263,1.255-3.75c0-1.468-0.424-2.703-1.271-3.705
		c-0.848-1.002-1.995-1.504-3.44-1.504c-1.385,0-2.496,0.512-3.333,1.535s-1.255,2.247-1.255,3.674c0,1.446,0.412,2.686,1.239,3.719
		C427.05,439.907,428.166,440.424,429.572,440.424z"/>
	<path d="M453.287,435.619H442.22c0.021,1.302,0.434,2.428,1.239,3.379c0.807,0.951,1.85,1.426,3.131,1.426
		c1.014,0,1.846-0.232,2.496-0.697s1.266-1.173,1.845-2.124l2.356,1.333c-0.683,1.24-1.617,2.212-2.807,2.914
		c-1.188,0.703-2.495,1.055-3.921,1.055c-2.17,0-3.901-0.724-5.192-2.17c-1.292-1.447-1.938-3.266-1.938-5.457
		c0-2.314,0.609-4.195,1.828-5.642c1.22-1.446,2.967-2.17,5.24-2.17c2.211,0,3.895,0.718,5.053,2.154
		c1.156,1.437,1.736,3.292,1.736,5.564V435.619z M442.375,433.511h8.121c-0.165-1.116-0.6-1.999-1.302-2.65
		s-1.602-0.977-2.696-0.977c-1.075,0-1.99,0.341-2.744,1.022C443,431.589,442.539,432.457,442.375,433.511z"/>
	<path d="M458.649,427.9v2.355h0.093c0.352-0.868,0.873-1.551,1.566-2.047c0.691-0.495,1.492-0.743,2.402-0.743
		c0.785,0,1.549,0.237,2.293,0.713l-1.271,2.542c-0.454-0.393-1.022-0.589-1.705-0.589c-0.724,0-1.323,0.149-1.798,0.449
		c-0.476,0.3-0.821,0.724-1.039,1.271c-0.217,0.549-0.361,1.086-0.434,1.613c-0.072,0.526-0.108,1.131-0.108,1.813v7.131h-2.79
		V427.9H458.649z"/>
	<path d="M474.646,430.008l-2.263,1.209c-0.414-0.848-1.034-1.271-1.86-1.271c-0.394,0-0.744,0.141-1.054,0.419
		c-0.311,0.278-0.465,0.615-0.465,1.007c0,0.187,0.025,0.357,0.077,0.512c0.052,0.155,0.155,0.301,0.31,0.435
		c0.155,0.134,0.289,0.253,0.403,0.356c0.113,0.104,0.3,0.223,0.558,0.356c0.258,0.135,0.46,0.237,0.605,0.31
		c0.144,0.073,0.387,0.182,0.729,0.326c0.34,0.145,0.572,0.248,0.697,0.31c1.033,0.476,1.849,1.022,2.449,1.644
		c0.599,0.619,0.898,1.446,0.898,2.479c0,1.364-0.491,2.507-1.473,3.426c-0.982,0.919-2.154,1.38-3.519,1.38
		c-1.096,0-2.113-0.295-3.054-0.885c-0.94-0.588-1.596-1.379-1.969-2.371l2.388-1.085c0.682,1.24,1.56,1.86,2.635,1.86
		c0.599,0,1.116-0.191,1.55-0.574c0.434-0.381,0.651-0.872,0.651-1.472s-0.341-1.126-1.022-1.581l-2.729-1.457
		c-0.951-0.517-1.654-1.027-2.107-1.535c-0.455-0.506-0.683-1.213-0.683-2.123c0-1.178,0.419-2.175,1.255-2.991
		c0.838-0.816,1.846-1.225,3.023-1.225C472.496,427.466,473.818,428.313,474.646,430.008z"/>
</g>
<g>
	<rect x="53.279" y="415" fill="none" width="163" height="28.5"/>
	<path d="M69.554,436.049H58.828l-2.666,5.859h-3.131l11.16-24.367l11.16,24.367H72.22L69.554,436.049z M68.345,433.383
		l-4.154-9.455l-4.154,9.455H68.345z"/>
	<path d="M79.567,427.4v2.418h0.062c1.26-1.902,2.945-2.853,5.053-2.853c2.025,0,3.668,0.749,4.929,2.247
		c1.26,1.499,1.891,3.281,1.891,5.348c0,2.191-0.62,4.046-1.86,5.564c-1.24,1.52-2.935,2.279-5.084,2.279
		c-0.992,0-1.917-0.248-2.774-0.744c-0.858-0.496-1.576-1.168-2.154-2.016h-0.062v10.571h-2.79V427.4H79.567z M84,439.924
		c1.467,0,2.619-0.506,3.456-1.52c0.837-1.012,1.256-2.263,1.256-3.75c0-1.468-0.424-2.703-1.271-3.705
		c-0.848-1.002-1.995-1.504-3.441-1.504c-1.385,0-2.496,0.512-3.333,1.535c-0.837,1.023-1.256,2.247-1.256,3.674
		c0,1.446,0.413,2.686,1.24,3.719C81.478,439.407,82.594,439.924,84,439.924z"/>
	<path d="M107.838,427.4v14.508h-2.79v-2.264h-0.062c-1.24,1.84-2.883,2.76-4.929,2.76c-2.129,0-3.818-0.76-5.068-2.279
		c-1.251-1.519-1.875-3.373-1.875-5.564c0-2.066,0.63-3.849,1.891-5.348c1.261-1.498,2.914-2.247,4.96-2.247
		c2.087,0,3.761,0.95,5.022,2.853h0.062V427.4H107.838z M100.492,439.924c1.467,0,2.62-0.506,3.457-1.52
		c0.837-1.012,1.255-2.263,1.255-3.75c0-1.468-0.424-2.703-1.271-3.705c-0.848-1.002-1.995-1.504-3.441-1.504
		c-1.385,0-2.496,0.512-3.333,1.535s-1.255,2.247-1.255,3.674c0,1.446,0.413,2.686,1.24,3.719
		C97.97,439.407,99.086,439.924,100.492,439.924z"/>
	<path d="M114.659,430.004v11.904h-2.79v-11.904h-1.519V427.4h1.519v-5.55h2.79v5.55h2.728v2.604H114.659z"/>
	<path d="M118.905,415h2.79v14.353h0.062c0.413-0.765,1.018-1.353,1.813-1.767c0.795-0.414,1.648-0.62,2.558-0.62
		c1.901,0,3.234,0.558,3.999,1.674c0.764,1.116,1.147,2.655,1.147,4.619v8.649h-2.79V433.6c0-1.426-0.202-2.475-0.604-3.146
		s-1.266-1.008-2.588-1.008c-0.579,0-1.085,0.073-1.519,0.217c-0.434,0.146-0.775,0.383-1.023,0.713
		c-0.248,0.332-0.45,0.646-0.604,0.946c-0.155,0.3-0.264,0.724-0.326,1.271c-0.062,0.549-0.098,0.977-0.108,1.287
		c-0.011,0.31-0.016,0.765-0.016,1.363v6.666h-2.79V415z"/>
	<path d="M147.859,435.119h-11.067c0.02,1.302,0.434,2.428,1.24,3.379s1.85,1.426,3.131,1.426c1.013,0,1.845-0.232,2.496-0.697
		s1.266-1.173,1.845-2.124l2.356,1.333c-0.682,1.24-1.617,2.212-2.806,2.914c-1.188,0.703-2.496,1.055-3.921,1.055
		c-2.17,0-3.901-0.724-5.192-2.17c-1.292-1.447-1.938-3.266-1.938-5.457c0-2.314,0.609-4.195,1.829-5.642s2.966-2.17,5.239-2.17
		c2.211,0,3.896,0.718,5.053,2.154s1.736,3.292,1.736,5.564V435.119z M136.947,433.011h8.122c-0.166-1.116-0.6-1.999-1.302-2.65
		s-1.602-0.977-2.697-0.977c-1.075,0-1.989,0.341-2.744,1.022C137.572,431.089,137.112,431.957,136.947,433.011z"/>
	<path d="M153.439,430.004v11.904h-2.79v-11.904h-1.519V427.4h1.519v-5.55h2.79v5.55h2.728v2.604H153.439z"/>
	<path d="M158.337,419.387c0.372-0.383,0.826-0.574,1.364-0.574c0.537,0,0.992,0.191,1.364,0.574
		c0.372,0.383,0.558,0.842,0.558,1.379c0,0.518-0.186,0.961-0.558,1.333c-0.372,0.372-0.827,0.558-1.364,0.558
		c-0.538,0-0.992-0.186-1.364-0.558c-0.372-0.372-0.558-0.815-0.558-1.333C157.779,420.229,157.965,419.77,158.337,419.387z
		 M161.096,427.4v14.508h-2.79V427.4H161.096z"/>
	<path d="M176.224,427.927v3.597c-1.137-1.303-2.521-1.953-4.154-1.953c-1.344,0-2.485,0.506-3.426,1.519s-1.41,2.2-1.41,3.565
		c0,1.487,0.47,2.717,1.41,3.688s2.144,1.457,3.612,1.457c1.508,0,2.831-0.641,3.968-1.922v3.565
		c-1.199,0.64-2.532,0.961-3.999,0.961c-2.149,0-3.983-0.734-5.502-2.201c-1.519-1.468-2.278-3.275-2.278-5.426
		c0-2.231,0.759-4.092,2.278-5.58s3.405-2.231,5.658-2.231C173.847,426.966,175.128,427.286,176.224,427.927z"/>
	<path d="M187.322,429.508l-2.263,1.209c-0.414-0.848-1.034-1.271-1.86-1.271c-0.393,0-0.744,0.141-1.054,0.419
		s-0.465,0.615-0.465,1.007c0,0.187,0.025,0.357,0.078,0.512c0.051,0.155,0.155,0.301,0.31,0.435
		c0.155,0.134,0.29,0.253,0.403,0.356c0.113,0.104,0.299,0.223,0.558,0.356c0.258,0.135,0.459,0.237,0.604,0.31
		c0.144,0.073,0.387,0.182,0.729,0.326c0.341,0.145,0.573,0.248,0.697,0.31c1.033,0.476,1.849,1.022,2.449,1.644
		c0.599,0.619,0.899,1.446,0.899,2.479c0,1.364-0.491,2.507-1.473,3.426c-0.982,0.919-2.154,1.38-3.519,1.38
		c-1.096,0-2.113-0.295-3.053-0.885c-0.941-0.588-1.597-1.379-1.969-2.371l2.387-1.085c0.682,1.24,1.56,1.86,2.635,1.86
		c0.599,0,1.116-0.191,1.55-0.574c0.434-0.381,0.651-0.872,0.651-1.472s-0.341-1.126-1.023-1.581l-2.728-1.457
		c-0.951-0.517-1.654-1.027-2.108-1.535c-0.455-0.506-0.682-1.213-0.682-2.123c0-1.178,0.418-2.175,1.255-2.991
		s1.845-1.225,3.022-1.225C185.172,426.966,186.495,427.813,187.322,429.508z"/>
</g>
<g>
	<rect x="65.779" y="108.5" fill="none" width="189.5" height="29"/>
	<path d="M68.211,109.653h2.784v10.399h0.096c0.576-0.832,1.152-1.6,1.696-2.304l6.592-8.095h3.456l-7.807,9.151l8.415,12.415
		h-3.295l-7.072-10.591l-2.08,2.368v8.224h-2.784V109.653z"/>
	<path d="M87.027,123.988c0.064,3.808,2.464,5.375,5.312,5.375c2.016,0,3.264-0.352,4.288-0.8l0.512,2.016
		c-0.992,0.448-2.72,0.992-5.184,0.992c-4.768,0-7.616-3.168-7.616-7.839c0-4.672,2.752-8.319,7.264-8.319
		c5.087,0,6.399,4.416,6.399,7.263c0,0.576-0.032,0.992-0.096,1.312H87.027z M95.282,121.972c0.032-1.76-0.736-4.543-3.904-4.543
		c-2.88,0-4.096,2.592-4.32,4.543H95.282z"/>
	<path d="M103.059,123.988c0.064,3.808,2.464,5.375,5.312,5.375c2.016,0,3.264-0.352,4.288-0.8l0.512,2.016
		c-0.992,0.448-2.72,0.992-5.184,0.992c-4.768,0-7.616-3.168-7.616-7.839c0-4.672,2.752-8.319,7.264-8.319
		c5.087,0,6.399,4.416,6.399,7.263c0,0.576-0.032,0.992-0.096,1.312H103.059z M111.314,121.972c0.032-1.76-0.736-4.543-3.904-4.543
		c-2.88,0-4.096,2.592-4.32,4.543H111.314z"/>
	<path d="M117.522,120.789c0-1.984-0.064-3.584-0.128-5.056h2.496l0.16,2.656h0.064c1.12-1.888,2.976-2.976,5.503-2.976
		c3.776,0,6.592,3.167,6.592,7.839c0,5.567-3.424,8.319-7.072,8.319c-2.048,0-3.84-0.896-4.768-2.432h-0.064v8.416h-2.784V120.789z
		 M120.306,124.916c0,0.416,0.032,0.8,0.128,1.152c0.512,1.952,2.208,3.296,4.224,3.296c2.976,0,4.704-2.432,4.704-5.983
		c0-3.072-1.632-5.728-4.607-5.728c-1.92,0-3.744,1.344-4.256,3.456c-0.096,0.352-0.192,0.768-0.192,1.12V124.916z"/>
	<path d="M142.129,128.372c0.864,0.512,2.336,1.088,3.744,1.088c2.016,0,2.976-0.992,2.976-2.304c0-1.344-0.8-2.048-2.848-2.816
		c-2.816-1.024-4.128-2.528-4.128-4.384c0-2.496,2.048-4.543,5.344-4.543c1.568,0,2.944,0.416,3.776,0.96l-0.672,2.048
		c-0.608-0.384-1.728-0.928-3.167-0.928c-1.664,0-2.56,0.96-2.56,2.112c0,1.28,0.896,1.856,2.912,2.656
		c2.656,0.992,4.063,2.336,4.063,4.64c0,2.752-2.144,4.672-5.759,4.672c-1.696,0-3.264-0.448-4.352-1.088L142.129,128.372z"/>
	<path d="M166.064,127.508c0,1.344,0.064,2.656,0.224,3.712h-2.528l-0.224-1.952h-0.096c-0.864,1.216-2.528,2.304-4.736,2.304
		c-3.136,0-4.735-2.208-4.735-4.448c0-3.744,3.328-5.792,9.311-5.76v-0.32c0-1.248-0.352-3.583-3.52-3.552
		c-1.472,0-2.976,0.416-4.064,1.152l-0.64-1.888c1.28-0.8,3.167-1.344,5.12-1.344c4.735,0,5.887,3.231,5.887,6.303V127.508z
		 M163.345,123.316c-3.072-0.064-6.56,0.48-6.56,3.488c0,1.856,1.216,2.688,2.624,2.688c2.048,0,3.36-1.28,3.808-2.592
		c0.096-0.32,0.128-0.64,0.128-0.896V123.316z"/>
	<path d="M173.873,112.021v3.712h4.032v2.144h-4.032v8.352c0,1.92,0.544,3.008,2.112,3.008c0.768,0,1.216-0.064,1.632-0.192
		l0.128,2.144c-0.544,0.192-1.408,0.384-2.496,0.384c-1.312,0-2.368-0.448-3.04-1.184c-0.768-0.864-1.088-2.24-1.088-4.063v-8.448
		h-2.399v-2.144h2.399v-2.88L173.873,112.021z"/>
	<path d="M184.209,111.381c0,0.96-0.672,1.728-1.792,1.728c-1.024,0-1.696-0.768-1.696-1.728s0.704-1.76,1.76-1.76
		C183.505,109.621,184.209,110.389,184.209,111.381z M181.073,131.22v-15.487h2.816v15.487H181.073z"/>
	<path d="M188.177,128.372c0.864,0.512,2.336,1.088,3.744,1.088c2.016,0,2.976-0.992,2.976-2.304c0-1.344-0.8-2.048-2.848-2.816
		c-2.816-1.024-4.128-2.528-4.128-4.384c0-2.496,2.048-4.543,5.344-4.543c1.568,0,2.944,0.416,3.776,0.96l-0.672,2.048
		c-0.608-0.384-1.728-0.928-3.167-0.928c-1.664,0-2.56,0.96-2.56,2.112c0,1.28,0.896,1.856,2.912,2.656
		c2.656,0.992,4.063,2.336,4.063,4.64c0,2.752-2.144,4.672-5.76,4.672c-1.696,0-3.264-0.448-4.352-1.088L188.177,128.372z"/>
	<path d="M201.521,131.22v-13.343h-2.144v-2.144h2.144v-0.864c0-4.064,2.399-6.72,6.751-6.72c1.44,0,3.136,0.448,3.936,1.024
		l-0.8,2.144c-0.704-0.48-1.888-0.896-3.264-0.896c-2.976,0-3.84,2.08-3.84,4.543v0.768h8.991v15.487h-2.816v-13.343h-6.175v13.343
		H201.521z"/>
	<path d="M219.537,123.988c0.064,3.808,2.464,5.375,5.312,5.375c2.016,0,3.264-0.352,4.288-0.8l0.512,2.016
		c-0.992,0.448-2.72,0.992-5.184,0.992c-4.768,0-7.616-3.168-7.616-7.839c0-4.672,2.752-8.319,7.264-8.319
		c5.087,0,6.399,4.416,6.399,7.263c0,0.576-0.032,0.992-0.096,1.312H219.537z M227.792,121.972c0.032-1.76-0.736-4.543-3.904-4.543
		c-2.88,0-4.096,2.592-4.32,4.543H227.792z"/>
	<path d="M247.344,108.501v18.719c0,1.375,0.063,2.943,0.128,4h-2.496l-0.128-2.688h-0.096c-0.832,1.728-2.688,3.04-5.215,3.04
		c-3.744,0-6.656-3.168-6.656-7.872c-0.032-5.151,3.2-8.287,6.943-8.287c2.4,0,3.968,1.12,4.672,2.335h0.064v-9.247H247.344z
		 M244.56,122.037c0-0.352-0.032-0.832-0.128-1.184c-0.416-1.76-1.952-3.232-4.063-3.232c-2.912,0-4.64,2.56-4.64,5.952
		c0,3.136,1.568,5.728,4.576,5.728c1.888,0,3.616-1.28,4.128-3.36c0.096-0.384,0.128-0.768,0.128-1.216V122.037z"/>
</g>
<g>
	<rect x="287.029" y="108.5" fill="none" width="207.5" height="29"/>
	<path d="M307.636,121.749c-0.16-3.008-0.353-6.656-0.353-9.312h-0.063c-0.769,2.496-1.632,5.216-2.72,8.191l-3.808,10.463h-2.112
		l-3.52-10.271c-1.023-3.072-1.855-5.823-2.464-8.383h-0.063c-0.064,2.688-0.225,6.271-0.416,9.535l-0.576,9.248h-2.656
		l1.504-21.566h3.553l3.68,10.431c0.896,2.656,1.6,5.024,2.176,7.264h0.063c0.576-2.176,1.344-4.544,2.304-7.264l3.84-10.431h3.552
		l1.344,21.566h-2.751L307.636,121.749z"/>
	<path d="M326.164,127.508c0,1.344,0.063,2.656,0.224,3.712h-2.528l-0.224-1.952h-0.096c-0.864,1.216-2.528,2.304-4.735,2.304
		c-3.137,0-4.736-2.208-4.736-4.448c0-3.744,3.328-5.792,9.312-5.76v-0.32c0-1.248-0.353-3.583-3.52-3.552
		c-1.472,0-2.976,0.416-4.063,1.152l-0.641-1.888c1.28-0.8,3.168-1.344,5.12-1.344c4.735,0,5.888,3.231,5.888,6.303V127.508z
		 M323.443,123.316c-3.071-0.064-6.559,0.48-6.559,3.488c0,1.856,1.216,2.688,2.623,2.688c2.049,0,3.36-1.28,3.809-2.592
		c0.096-0.32,0.127-0.64,0.127-0.896V123.316z"/>
	<path d="M330.709,119.924c0-1.632-0.033-2.912-0.129-4.191h2.496l0.16,2.56h0.064c0.768-1.44,2.559-2.879,5.119-2.879
		c2.144,0,5.472,1.28,5.472,6.591v9.215h-2.815v-8.927c0-2.496-0.929-4.576-3.584-4.576c-1.824,0-3.264,1.312-3.775,2.88
		c-0.129,0.352-0.192,0.832-0.192,1.312v9.312h-2.815V119.924z"/>
	<path d="M359.348,127.508c0,1.344,0.063,2.656,0.224,3.712h-2.528l-0.224-1.952h-0.096c-0.864,1.216-2.528,2.304-4.735,2.304
		c-3.137,0-4.736-2.208-4.736-4.448c0-3.744,3.328-5.792,9.312-5.76v-0.32c0-1.248-0.353-3.583-3.52-3.552
		c-1.472,0-2.976,0.416-4.063,1.152l-0.641-1.888c1.28-0.8,3.168-1.344,5.12-1.344c4.735,0,5.888,3.231,5.888,6.303V127.508z
		 M356.627,123.316c-3.071-0.064-6.559,0.48-6.559,3.488c0,1.856,1.216,2.688,2.623,2.688c2.049,0,3.36-1.28,3.809-2.592
		c0.096-0.32,0.127-0.64,0.127-0.896V123.316z"/>
	<path d="M377.139,128.948c0,3.584-0.735,5.728-2.207,7.104c-1.536,1.376-3.713,1.856-5.664,1.856c-1.855,0-3.904-0.448-5.151-1.28
		l0.704-2.176c1.023,0.672,2.623,1.248,4.543,1.248c2.88,0,4.992-1.504,4.992-5.439v-1.696h-0.064
		c-0.832,1.44-2.527,2.592-4.928,2.592c-3.84,0-6.592-3.264-6.592-7.551c0-5.248,3.424-8.191,7.008-8.191
		c2.688,0,4.128,1.375,4.832,2.656h0.064l0.096-2.336h2.496c-0.097,1.088-0.129,2.368-0.129,4.224V128.948z M374.323,121.844
		c0-0.48-0.032-0.896-0.16-1.248c-0.512-1.664-1.855-3.008-3.936-3.008c-2.688,0-4.608,2.271-4.608,5.855
		c0,3.04,1.568,5.567,4.576,5.567c1.76,0,3.328-1.088,3.904-2.879c0.16-0.48,0.224-1.024,0.224-1.504V121.844z"/>
	<path d="M383.348,123.988c0.064,3.808,2.464,5.375,5.312,5.375c2.016,0,3.264-0.352,4.288-0.8l0.512,2.016
		c-0.992,0.448-2.72,0.992-5.184,0.992c-4.768,0-7.615-3.168-7.615-7.839c0-4.672,2.752-8.319,7.264-8.319
		c5.087,0,6.398,4.416,6.398,7.263c0,0.576-0.031,0.992-0.096,1.312H383.348z M391.604,121.972c0.031-1.76-0.736-4.543-3.904-4.543
		c-2.88,0-4.096,2.592-4.32,4.543H391.604z"/>
	<path d="M415.635,130.676c-0.736,0.352-2.368,0.896-4.448,0.896c-4.671,0-7.712-3.168-7.712-7.903c0-4.768,3.264-8.255,8.32-8.255
		c1.664,0,3.135,0.416,3.903,0.832l-0.64,2.144c-0.672-0.352-1.729-0.736-3.264-0.736c-3.553,0-5.473,2.656-5.473,5.855
		c0,3.583,2.305,5.792,5.377,5.792c1.6,0,2.655-0.384,3.455-0.736L415.635,130.676z"/>
	<path d="M418.932,108.501h2.815v22.718h-2.815V108.501z"/>
	<path d="M440.498,123.348c0,5.728-4,8.224-7.712,8.224c-4.159,0-7.423-3.072-7.423-7.967c0-5.152,3.424-8.191,7.68-8.191
		C437.49,115.413,440.498,118.645,440.498,123.348z M428.242,123.508c0,3.392,1.92,5.952,4.672,5.952
		c2.688,0,4.704-2.528,4.704-6.016c0-2.624-1.312-5.919-4.64-5.919C429.683,117.525,428.242,120.597,428.242,123.508z"/>
	<path d="M443.666,128.372c0.865,0.512,2.336,1.088,3.744,1.088c2.016,0,2.977-0.992,2.977-2.304c0-1.344-0.801-2.048-2.848-2.816
		c-2.816-1.024-4.129-2.528-4.129-4.384c0-2.496,2.049-4.543,5.344-4.543c1.568,0,2.944,0.416,3.776,0.96l-0.673,2.048
		c-0.607-0.384-1.727-0.928-3.167-0.928c-1.664,0-2.56,0.96-2.56,2.112c0,1.28,0.896,1.856,2.912,2.656
		c2.655,0.992,4.063,2.336,4.063,4.64c0,2.752-2.143,4.672-5.759,4.672c-1.696,0-3.265-0.448-4.353-1.088L443.666,128.372z"/>
	<path d="M458.291,123.988c0.063,3.808,2.463,5.375,5.311,5.375c2.016,0,3.264-0.352,4.288-0.8l0.512,2.016
		c-0.991,0.448-2.72,0.992-5.183,0.992c-4.769,0-7.616-3.168-7.616-7.839c0-4.672,2.752-8.319,7.264-8.319
		c5.087,0,6.399,4.416,6.399,7.263c0,0.576-0.032,0.992-0.096,1.312H458.291z M466.546,121.972c0.032-1.76-0.735-4.543-3.903-4.543
		c-2.881,0-4.096,2.592-4.32,4.543H466.546z"/>
	<path d="M472.754,108.501h2.815v22.718h-2.815V108.501z"/>
	<path d="M481.33,115.733l3.36,9.151c0.384,1.024,0.768,2.24,1.023,3.167h0.064c0.288-0.928,0.607-2.112,0.992-3.231l3.071-9.087
		h2.976l-4.224,11.039c-2.016,5.312-3.392,8-5.312,9.695c-1.408,1.184-2.752,1.664-3.456,1.792l-0.703-2.336
		c0.703-0.224,1.632-0.672,2.464-1.376c0.768-0.608,1.695-1.696,2.367-3.136c0.128-0.288,0.225-0.512,0.225-0.672
		s-0.064-0.384-0.225-0.736l-5.695-14.271H481.33z"/>
</g>
<g>
	<rect x="100.529" y="313.5" fill="none" width="111.5" height="31"/>
	<path d="M121.136,326.748c-0.16-3.008-0.352-6.655-0.352-9.311h-0.064c-0.768,2.496-1.632,5.215-2.72,8.191l-3.808,10.463h-2.112
		l-3.52-10.271c-1.024-3.072-1.855-5.823-2.464-8.383h-0.064c-0.064,2.688-0.224,6.271-0.416,9.535l-0.576,9.247h-2.656
		l1.504-21.566h3.552l3.68,10.431c0.896,2.656,1.6,5.024,2.176,7.264h0.064c0.576-2.176,1.344-4.543,2.304-7.264l3.84-10.431h3.552
		l1.344,21.566h-2.751L121.136,326.748z"/>
	<path d="M142.799,328.348c0,5.729-4,8.225-7.711,8.225c-4.16,0-7.423-3.072-7.423-7.968c0-5.151,3.424-8.191,7.68-8.191
		C139.792,320.413,142.799,323.645,142.799,328.348z M130.544,328.508c0,3.393,1.92,5.952,4.672,5.952
		c2.688,0,4.704-2.528,4.704-6.016c0-2.624-1.312-5.919-4.64-5.919C131.984,322.525,130.544,325.597,130.544,328.508z"/>
	<path d="M146.353,324.924c0-1.631-0.032-2.911-0.128-4.191h2.496l0.16,2.561h0.064c0.768-1.44,2.56-2.88,5.12-2.88
		c2.144,0,5.472,1.28,5.472,6.591v9.216h-2.816v-8.927c0-2.496-0.928-4.576-3.584-4.576c-1.824,0-3.264,1.313-3.775,2.88
		c-0.128,0.352-0.192,0.831-0.192,1.312v9.312h-2.816V324.924z"/>
	<path d="M167.248,316.381c0,0.961-0.672,1.729-1.792,1.729c-1.024,0-1.696-0.768-1.696-1.729c0-0.959,0.704-1.76,1.76-1.76
		C166.544,314.621,167.248,315.389,167.248,316.381z M164.112,336.22v-15.487h2.816v15.487H164.112z"/>
	<path d="M174.992,317.021v3.711h4.032v2.145h-4.032v8.352c0,1.92,0.544,3.008,2.112,3.008c0.768,0,1.216-0.064,1.632-0.192
		l0.128,2.144c-0.544,0.192-1.408,0.385-2.496,0.385c-1.312,0-2.368-0.449-3.04-1.185c-0.768-0.864-1.088-2.239-1.088-4.063v-8.447
		h-2.399v-2.145h2.399v-2.879L174.992,317.021z"/>
	<path d="M196.015,328.348c0,5.729-4,8.225-7.711,8.225c-4.16,0-7.423-3.072-7.423-7.968c0-5.151,3.424-8.191,7.68-8.191
		C193.007,320.413,196.015,323.645,196.015,328.348z M183.76,328.508c0,3.393,1.92,5.952,4.672,5.952
		c2.688,0,4.704-2.528,4.704-6.016c0-2.624-1.312-5.919-4.64-5.919C185.2,322.525,183.76,325.597,183.76,328.508z"/>
	<path d="M199.568,325.564c0-1.824-0.032-3.392-0.128-4.832h2.464l0.128,3.072h0.096c0.704-2.08,2.432-3.392,4.32-3.392
		c0.288,0,0.512,0.032,0.768,0.063v2.656c-0.288-0.064-0.576-0.064-0.96-0.064c-1.984,0-3.392,1.473-3.776,3.584
		c-0.064,0.385-0.096,0.864-0.096,1.313v8.255h-2.816V325.564z"/>
</g>
<g>
	<rect x="287.029" y="310" fill="none" width="207.5" height="38"/>
	<path d="M289.461,311.153h2.784v10.399h0.096c0.576-0.832,1.151-1.6,1.696-2.305l6.592-8.095h3.455l-7.807,9.151l8.414,12.415
		h-3.295l-7.072-10.591l-2.079,2.367v8.224h-2.784V311.153z"/>
	<path d="M308.277,325.488c0.063,3.808,2.463,5.375,5.311,5.375c2.016,0,3.264-0.352,4.288-0.799l0.513,2.016
		c-0.992,0.447-2.721,0.992-5.184,0.992c-4.769,0-7.616-3.168-7.616-7.84s2.752-8.319,7.264-8.319c5.087,0,6.399,4.415,6.399,7.263
		c0,0.576-0.032,0.992-0.096,1.313H308.277z M316.532,323.473c0.032-1.76-0.735-4.544-3.903-4.544c-2.881,0-4.096,2.592-4.32,4.544
		H316.532z"/>
	<path d="M324.309,325.488c0.064,3.808,2.464,5.375,5.312,5.375c2.016,0,3.264-0.352,4.288-0.799l0.512,2.016
		c-0.992,0.447-2.72,0.992-5.184,0.992c-4.768,0-7.615-3.168-7.615-7.84s2.752-8.319,7.264-8.319c5.087,0,6.398,4.415,6.398,7.263
		c0,0.576-0.031,0.992-0.096,1.313H324.309z M332.564,323.473c0.031-1.76-0.736-4.544-3.904-4.544c-2.88,0-4.096,2.592-4.32,4.544
		H332.564z"/>
	<path d="M338.772,322.289c0-1.984-0.063-3.584-0.128-5.057h2.496l0.16,2.656h0.063c1.12-1.888,2.976-2.976,5.503-2.976
		c3.776,0,6.592,3.167,6.592,7.839c0,5.568-3.424,8.32-7.071,8.32c-2.048,0-3.84-0.896-4.768-2.433h-0.063v8.415h-2.784V322.289z
		 M341.557,326.416c0,0.416,0.031,0.801,0.127,1.152c0.513,1.951,2.209,3.295,4.225,3.295c2.976,0,4.703-2.432,4.703-5.982
		c0-3.072-1.632-5.729-4.607-5.729c-1.92,0-3.744,1.344-4.256,3.456c-0.096,0.353-0.191,0.769-0.191,1.12V326.416z"/>
	<path d="M366.899,312.881c0,0.961-0.672,1.729-1.792,1.729c-1.023,0-1.695-0.768-1.695-1.729c0-0.959,0.703-1.76,1.76-1.76
		C366.195,311.121,366.899,311.889,366.899,312.881z M363.764,332.72v-15.487h2.816v15.487H363.764z"/>
	<path d="M371.252,321.424c0-1.631-0.033-2.911-0.129-4.191h2.496l0.16,2.561h0.064c0.768-1.44,2.559-2.88,5.119-2.88
		c2.144,0,5.472,1.28,5.472,6.591v9.216h-2.815v-8.927c0-2.496-0.929-4.576-3.584-4.576c-1.824,0-3.264,1.313-3.775,2.88
		c-0.129,0.352-0.192,0.831-0.192,1.312v9.312h-2.815V321.424z"/>
	<path d="M389.299,332.72v-13.343h-2.144v-2.145h2.144v-0.735c0-2.176,0.512-4.159,1.792-5.407c1.056-1.024,2.464-1.44,3.776-1.44
		c1.023,0,1.855,0.224,2.399,0.448l-0.384,2.176c-0.416-0.192-0.96-0.352-1.792-0.352c-2.399,0-3.008,2.079-3.008,4.479v0.832h3.743
		v2.145h-3.743v13.343H389.299z"/>
	<path d="M411.954,324.848c0,5.729-3.999,8.225-7.712,8.225c-4.159,0-7.423-3.072-7.423-7.968c0-5.151,3.424-8.191,7.68-8.191
		C408.947,316.913,411.954,320.145,411.954,324.848z M399.699,325.008c0,3.393,1.92,5.952,4.672,5.952
		c2.688,0,4.703-2.528,4.703-6.016c0-2.624-1.312-5.919-4.639-5.919C401.139,319.025,399.699,322.097,399.699,325.008z"/>
	<path d="M415.508,322.064c0-1.824-0.033-3.392-0.129-4.832h2.465l0.127,3.072h0.096c0.705-2.08,2.433-3.392,4.32-3.392
		c0.288,0,0.512,0.032,0.768,0.063v2.656c-0.287-0.064-0.576-0.064-0.959-0.064c-1.984,0-3.393,1.473-3.776,3.584
		c-0.063,0.385-0.096,0.864-0.096,1.313v8.255h-2.815V322.064z"/>
	<path d="M426.1,321.424c0-1.631-0.064-2.911-0.129-4.191h2.465l0.127,2.528h0.096c0.865-1.472,2.305-2.848,4.896-2.848
		c2.08,0,3.68,1.28,4.352,3.104h0.064c0.479-0.896,1.119-1.536,1.76-2.016c0.928-0.704,1.92-1.088,3.391-1.088
		c2.08,0,5.12,1.344,5.12,6.72v9.087h-2.751v-8.735c0-3.008-1.121-4.768-3.36-4.768c-1.632,0-2.848,1.184-3.36,2.527
		c-0.127,0.416-0.224,0.896-0.224,1.408v9.567h-2.751v-9.279c0-2.464-1.088-4.224-3.232-4.224c-1.729,0-3.039,1.408-3.488,2.816
		c-0.159,0.383-0.224,0.895-0.224,1.375v9.312H426.1V321.424z"/>
	<path d="M454.355,325.488c0.063,3.808,2.463,5.375,5.311,5.375c2.016,0,3.264-0.352,4.288-0.799l0.513,2.016
		c-0.992,0.447-2.721,0.992-5.184,0.992c-4.769,0-7.616-3.168-7.616-7.84s2.752-8.319,7.264-8.319c5.087,0,6.399,4.415,6.399,7.263
		c0,0.576-0.032,0.992-0.096,1.313H454.355z M462.61,323.473c0.032-1.76-0.735-4.544-3.903-4.544c-2.881,0-4.096,2.592-4.32,4.544
		H462.61z"/>
	<path d="M482.162,310.002v18.719c0,1.375,0.063,2.943,0.128,3.999h-2.496l-0.128-2.688h-0.096
		c-0.832,1.729-2.688,3.041-5.216,3.041c-3.744,0-6.655-3.168-6.655-7.872c-0.032-5.151,3.199-8.287,6.943-8.287
		c2.399,0,3.968,1.12,4.672,2.335h0.063v-9.246H482.162z M479.378,323.537c0-0.353-0.032-0.832-0.128-1.185
		c-0.416-1.76-1.952-3.231-4.063-3.231c-2.912,0-4.64,2.56-4.64,5.951c0,3.136,1.567,5.728,4.575,5.728
		c1.888,0,3.616-1.28,4.128-3.36c0.096-0.383,0.128-0.768,0.128-1.215V323.537z"/>
</g>
<g>
	<rect x="0.279" y="178.5" fill="none" width="32" height="89"/>
	<path d="M17.391,262.354h9.796v2.914H3.813v-3.348c0-3.451,0.563-5.885,1.689-7.301c1.127-1.415,2.816-2.123,5.068-2.123
		c2.315,0,4.03,0.759,5.146,2.278c1.116,1.519,1.674,3.487,1.674,5.905V262.354z M6.417,262.354h8.37v-0.93
		c0-0.848-0.051-1.596-0.155-2.248c-0.103-0.65-0.294-1.296-0.573-1.938c-0.279-0.64-0.718-1.136-1.317-1.487
		c-0.6-0.351-1.343-0.526-2.232-0.526c-0.868,0-1.591,0.186-2.17,0.558c-0.578,0.372-0.997,0.899-1.255,1.581
		c-0.258,0.682-0.434,1.344-0.527,1.984c-0.093,0.641-0.14,1.385-0.14,2.231V262.354z"/>
	<path d="M14.477,249.288c-1.488-1.498-2.232-3.333-2.232-5.502s0.744-4.004,2.232-5.502c1.488-1.498,3.317-2.248,5.487-2.248
		s3.999,0.75,5.487,2.248c1.488,1.499,2.232,3.333,2.232,5.502s-0.744,4.004-2.232,5.502c-1.488,1.499-3.317,2.248-5.487,2.248
		S15.965,250.787,14.477,249.288z M16.399,240.282c-0.992,0.972-1.488,2.139-1.488,3.503c0,1.364,0.496,2.532,1.488,3.503
		c0.992,0.972,2.181,1.457,3.565,1.457c1.364,0,2.547-0.485,3.55-1.457c1.002-0.971,1.503-2.139,1.503-3.503
		c0-1.364-0.501-2.531-1.503-3.503c-1.002-0.971-2.186-1.457-3.55-1.457C18.58,238.825,17.391,239.311,16.399,240.282z"/>
	<path d="M12.679,232.75l9.238-4.216l-10.044-4.278l10.044-4.247l-9.238-4.216v-3.162l15.004,7.378l-9.703,4.247l9.703,4.278
		l-15.004,7.378V232.75z"/>
	<path d="M20.398,198.495v11.067c1.302-0.02,2.429-0.434,3.379-1.24c0.951-0.806,1.426-1.85,1.426-3.131
		c0-1.013-0.232-1.845-0.698-2.496c-0.465-0.651-1.172-1.266-2.124-1.845l1.333-2.356c1.24,0.682,2.212,1.617,2.914,2.806
		c0.703,1.188,1.054,2.496,1.054,3.921c0,2.17-0.723,3.901-2.17,5.192c-1.446,1.292-3.265,1.938-5.456,1.938
		c-2.314,0-4.195-0.609-5.642-1.829c-1.446-1.219-2.17-2.966-2.17-5.239c0-2.211,0.718-3.896,2.154-5.053
		c1.437-1.157,3.292-1.736,5.564-1.736H20.398z M18.29,209.407v-8.122c-1.116,0.166-2,0.6-2.65,1.302
		c-0.651,0.703-0.977,1.602-0.977,2.697c0,1.075,0.341,1.989,1.023,2.744S17.236,209.242,18.29,209.407z"/>
	<path d="M12.679,193.132h2.356v-0.093c-0.868-0.351-1.55-0.873-2.046-1.565c-0.496-0.692-0.744-1.493-0.744-2.402
		c0-0.785,0.238-1.55,0.713-2.294l2.542,1.271c-0.392,0.455-0.589,1.023-0.589,1.705c0,0.724,0.15,1.323,0.449,1.798
		c0.3,0.476,0.724,0.821,1.271,1.039c0.548,0.217,1.085,0.362,1.612,0.434c0.527,0.072,1.131,0.108,1.813,0.108h7.13v2.79H12.679
		V193.132z"/>
</g>
<g>
	<rect x="228.279" y="454" fill="none" width="97" height="35"/>
	<path d="M233.333,457.534v23.374h-2.914v-23.374H233.333z"/>
	<path d="M240.183,466.4v1.953h0.062c0.413-0.765,1.018-1.354,1.813-1.768c0.795-0.413,1.648-0.62,2.558-0.62
		c1.901,0,3.234,0.559,3.999,1.675c0.764,1.115,1.147,2.655,1.147,4.618v8.649h-2.79v-8.308c0-1.427-0.202-2.475-0.604-3.146
		s-1.266-1.008-2.588-1.008c-0.579,0-1.085,0.072-1.519,0.217s-0.775,0.383-1.023,0.713c-0.248,0.331-0.45,0.646-0.604,0.945
		c-0.155,0.3-0.264,0.724-0.326,1.271s-0.098,0.977-0.108,1.286c-0.011,0.311-0.016,0.765-0.016,1.364v6.665h-2.79V466.4H240.183z"
		/>
	<path d="M256.799,469.004v11.904h-2.789v-11.904h-1.52V466.4h1.52v-5.549h2.789v5.549h2.729v2.604H256.799z"/>
	<path d="M273.787,474.119h-11.066c0.02,1.302,0.434,2.429,1.239,3.379c0.806,0.951,1.85,1.426,3.131,1.426
		c1.013,0,1.845-0.232,2.495-0.697c0.651-0.465,1.266-1.173,1.846-2.123l2.355,1.333c-0.682,1.239-1.617,2.211-2.806,2.914
		c-1.188,0.702-2.495,1.054-3.921,1.054c-2.17,0-3.902-0.724-5.193-2.17s-1.938-3.266-1.938-5.456c0-2.314,0.609-4.195,1.829-5.643
		c1.22-1.446,2.966-2.17,5.239-2.17c2.211,0,3.896,0.719,5.053,2.155s1.736,3.291,1.736,5.564V474.119z M262.875,472.011h8.122
		c-0.165-1.115-0.6-1.999-1.302-2.65c-0.703-0.65-1.602-0.977-2.697-0.977c-1.074,0-1.989,0.342-2.744,1.023
		C263.5,470.089,263.04,470.957,262.875,472.011z"/>
	<path d="M279.15,466.4v2.355h0.093c0.351-0.867,0.872-1.55,1.565-2.046c0.691-0.496,1.492-0.744,2.402-0.744
		c0.785,0,1.55,0.238,2.294,0.714l-1.271,2.542c-0.455-0.393-1.023-0.59-1.705-0.59c-0.725,0-1.323,0.15-1.799,0.45
		c-0.475,0.3-0.82,0.724-1.038,1.271c-0.217,0.548-0.362,1.085-0.435,1.612s-0.107,1.132-0.107,1.813v7.13h-2.791V466.4H279.15z"/>
	<path d="M299.796,474.119h-11.067c0.021,1.302,0.434,2.429,1.24,3.379c0.807,0.951,1.85,1.426,3.131,1.426
		c1.013,0,1.845-0.232,2.496-0.697c0.65-0.465,1.266-1.173,1.844-2.123l2.356,1.333c-0.683,1.239-1.617,2.211-2.806,2.914
		c-1.188,0.702-2.496,1.054-3.922,1.054c-2.17,0-3.9-0.724-5.191-2.17c-1.293-1.446-1.938-3.266-1.938-5.456
		c0-2.314,0.609-4.195,1.828-5.643c1.219-1.446,2.966-2.17,5.239-2.17c2.211,0,3.896,0.719,5.053,2.155s1.736,3.291,1.736,5.564
		V474.119z M288.884,472.011h8.122c-0.166-1.115-0.6-1.999-1.303-2.65c-0.702-0.65-1.602-0.977-2.696-0.977
		c-1.075,0-1.989,0.342-2.743,1.023C289.509,470.089,289.049,470.957,288.884,472.011z"/>
	<path d="M310.273,468.508l-2.263,1.209c-0.413-0.847-1.034-1.271-1.86-1.271c-0.393,0-0.744,0.14-1.054,0.418
		c-0.31,0.279-0.465,0.615-0.465,1.008c0,0.187,0.025,0.356,0.077,0.512s0.155,0.3,0.311,0.434c0.154,0.135,0.289,0.254,0.402,0.356
		c0.113,0.104,0.3,0.223,0.559,0.356c0.258,0.135,0.459,0.238,0.604,0.311c0.144,0.072,0.388,0.181,0.729,0.325
		s0.573,0.248,0.697,0.311c1.033,0.476,1.849,1.022,2.449,1.643c0.599,0.62,0.899,1.447,0.899,2.48c0,1.363-0.492,2.506-1.473,3.425
		c-0.982,0.92-2.154,1.38-3.52,1.38c-1.096,0-2.113-0.295-3.053-0.884c-0.941-0.589-1.597-1.379-1.969-2.371l2.387-1.085
		c0.682,1.24,1.561,1.859,2.635,1.859c0.6,0,1.117-0.19,1.551-0.573c0.434-0.382,0.65-0.873,0.65-1.473
		c0-0.599-0.341-1.126-1.022-1.581l-2.728-1.457c-0.951-0.516-1.654-1.027-2.108-1.534c-0.455-0.506-0.683-1.214-0.683-2.123
		c0-1.179,0.419-2.175,1.256-2.992c0.837-0.815,1.845-1.225,3.022-1.225C308.124,465.966,309.447,466.813,310.273,468.508z"/>
	<path d="M317.279,469.004v11.904h-2.789v-11.904h-1.52V466.4h1.52v-5.549h2.789v5.549h2.729v2.604H317.279z"/>
</g>
</svg>
