<?xml version="1.0" encoding="UTF-8"?>
<svg xmlns="http://www.w3.org/2000/svg" xmlns:xlink="http://www.w3.org/1999/xlink" fill-opacity="1" color-rendering="auto" color-interpolation="auto" stroke="black" text-rendering="auto" stroke-linecap="square" width="861" stroke-miterlimit="10" stroke-opacity="1" shape-rendering="auto" fill="black" stroke-dasharray="none" font-weight="normal" stroke-width="1" height="796" font-family="'Dialog'" font-style="normal" stroke-linejoin="miter" font-size="12" stroke-dashoffset="0" image-rendering="auto">
  <!--Generated by ySVG-->
  <defs id="genericDefs"/>
  <g>
    <defs id="defs1">
      <linearGradient x1="170" gradientUnits="userSpaceOnUse" x2="250" y1="159" y2="204" id="linearGradient1" spreadMethod="pad">
        <stop stop-opacity="1" stop-color="rgb(246,245,245)" offset="0%"/>
        <stop stop-opacity="1" stop-color="rgb(213,212,212)" offset="100%"/>
      </linearGradient>
      <linearGradient x1="299" gradientUnits="userSpaceOnUse" x2="396" y1="159" y2="204" id="linearGradient2" spreadMethod="pad">
        <stop stop-opacity="1" stop-color="rgb(246,245,245)" offset="0%"/>
        <stop stop-opacity="1" stop-color="rgb(213,212,212)" offset="100%"/>
      </linearGradient>
      <linearGradient x1="446.1353" gradientUnits="userSpaceOnUse" x2="543.1353" y1="159" y2="204" id="linearGradient3" spreadMethod="pad">
        <stop stop-opacity="1" stop-color="rgb(246,245,245)" offset="0%"/>
        <stop stop-opacity="1" stop-color="rgb(213,212,212)" offset="100%"/>
      </linearGradient>
      <linearGradient x1="446.1353" gradientUnits="userSpaceOnUse" x2="543.1353" y1="234" y2="303" id="linearGradient4" spreadMethod="pad">
        <stop stop-opacity="1" stop-color="rgb(246,245,245)" offset="0%"/>
        <stop stop-opacity="1" stop-color="rgb(213,212,212)" offset="100%"/>
      </linearGradient>
      <linearGradient x1="446.1353" gradientUnits="userSpaceOnUse" x2="543.1353" y1="333" y2="378" id="linearGradient5" spreadMethod="pad">
        <stop stop-opacity="1" stop-color="rgb(246,245,245)" offset="0%"/>
        <stop stop-opacity="1" stop-color="rgb(213,212,212)" offset="100%"/>
      </linearGradient>
      <linearGradient x1="446.1353" gradientUnits="userSpaceOnUse" x2="543.1353" y1="465" y2="510" id="linearGradient6" spreadMethod="pad">
        <stop stop-opacity="1" stop-color="rgb(246,245,245)" offset="0%"/>
        <stop stop-opacity="1" stop-color="rgb(213,212,212)" offset="100%"/>
      </linearGradient>
      <linearGradient x1="583" gradientUnits="userSpaceOnUse" x2="680" y1="378" y2="423" id="linearGradient7" spreadMethod="pad">
        <stop stop-opacity="1" stop-color="rgb(246,245,245)" offset="0%"/>
        <stop stop-opacity="1" stop-color="rgb(213,212,212)" offset="100%"/>
      </linearGradient>
      <linearGradient x1="583" gradientUnits="userSpaceOnUse" x2="680" y1="453" y2="522" id="linearGradient8" spreadMethod="pad">
        <stop stop-opacity="1" stop-color="rgb(246,245,245)" offset="0%"/>
        <stop stop-opacity="1" stop-color="rgb(213,212,212)" offset="100%"/>
      </linearGradient>
      <linearGradient x1="583" gradientUnits="userSpaceOnUse" x2="680" y1="552" y2="597" id="linearGradient9" spreadMethod="pad">
        <stop stop-opacity="1" stop-color="rgb(246,245,245)" offset="0%"/>
        <stop stop-opacity="1" stop-color="rgb(213,212,212)" offset="100%"/>
      </linearGradient>
      <linearGradient x1="446.1353" gradientUnits="userSpaceOnUse" x2="543.1353" y1="597" y2="642" id="linearGradient10" spreadMethod="pad">
        <stop stop-opacity="1" stop-color="rgb(246,245,245)" offset="0%"/>
        <stop stop-opacity="1" stop-color="rgb(213,212,212)" offset="100%"/>
      </linearGradient>
      <linearGradient x1="719.8647" gradientUnits="userSpaceOnUse" x2="816.8647" y1="465" y2="510" id="linearGradient11" spreadMethod="pad">
        <stop stop-opacity="1" stop-color="rgb(246,245,245)" offset="0%"/>
        <stop stop-opacity="1" stop-color="rgb(213,212,212)" offset="100%"/>
      </linearGradient>
      <linearGradient x1="446.1353" gradientUnits="userSpaceOnUse" x2="543.1353" y1="672" y2="717" id="linearGradient12" spreadMethod="pad">
        <stop stop-opacity="1" stop-color="rgb(246,245,245)" offset="0%"/>
        <stop stop-opacity="1" stop-color="rgb(213,212,212)" offset="100%"/>
      </linearGradient>
      <linearGradient x1="719.8647" gradientUnits="userSpaceOnUse" x2="816.8647" y1="672" y2="717" id="linearGradient13" spreadMethod="pad">
        <stop stop-opacity="1" stop-color="rgb(246,245,245)" offset="0%"/>
        <stop stop-opacity="1" stop-color="rgb(213,212,212)" offset="100%"/>
      </linearGradient>
      <linearGradient x1="299" gradientUnits="userSpaceOnUse" x2="396" y1="672" y2="717" id="linearGradient14" spreadMethod="pad">
        <stop stop-opacity="1" stop-color="rgb(246,245,245)" offset="0%"/>
        <stop stop-opacity="1" stop-color="rgb(213,212,212)" offset="100%"/>
      </linearGradient>
      <clipPath clipPathUnits="userSpaceOnUse" id="clipPath1">
        <path d="M0 0 L861 0 L861 796 L0 796 L0 0 Z"/>
      </clipPath>
      <clipPath clipPathUnits="userSpaceOnUse" id="clipPath2">
        <path d="M129 79 L846.5 79 L846.5 742.3333 L129 742.3333 L129 79 Z"/>
      </clipPath>
    </defs>
    <g fill="white" transform="scale(1.2,1.2) translate(-129,-79)" stroke="white">
      <rect x="129" width="718" height="664" y="79" clip-path="url(#clipPath2)" stroke="none"/>
    </g>
    <g fill="white" transform="matrix(1.2,0,0,1.2,-154.8,-94.8)" stroke="white">
      <path d="M142 92 L142 122 L833.5693 122 L833.5693 92 Z" clip-path="url(#clipPath2)" stroke="none"/>
      <rect x="142" width="691.5693" height="607.8887" y="122" clip-path="url(#clipPath2)" stroke="none"/>
      <rect x="142" y="122" clip-path="url(#clipPath2)" fill="rgb(227,226,226)" width="132" height="24" stroke="none"/>
      <rect x="142" y="146" clip-path="url(#clipPath2)" fill="rgb(237,236,236)" width="132" height="583.8887" stroke="none"/>
      <rect x="274" y="122" clip-path="url(#clipPath2)" fill="rgb(213,212,212)" width="147" height="24" stroke="none"/>
      <rect x="274" y="146" clip-path="url(#clipPath2)" fill="rgb(227,226,226)" width="147" height="583.8887" stroke="none"/>
      <rect x="421" y="122" clip-path="url(#clipPath2)" fill="rgb(227,226,226)" width="147" height="24" stroke="none"/>
      <rect x="421" y="146" clip-path="url(#clipPath2)" fill="rgb(237,236,236)" width="147" height="583.8887" stroke="none"/>
      <rect x="568" y="122" clip-path="url(#clipPath2)" fill="rgb(213,212,212)" width="130" height="24" stroke="none"/>
      <rect x="568" y="146" clip-path="url(#clipPath2)" fill="rgb(227,226,226)" width="130" height="583.8887" stroke="none"/>
      <rect x="698" y="122" clip-path="url(#clipPath2)" fill="rgb(227,226,226)" width="135.5693" height="24" stroke="none"/>
      <rect x="698" y="146" clip-path="url(#clipPath2)" fill="rgb(237,236,236)" width="135.5693" height="583.8887" stroke="none"/>
      <line clip-path="url(#clipPath2)" fill="rgb(113,146,178)" x1="142" x2="142" y1="146" y2="729.8887" stroke="none"/>
    </g>
    <g fill="gray" stroke-miterlimit="1.45" transform="matrix(1.2,0,0,1.2,-154.8,-94.8)" stroke-linecap="butt" stroke="gray">
      <rect fill="none" x="142" width="691.5693" height="637.8887" y="92" clip-path="url(#clipPath2)"/>
      <rect fill="none" x="142" width="132" height="607.8887" y="122" clip-path="url(#clipPath2)"/>
      <rect fill="none" x="274" width="147" height="607.8887" y="122" clip-path="url(#clipPath2)"/>
      <rect fill="none" x="421" width="147" height="607.8887" y="122" clip-path="url(#clipPath2)"/>
      <rect fill="none" x="568" width="130" height="607.8887" y="122" clip-path="url(#clipPath2)"/>
      <rect fill="none" x="698" width="135.5693" height="607.8887" y="122" clip-path="url(#clipPath2)"/>
      <rect fill="none" x="142" width="691.5693" height="583.8887" y="146" clip-path="url(#clipPath2)"/>
    </g>
    <g font-size="16" stroke-miterlimit="1.45" font-family="'Liberation Sans'" transform="matrix(1.2,0,0,1.2,-154.8,-94.8)" stroke-linecap="butt">
      <text x="452.2104" xml:space="preserve" y="112.7461" clip-path="url(#clipPath2)" stroke="none">Approvals</text>
      <text x="175.4915" xml:space="preserve" font-size="15" y="140.8245" clip-path="url(#clipPath2)" stroke="none">Customer</text>
      <text x="328.739" xml:space="preserve" font-size="15" y="140.8245" clip-path="url(#clipPath2)" stroke="none">Sales</text>
      <text x="462.4053" xml:space="preserve" font-size="15" y="140.8245" clip-path="url(#clipPath2)" stroke="none">Contracts</text>
      <text x="613.4114" font-size="15" y="140.8245" clip-path="url(#clipPath2)" stroke="none" font-weight="bold" xml:space="preserve">Legal</text>
      <text x="731.6099" xml:space="preserve" font-size="15" y="140.8245" clip-path="url(#clipPath2)" stroke="none">Fulfillment</text>
    </g>
    <g fill="url(#linearGradient1)" stroke-miterlimit="1.45" transform="matrix(1.2,0,0,1.2,-154.8,-94.8)" stroke-linecap="butt" stroke="url(#linearGradient1)">
      <rect x="170" y="159" clip-path="url(#clipPath2)" width="80" rx="22.5" ry="22.5" height="45" stroke="none"/>
      <rect x="170" y="159" clip-path="url(#clipPath2)" fill="none" width="80" rx="22.5" ry="22.5" height="45" stroke="black"/>
    </g>
    <g font-size="11" stroke-miterlimit="1.45" font-family="'Liberation Sans'" transform="matrix(1.2,0,0,1.2,-154.8,-94.8)" stroke-linecap="butt">
      <text x="186.1604" xml:space="preserve" y="179.3489" clip-path="url(#clipPath2)" stroke="none">Customer</text>
      <text x="181.5762" xml:space="preserve" y="191.6379" clip-path="url(#clipPath2)" stroke="none">submits PO</text>
    </g>
    <g fill="url(#linearGradient2)" stroke-miterlimit="1.45" transform="matrix(1.2,0,0,1.2,-154.8,-94.8)" stroke-linecap="butt" stroke="url(#linearGradient2)">
      <path d="M299 159 L396 159 L396 204 L299 204 Z" clip-path="url(#clipPath2)" stroke="none"/>
      <path fill="none" d="M299 159 L396 159 L396 204 L299 204 Z" clip-path="url(#clipPath2)" stroke="black"/>
    </g>
    <g font-size="11" stroke-miterlimit="1.45" font-family="'Liberation Sans'" transform="matrix(1.2,0,0,1.2,-154.8,-94.8)" stroke-linecap="butt">
      <text x="312.9531" xml:space="preserve" y="179.3489" clip-path="url(#clipPath2)" stroke="none">Rep Logs PO,</text>
      <text x="316.0173" xml:space="preserve" y="191.6379" clip-path="url(#clipPath2)" stroke="none">Enters Order</text>
    </g>
    <g fill="url(#linearGradient3)" stroke-miterlimit="1.45" transform="matrix(1.2,0,0,1.2,-154.8,-94.8)" stroke-linecap="butt" stroke="url(#linearGradient3)">
      <path d="M446.1353 159 L543.1353 159 L543.1353 204 L446.1353 204 Z" clip-path="url(#clipPath2)" stroke="none"/>
      <path fill="none" d="M446.1353 159 L543.1353 159 L543.1353 204 L446.1353 204 Z" clip-path="url(#clipPath2)" stroke="black"/>
    </g>
    <g font-size="11" stroke-miterlimit="1.45" font-family="'Liberation Sans'" transform="matrix(1.2,0,0,1.2,-154.8,-94.8)" stroke-linecap="butt">
      <text x="455.198" xml:space="preserve" y="179.3489" clip-path="url(#clipPath2)" stroke="none">Contracts Agent</text>
      <text x="458.2649" xml:space="preserve" y="191.6379" clip-path="url(#clipPath2)" stroke="none">Reviews Order</text>
    </g>
    <g fill="url(#linearGradient4)" stroke-miterlimit="1.45" transform="matrix(1.2,0,0,1.2,-154.8,-94.8)" stroke-linecap="butt" stroke="url(#linearGradient4)">
      <path d="M494.6353 234 L543.1353 268.5 L494.6353 303 L446.1353 268.5 Z" clip-path="url(#clipPath2)" stroke="none"/>
      <path fill="none" d="M494.6353 234 L543.1353 268.5 L494.6353 303 L446.1353 268.5 Z" clip-path="url(#clipPath2)" stroke="black"/>
    </g>
    <g font-size="11" stroke-miterlimit="1.45" font-family="'Liberation Sans'" transform="matrix(1.2,0,0,1.2,-154.8,-94.8)" stroke-linecap="butt">
      <text x="472.313" xml:space="preserve" y="266.3489" clip-path="url(#clipPath2)" stroke="none">Standard</text>
      <text x="475.9949" xml:space="preserve" y="278.6379" clip-path="url(#clipPath2)" stroke="none">Terms?</text>
    </g>
    <g fill="url(#linearGradient5)" stroke-miterlimit="1.45" transform="matrix(1.2,0,0,1.2,-154.8,-94.8)" stroke-linecap="butt" stroke="url(#linearGradient5)">
      <path d="M446.1353 333 L543.1353 333 L543.1353 378 L446.1353 378 Z" clip-path="url(#clipPath2)" stroke="none"/>
      <path fill="none" d="M446.1353 333 L543.1353 333 L543.1353 378 L446.1353 378 Z" clip-path="url(#clipPath2)" stroke="black"/>
    </g>
    <g font-size="11" stroke-miterlimit="1.45" font-family="'Liberation Sans'" transform="matrix(1.2,0,0,1.2,-154.8,-94.8)" stroke-linecap="butt">
      <text x="455.4988" xml:space="preserve" y="353.3489" clip-path="url(#clipPath2)" stroke="none">Agent Approves</text>
      <text x="480.5764" xml:space="preserve" y="365.6379" clip-path="url(#clipPath2)" stroke="none">Order</text>
    </g>
    <g fill="url(#linearGradient6)" stroke-miterlimit="1.45" transform="matrix(1.2,0,0,1.2,-154.8,-94.8)" stroke-linecap="butt" stroke="url(#linearGradient6)">
      <path d="M446.1353 465 L543.1353 465 L543.1353 510 L446.1353 510 Z" clip-path="url(#clipPath2)" stroke="none"/>
      <path fill="none" d="M446.1353 465 L543.1353 465 L543.1353 510 L446.1353 510 Z" clip-path="url(#clipPath2)" stroke="black"/>
    </g>
    <g font-size="11" stroke-miterlimit="1.45" font-family="'Liberation Sans'" transform="matrix(1.2,0,0,1.2,-154.8,-94.8)" stroke-linecap="butt">
      <text x="480.2622" xml:space="preserve" y="479.2043" clip-path="url(#clipPath2)" stroke="none">Agent</text>
      <text x="471.3999" xml:space="preserve" y="491.4934" clip-path="url(#clipPath2)" stroke="none">Requests</text>
      <text x="472.928" xml:space="preserve" y="503.7825" clip-path="url(#clipPath2)" stroke="none">Approval</text>
    </g>
    <g fill="url(#linearGradient7)" stroke-miterlimit="1.45" transform="matrix(1.2,0,0,1.2,-154.8,-94.8)" stroke-linecap="butt" stroke="url(#linearGradient7)">
      <path d="M583 378 L680 378 L680 423 L583 423 Z" clip-path="url(#clipPath2)" stroke="none"/>
      <path fill="none" d="M583 378 L680 378 L680 423 L583 423 Z" clip-path="url(#clipPath2)" stroke="black"/>
    </g>
    <g font-size="11" stroke-miterlimit="1.45" font-family="'Liberation Sans'" transform="matrix(1.2,0,0,1.2,-154.8,-94.8)" stroke-linecap="butt">
      <text x="611.0173" xml:space="preserve" y="392.2043" clip-path="url(#clipPath2)" stroke="none">Attorney</text>
      <text x="601.2473" xml:space="preserve" y="404.4934" clip-path="url(#clipPath2)" stroke="none">Marks it OK,</text>
      <text x="590.2258" xml:space="preserve" y="416.7825" clip-path="url(#clipPath2)" stroke="none">Returns to Agent</text>
    </g>
    <g fill="url(#linearGradient8)" stroke-miterlimit="1.45" transform="matrix(1.2,0,0,1.2,-154.8,-94.8)" stroke-linecap="butt" stroke="url(#linearGradient8)">
      <path d="M631.5 453 L680 487.5 L631.5 522 L583 487.5 Z" clip-path="url(#clipPath2)" stroke="none"/>
      <path fill="none" d="M631.5 453 L680 487.5 L631.5 522 L583 487.5 Z" clip-path="url(#clipPath2)" stroke="black"/>
    </g>
    <g font-size="11" stroke-miterlimit="1.45" font-family="'Liberation Sans'" transform="matrix(1.2,0,0,1.2,-154.8,-94.8)" stroke-linecap="butt">
      <text x="609.4839" xml:space="preserve" y="485.3489" clip-path="url(#clipPath2)" stroke="none">Changes</text>
      <text x="601.2285" xml:space="preserve" y="497.6379" clip-path="url(#clipPath2)" stroke="none">Acceptable?</text>
    </g>
    <g fill="url(#linearGradient9)" stroke-miterlimit="1.45" transform="matrix(1.2,0,0,1.2,-154.8,-94.8)" stroke-linecap="butt" stroke="url(#linearGradient9)">
      <path d="M583 552 L680 552 L680 597 L583 597 Z" clip-path="url(#clipPath2)" stroke="none"/>
      <path fill="none" d="M583 552 L680 552 L680 597 L583 597 Z" clip-path="url(#clipPath2)" stroke="black"/>
    </g>
    <g font-size="11" stroke-miterlimit="1.45" font-family="'Liberation Sans'" transform="matrix(1.2,0,0,1.2,-154.8,-94.8)" stroke-linecap="butt">
      <text x="611.0173" xml:space="preserve" y="566.2043" clip-path="url(#clipPath2)" stroke="none">Attorney</text>
      <text x="602.1631" xml:space="preserve" y="578.4934" clip-path="url(#clipPath2)" stroke="none">Marks it No,</text>
      <text x="590.2258" xml:space="preserve" y="590.7825" clip-path="url(#clipPath2)" stroke="none">Returns to Agent</text>
    </g>
    <g fill="url(#linearGradient10)" stroke-miterlimit="1.45" transform="matrix(1.2,0,0,1.2,-154.8,-94.8)" stroke-linecap="butt" stroke="url(#linearGradient10)">
      <path d="M446.1353 597 L543.1353 597 L543.1353 642 L446.1353 642 Z" clip-path="url(#clipPath2)" stroke="none"/>
      <path fill="none" d="M446.1353 597 L543.1353 597 L543.1353 642 L446.1353 642 Z" clip-path="url(#clipPath2)" stroke="black"/>
    </g>
    <g font-size="11" stroke-miterlimit="1.45" font-family="'Liberation Sans'" transform="matrix(1.2,0,0,1.2,-154.8,-94.8)" stroke-linecap="butt">
      <text x="458.8638" xml:space="preserve" y="617.3489" clip-path="url(#clipPath2)" stroke="none">Agent Cancels</text>
      <text x="480.5764" xml:space="preserve" y="629.6379" clip-path="url(#clipPath2)" stroke="none">Order</text>
    </g>
    <g fill="url(#linearGradient11)" stroke-miterlimit="1.45" transform="matrix(1.2,0,0,1.2,-154.8,-94.8)" stroke-linecap="butt" stroke="url(#linearGradient11)">
      <path d="M719.8647 465 L816.8647 465 L816.8647 510 L719.8647 510 Z" clip-path="url(#clipPath2)" stroke="none"/>
      <path fill="none" d="M719.8647 465 L816.8647 465 L816.8647 510 L719.8647 510 Z" clip-path="url(#clipPath2)" stroke="black"/>
    </g>
    <g font-size="11" stroke-miterlimit="1.45" font-family="'Liberation Sans'" transform="matrix(1.2,0,0,1.2,-154.8,-94.8)" stroke-linecap="butt">
      <text x="742.3875" xml:space="preserve" y="485.3489" clip-path="url(#clipPath2)" stroke="none">Pick Order</text>
      <text x="734.4248" xml:space="preserve" y="497.6379" clip-path="url(#clipPath2)" stroke="none">Log Shipment</text>
    </g>
    <g fill="url(#linearGradient12)" stroke-miterlimit="1.45" transform="matrix(1.2,0,0,1.2,-154.8,-94.8)" stroke-linecap="butt" stroke="url(#linearGradient12)">
      <rect x="446.1353" y="672" clip-path="url(#clipPath2)" width="97" rx="22.5" ry="22.5" height="45" stroke="none"/>
      <rect x="446.1353" y="672" clip-path="url(#clipPath2)" fill="none" width="97" rx="22.5" ry="22.5" height="45" stroke="black"/>
    </g>
    <g font-size="11" stroke-miterlimit="1.45" font-family="'Liberation Sans'" transform="matrix(1.2,0,0,1.2,-154.8,-94.8)" stroke-linecap="butt">
      <text x="475.0764" xml:space="preserve" y="692.3489" clip-path="url(#clipPath2)" stroke="none">Order is</text>
      <text x="464.3638" xml:space="preserve" y="704.6379" clip-path="url(#clipPath2)" stroke="none">Not Shipped</text>
    </g>
    <g fill="url(#linearGradient13)" stroke-miterlimit="1.45" transform="matrix(1.2,0,0,1.2,-154.8,-94.8)" stroke-linecap="butt" stroke="url(#linearGradient13)">
      <rect x="719.8647" y="672" clip-path="url(#clipPath2)" width="97" rx="22.5" ry="22.5" height="45" stroke="none"/>
      <rect x="719.8647" y="672" clip-path="url(#clipPath2)" fill="none" width="97" rx="22.5" ry="22.5" height="45" stroke="black"/>
    </g>
    <g font-size="11" stroke-miterlimit="1.45" font-family="'Liberation Sans'" transform="matrix(1.2,0,0,1.2,-154.8,-94.8)" stroke-linecap="butt">
      <text x="748.4998" xml:space="preserve" y="692.3489" clip-path="url(#clipPath2)" stroke="none">Order Is</text>
      <text x="748.1802" xml:space="preserve" y="704.6379" clip-path="url(#clipPath2)" stroke="none">Shipped</text>
    </g>
    <g fill="url(#linearGradient14)" stroke-miterlimit="1.45" transform="matrix(1.2,0,0,1.2,-154.8,-94.8)" stroke-linecap="butt" stroke="url(#linearGradient14)">
      <rect x="299" y="672" clip-path="url(#clipPath2)" width="97" rx="22.5" ry="22.5" height="45" stroke="none"/>
      <rect x="299" y="672" clip-path="url(#clipPath2)" fill="none" width="97" rx="22.5" ry="22.5" height="45" stroke="black"/>
    </g>
    <g font-size="11" stroke-miterlimit="1.45" font-family="'Liberation Sans'" transform="matrix(1.2,0,0,1.2,-154.8,-94.8)" stroke-linecap="butt">
      <text x="331.6042" xml:space="preserve" y="692.3489" clip-path="url(#clipPath2)" stroke="none">Rep Is</text>
      <text x="328.8516" xml:space="preserve" y="704.6379" clip-path="url(#clipPath2)" stroke="none">Notified</text>
    </g>
    <g stroke-linecap="butt" transform="matrix(1.2,0,0,1.2,-154.8,-94.8)" stroke-miterlimit="1.45">
      <path fill="none" d="M249.9811 181.5 L290.9786 181.5" clip-path="url(#clipPath2)"/>
    </g>
    <g stroke-linecap="butt" transform="matrix(1.2,0,0,1.2,-154.8,-94.8)" stroke-miterlimit="1.45">
      <path d="M298.9786 181.5 L286.9786 176.5 L289.9786 181.5 L286.9786 186.5 Z" clip-path="url(#clipPath2)" stroke="none"/>
      <path fill="none" d="M396.0302 181.5 L438.1512 181.5" clip-path="url(#clipPath2)"/>
      <path d="M446.1512 181.5 L434.1512 176.5 L437.1512 181.5 L434.1512 186.5 Z" clip-path="url(#clipPath2)" stroke="none"/>
      <path fill="none" d="M494.6353 203.9722 L494.6353 225.999" clip-path="url(#clipPath2)"/>
      <path d="M494.6353 233.999 L499.6353 221.999 L494.6353 224.999 L489.6353 221.999 Z" clip-path="url(#clipPath2)" stroke="none"/>
      <path fill="none" d="M494.6353 303.0366 L494.6353 324.9828" clip-path="url(#clipPath2)"/>
      <path d="M494.6353 332.9828 L499.6353 320.9828 L494.6353 323.9828 L489.6353 320.9828 Z" clip-path="url(#clipPath2)" stroke="none"/>
      <text x="501.7589" font-size="10" y="313.7637" clip-path="url(#clipPath2)" font-family="'Liberation Sans'" stroke="none" xml:space="preserve">Yes</text>
      <path fill="none" d="M448.7292 266.6677 L432 266 L432 485 L438.1666 485.2461" clip-path="url(#clipPath2)"/>
      <path d="M446.1602 485.5652 L434.3692 480.0906 L437.1674 485.2062 L433.9704 490.0826 Z" clip-path="url(#clipPath2)" stroke="none"/>
      <text x="433.9914" font-size="10" y="257.9909" clip-path="url(#clipPath2)" font-family="'Liberation Sans'" stroke="none" xml:space="preserve">No</text>
      <path fill="none" d="M582.9933 400.5 L495.1353 400.5 L494.9737 385.9556" clip-path="url(#clipPath2)"/>
      <path d="M494.8848 377.9561 L490.0184 390.0109 L494.9848 386.9555 L500.0178 389.8998 Z" clip-path="url(#clipPath2)" stroke="none"/>
      <path fill="none" d="M543.1193 487.5 L575.0374 487.5" clip-path="url(#clipPath2)"/>
      <path d="M583.0374 487.5 L571.0374 482.5 L574.0374 487.5 L571.0374 492.5 Z" clip-path="url(#clipPath2)" stroke="none"/>
      <path fill="none" d="M631.5 452.9634 L631.5 431.0172" clip-path="url(#clipPath2)"/>
      <path d="M631.5 423.0172 L626.5 435.0172 L631.5 432.0172 L636.5 435.0172 Z" clip-path="url(#clipPath2)" stroke="none"/>
      <text x="638.7914" font-size="10" y="450.252" clip-path="url(#clipPath2)" font-family="'Liberation Sans'" stroke="none" xml:space="preserve">Yes</text>
      <path fill="none" d="M631.5 522.0366 L631.5 543.9828" clip-path="url(#clipPath2)"/>
      <path d="M631.5 551.9828 L636.5 539.9828 L631.5 542.9828 L626.5 539.9828 Z" clip-path="url(#clipPath2)" stroke="none"/>
      <text x="638.8555" font-size="10" y="533.4977" clip-path="url(#clipPath2)" font-family="'Liberation Sans'" stroke="none" xml:space="preserve">No</text>
      <path fill="none" d="M582.9933 574.5 L495.1353 574.5 L494.9746 588.9565" clip-path="url(#clipPath2)"/>
      <path d="M494.8858 596.9561 L500.0188 585.0123 L494.9857 587.9566 L490.0194 584.9012 Z" clip-path="url(#clipPath2)" stroke="none"/>
      <path fill="none" d="M543.1193 355.5 L768.3647 355.5 L768.3647 456.9736" clip-path="url(#clipPath2)"/>
      <path d="M768.3647 464.9736 L773.3647 452.9736 L768.3647 455.9736 L763.3647 452.9736 Z" clip-path="url(#clipPath2)" stroke="none"/>
      <path fill="none" d="M494.6353 642.022 L494.6353 663.9765" clip-path="url(#clipPath2)"/>
      <path d="M494.6353 671.9765 L499.6353 659.9765 L494.6353 662.9765 L489.6353 659.9765 Z" clip-path="url(#clipPath2)" stroke="none"/>
      <path fill="none" d="M768.3647 510.0143 L768.3647 664.0248" clip-path="url(#clipPath2)"/>
      <path d="M768.3647 672.0248 L773.3647 660.0248 L768.3647 663.0248 L763.3647 660.0248 Z" clip-path="url(#clipPath2)" stroke="none"/>
      <path fill="none" d="M446.105 619.5 L347.5 619.5 L347.5 663.978" clip-path="url(#clipPath2)"/>
      <path d="M347.5 671.978 L352.5 659.978 L347.5 662.978 L342.5 659.978 Z" clip-path="url(#clipPath2)" stroke="none"/>
    </g>
  </g>
</svg>
