<svg xmlns="http://www.w3.org/2000/svg" viewBox="-8 -8 93 93" font-size="6" text-anchor="middle">
<circle r="999" fill="#fff"/>
<circle cx="26" cy="66" r="4" fill="#fc0"/>
<path d="M43,3H83V43H43" fill="#cfc"/>
<path d="M83,3H-6v80H3V-6h80zv80m0,0H3M-6,43H83M43-6V83" fill="#39c" stroke="#6cf"/>
<path d="M23,18c2,5-3,9-1,4q-6,9 1,12q-3-2 0,-7c-2,4 3,3 0,7q8-4 0-16" fill="#f00"/>
<path d="M55,20h15v12h-15" fill="#0c9"/>
<g fill="none" stroke="#000">
<path d="M60,22h8.5v2h-12v2h12v2h-12v2h9M24.5,65h3" stroke-dasharray="1"/>
<path d="M18,64l2,2l-2,2m2-2h-4m9,1q1,1 2,0M60,61q3,-3 6,0h3h-12h2v11h8v-11m-6,2v7m2,0v-7m2,0v7"/>
</g>
<g fill="#fff">
<switch>
<text x="23" id="trsvg17-ru" systemLanguage="ru"><tspan id="trsvg1-ru">Срочно</tspan><tspan x="63" id="trsvg2-ru">Не срочно</tspan></text>
<text x="23" id="trsvg17-yue" systemLanguage="yue"><tspan id="trsvg1-yue">緊急</tspan><tspan x="63" id="trsvg2-yue">唔緊急</tspan></text>
<text x="23" id="trsvg17"><tspan id="trsvg1">Urgent</tspan><tspan x="63" id="trsvg2">Not urgent</tspan></text>
</switch>
<switch>
<text x="-23" transform="rotate(270)" id="trsvg18-ru" systemLanguage="ru"><tspan id="trsvg3-ru">Важно</tspan><tspan x="-63" id="trsvg4-ru">Не важно</tspan></text>
<text x="-23" transform="rotate(270)" id="trsvg18-yue" systemLanguage="yue"><tspan id="trsvg3-yue">重要</tspan><tspan x="-63" id="trsvg4-yue">唔重要</tspan></text>
<text x="-23" transform="rotate(270)" id="trsvg18"><tspan id="trsvg3">Important</tspan><tspan x="-63" id="trsvg4">Not important</tspan></text>
</switch>
</g>
<switch>
<text x="23" y="9" fill="#999" id="trsvg19-ru" systemLanguage="ru"><tspan id="trsvg5-ru">Квадрант I</tspan><tspan x="63" id="trsvg6-ru">Квадрант II</tspan><tspan x="23" y="49" id="trsvg7-ru">Квадрант III</tspan><tspan x="63" id="trsvg8-ru">Квадрант IV</tspan></text>
<text x="23" y="9" fill="#999" id="trsvg19-yue" systemLanguage="yue"><tspan id="trsvg5-yue">象限 I</tspan><tspan x="63" id="trsvg6-yue">象限 II</tspan><tspan x="23" y="49" id="trsvg7-yue">象限 III</tspan><tspan x="63" id="trsvg8-yue">象限 IV</tspan></text>
<text x="23" y="9" fill="#999" id="trsvg19"><tspan id="trsvg5">Quadrant I</tspan><tspan x="63" id="trsvg6">Quadrant II</tspan><tspan x="23" y="49" id="trsvg7">Quadrant III</tspan><tspan x="63" id="trsvg8">Quadrant IV</tspan></text>
</switch>
<switch>
<text x="23" y="16" id="trsvg20-ru" systemLanguage="ru"><tspan id="trsvg9-ru">Критические</tspan><tspan x="63" id="trsvg10-ru">Планирование</tspan><tspan x="23" y="56" id="trsvg11-ru">Помехи</tspan><tspan x="63" id="trsvg12-ru">Трата времени</tspan></text>
<text x="23" y="16" id="trsvg20-yue" systemLanguage="yue"><tspan id="trsvg9-yue">十萬火急</tspan><tspan x="63" id="trsvg10-yue">計劃</tspan><tspan x="23" y="56" id="trsvg11-yue">打擾</tspan><tspan x="63" id="trsvg12-yue">嘥時間</tspan></text>
<text x="23" y="16" id="trsvg20"><tspan id="trsvg9">Emergencies</tspan><tspan x="63" id="trsvg10">Planning</tspan><tspan x="23" y="56" id="trsvg11">Interruptions</tspan><tspan x="63" id="trsvg12">Time-wasters</tspan></text>
</switch>
<switch>
<text x="23" y="40" id="trsvg21-ru" systemLanguage="ru"><tspan id="trsvg13-ru">Делай</tspan><tspan x="63" id="trsvg14-ru">Запланируй</tspan><tspan x="23" y="80" id="trsvg15-ru">Делегируй</tspan><tspan x="63" id="trsvg16-ru">Исключи</tspan></text>
<text x="23" y="40" id="trsvg21-yue" systemLanguage="yue"><tspan id="trsvg13-yue">即做</tspan><tspan x="63" id="trsvg14-yue">安排時間表</tspan><tspan x="23" y="80" id="trsvg15-yue">搵第個人做</tspan><tspan x="63" id="trsvg16-yue">清除</tspan></text>
<text x="23" y="40" id="trsvg21"><tspan id="trsvg13">DO</tspan><tspan x="63" id="trsvg14">SCHEDULE</tspan><tspan x="23" y="80" id="trsvg15">DELEGATE</tspan><tspan x="63" id="trsvg16">ELIMINATE</tspan></text>
</switch>
</svg>